{
.appVersion = "1032";
copyright = "Copyright 2010 The Tangerine Project Authors (https://github.com/googlefonts/TangerineFont)";
customParameters = (
{
name = description;
value = "Copyright (c) 2010 by Toshi Omagari. All rights reserved.";
},
{
name = trademark;
value = "Tangerine is a trademark of Toshi Omagari.";
},
{
name = panose;
value = (
2,
0,
0,
0,
0,
0,
0,
0,
0,
0
);
},
{
name = openTypeOS2Type;
value = (
2
);
},
{
name = glyphOrder;
value = (
.null,
CR,
space,
Agrave,
Aring,
Atilde,
C,
Ccedilla,
E,
Eacute,
Ecircumflex,
Edieresis,
Egrave,
F,
G,
H,
I,
Iacute,
Icircumflex,
Idieresis,
Igrave,
J,
K,
L,
M,
N,
Ntilde,
O,
Oacute,
Ocircumflex,
Odieresis,
Ograve,
Oslash,
Otilde,
P,
Q,
R,
S,
Scaron,
T,
U,
Uacute,
Ucircumflex,
Udieresis,
Ugrave,
V,
W,
X,
Y,
Yacute,
Ydieresis,
Z,
Zcaron,
a,
aacute,
acircumflex,
acute,
adieresis,
ae,
agrave,
ampersand,
aring,
at,
atilde,
b,
bracketleft,
bracketright,
c,
caron,
ccedilla,
circumflex,
colon,
comma,
d,
dagger,
daggerdbl,
dieresis,
dotlessi,
e,
eacute,
ecircumflex,
edieresis,
egrave,
emdash,
endash,
eth,
exclam,
exclamdown,
f,
fi,
g,
germandbls,
grave,
guillemotleft,
guillemotright,
h,
hyphen,
i,
iacute,
icircumflex,
idieresis,
igrave,
j,
k,
l,
m,
n,
ntilde,
o,
oacute,
ocircumflex,
odieresis,
oe,
ograve,
oslash,
otilde,
p,
paragraph,
parenleft,
parenright,
period,
q,
question,
questiondown,
quotedblleft,
quotedblright,
quoteleft,
quoteright,
r,
ring,
s,
scaron,
section,
semicolon,
slash,
Adieresis,
t,
tilde,
u,
uacute,
ucircumflex,
udieresis,
ugrave,
underscore,
v,
w,
x,
yacute,
ydieresis,
z,
zcaron,
A,
B,
D,
y,
one,
two,
three,
zero,
four,
five,
eight,
nine,
percent,
perthousand,
numbersign,
Euro,
yen,
dollar,
cent,
sterling,
six,
seven,
asterisk,
florin,
ordfeminine,
ordmasculine,
trademark,
copyright,
registered,
minus,
plus,
plusminus,
divide,
multiply,
equal,
thorn,
mu,
Thorn,
OE,
fl,
Lslash,
lslash,
bar,
brokenbar,
dotaccent,
quotesinglbase,
quotedblbase,
ellipsis,
onesuperior,
twosuperior,
threesuperior,
cedilla,

glyphs = (
{
glyphname = Agrave;
lastChange = "2017-06-09 14:51:01 +0000";
layers = (
{
layerId = UUID0;
paths = (
{
closed = 1;
nodes = (
"999 666 OFFCURVE",
"995 660 OFFCURVE",
"988 660 CURVE",
"955 668 OFFCURVE",
"894 693 OFFCURVE",
"865 709 CURVE SMOOTH",
"862 710 OFFCURVE",
"862 714 OFFCURVE",
"865 717 CURVE SMOOTH",
"878 728 OFFCURVE",
"902 734 OFFCURVE",
"905 731 CURVE SMOOTH",
"928 712 OFFCURVE",
"960 689 OFFCURVE",
"996 669 CURVE"
);
},
{
closed = 1;
nodes = (
"1007 582 OFFCURVE",
"1008 578 OFFCURVE",
"1001 570 CURVE SMOOTH",
"914 475 OFFCURVE",
"859 316 OFFCURVE",
"859 145 CURVE SMOOTH",
"859 81 OFFCURVE",
"873 44 OFFCURVE",
"912 44 CURVE SMOOTH",
"938 44 OFFCURVE",
"963 63 OFFCURVE",
"988 100 CURVE",
"992 103 OFFCURVE",
"998 99 OFFCURVE",
"995 94 CURVE SMOOTH",
"969 50 OFFCURVE",
"918 0 OFFCURVE",
"887 0 CURVE SMOOTH",
"843 0 OFFCURVE",
"819 50 OFFCURVE",
"819 119 CURVE SMOOTH",
"819 172 OFFCURVE",
"825 227 OFFCURVE",
"837 282 CURVE",
"774 282 OFFCURVE",
"714 281 OFFCURVE",
"655 278 CURVE",
"611 231 OFFCURVE",
"571 190 OFFCURVE",
"532 155 CURVE SMOOTH",
"425 58 OFFCURVE",
"317 0 OFFCURVE",
"182 0 CURVE SMOOTH",
"48 0 OFFCURVE",
"9 146 OFFCURVE",
"97 251 CURVE",
"101 254 OFFCURVE",
"108 250 OFFCURVE",
"107 241 CURVE",
"43 172 OFFCURVE",
"80 43 OFFCURVE",
"234 43 CURVE SMOOTH",
"335 43 OFFCURVE",
"442 93 OFFCURVE",
"534 180 CURVE SMOOTH",
"563 207 OFFCURVE",
"594 240 OFFCURVE",
"629 277 CURVE",
"583 274 OFFCURVE",
"542 270 OFFCURVE",
"505 265 CURVE",
"492 268 OFFCURVE",
"524 289 OFFCURVE",
"544 291 CURVE SMOOTH",
"560 292 OFFCURVE",
"599 293 OFFCURVE",
"646 294 CURVE",
"722 374 OFFCURVE",
"813 468 OFFCURVE",
"937 565 CURVE",
"848 594 OFFCURVE",
"749 616 OFFCURVE",
"661 616 CURVE SMOOTH",
"561 616 OFFCURVE",
"491 559 OFFCURVE",
"475 440 CURVE",
"472 433 OFFCURVE",
"466 435 OFFCURVE",
"465 442 CURVE",
"481 573 OFFCURVE",
"567 644 OFFCURVE",
"696 644 CURVE SMOOTH",
"805 644 OFFCURVE",
"924 612 OFFCURVE",
"1004 585 CURVE"
);
},
{
closed = 1;
nodes = (
"863 392 OFFCURVE",
"903 488 OFFCURVE",
"959 564 CURVE",
"842 469 OFFCURVE",
"751 377 OFFCURVE",
"671 294 CURVE",
"735 295 OFFCURVE",
"804 295 OFFCURVE",
"840 295 CURVE"
);
}
);
width = 996;
},
{
layerId = "A10215CB-3318-4220-A0C8-1C7678CE5CF9";
paths = (
{
closed = 1;
nodes = (
"999 666 OFFCURVE",
"995 660 OFFCURVE",
"988 660 CURVE",
"955 668 OFFCURVE",
"894 693 OFFCURVE",
"865 709 CURVE SMOOTH",
"862 710 OFFCURVE",
"862 714 OFFCURVE",
"865 717 CURVE SMOOTH",
"878 728 OFFCURVE",
"902 734 OFFCURVE",
"905 731 CURVE SMOOTH",
"928 712 OFFCURVE",
"960 689 OFFCURVE",
"996 669 CURVE"
);
},
{
closed = 1;
nodes = (
"1025 582 OFFCURVE",
"1026 578 OFFCURVE",
"1018 570 CURVE SMOOTH",
"931 475 OFFCURVE",
"877 316 OFFCURVE",
"877 145 CURVE SMOOTH",
"877 81 OFFCURVE",
"890 44 OFFCURVE",
"929 44 CURVE SMOOTH",
"956 44 OFFCURVE",
"981 63 OFFCURVE",
"1005 100 CURVE",
"1009 103 OFFCURVE",
"1014 99 OFFCURVE",
"1013 94 CURVE",
"978 38 OFFCURVE",
"933 0 OFFCURVE",
"897 0 CURVE SMOOTH",
"844 0 OFFCURVE",
"816 43 OFFCURVE",
"816 119 CURVE SMOOTH",
"816 172 OFFCURVE",
"822 227 OFFCURVE",
"834 282 CURVE",
"771 282 OFFCURVE",
"710 281 OFFCURVE",
"653 278 CURVE",
"609 231 OFFCURVE",
"569 190 OFFCURVE",
"530 155 CURVE SMOOTH",
"423 58 OFFCURVE",
"315 0 OFFCURVE",
"180 0 CURVE SMOOTH",
"35 0 OFFCURVE",
"8 143 OFFCURVE",
"95 251 CURVE",
"99 254 OFFCURVE",
"106 250 OFFCURVE",
"105 241 CURVE",
"43 174 OFFCURVE",
"93 55 OFFCURVE",
"233 55 CURVE SMOOTH",
"346 55 OFFCURVE",
"445 105 OFFCURVE",
"533 185 CURVE SMOOTH",
"564 212 OFFCURVE",
"594 243 OFFCURVE",
"627 276 CURVE",
"580 273 OFFCURVE",
"539 270 OFFCURVE",
"503 265 CURVE",
"491 267 OFFCURVE",
"521 288 OFFCURVE",
"541 291 CURVE",
"558 292 OFFCURVE",
"597 293 OFFCURVE",
"644 294 CURVE",
"719 371 OFFCURVE",
"806 462 OFFCURVE",
"931 561 CURVE",
"842 590 OFFCURVE",
"743 612 OFFCURVE",
"655 612 CURVE SMOOTH",
"555 612 OFFCURVE",
"488 559 OFFCURVE",
"473 440 CURVE",
"470 433 OFFCURVE",
"464 435 OFFCURVE",
"463 442 CURVE",
"479 573 OFFCURVE",
"565 644 OFFCURVE",
"694 644 CURVE SMOOTH",
"803 644 OFFCURVE",
"941 612 OFFCURVE",
"1021 585 CURVE"
);
},
{
closed = 1;
nodes = (
"858 391 OFFCURVE",
"897 484 OFFCURVE",
"953 560 CURVE",
"836 465 OFFCURVE",
"746 375 OFFCURVE",
"669 294 CURVE",
"733 295 OFFCURVE",
"801 295 OFFCURVE",
"837 295 CURVE"
);
}
);
width = 1015;
}
);
unicode = 00C0;
},
{
glyphname = Aring;
lastChange = "2017-06-09 14:51:01 +0000";
layers = (
{
layerId = UUID0;
paths = (
{
closed = 1;
nodes = (
"968 753 OFFCURVE",
"956 738 OFFCURVE",
"956 714 CURVE SMOOTH",
"956 695 OFFCURVE",
"965 682 OFFCURVE",
"986 682 CURVE SMOOTH",
"1006 682 OFFCURVE",
"1018 698 OFFCURVE",
"1018 722 CURVE SMOOTH",
"1018 743 OFFCURVE",
"1008 753 OFFCURVE",
"989 753 CURVE SMOOTH"
);
},
{
closed = 1;
nodes = (
"952 670 OFFCURVE",
"940 686 OFFCURVE",
"940 706 CURVE SMOOTH",
"940 737 OFFCURVE",
"966 765 OFFCURVE",
"1001 765 CURVE SMOOTH",
"1024 765 OFFCURVE",
"1034 750 OFFCURVE",
"1034 730 CURVE SMOOTH",
"1034 699 OFFCURVE",
"1009 670 OFFCURVE",
"973 670 CURVE SMOOTH"
);
},
{
closed = 1;
nodes = (
"1007 582 OFFCURVE",
"1008 578 OFFCURVE",
"1001 570 CURVE SMOOTH",
"914 475 OFFCURVE",
"859 316 OFFCURVE",
"859 145 CURVE SMOOTH",
"859 81 OFFCURVE",
"873 44 OFFCURVE",
"912 44 CURVE SMOOTH",
"938 44 OFFCURVE",
"963 63 OFFCURVE",
"988 100 CURVE",
"992 103 OFFCURVE",
"998 99 OFFCURVE",
"995 94 CURVE SMOOTH",
"969 50 OFFCURVE",
"918 0 OFFCURVE",
"887 0 CURVE SMOOTH",
"843 0 OFFCURVE",
"819 50 OFFCURVE",
"819 119 CURVE SMOOTH",
"819 172 OFFCURVE",
"825 227 OFFCURVE",
"837 282 CURVE",
"774 282 OFFCURVE",
"714 281 OFFCURVE",
"655 278 CURVE",
"611 231 OFFCURVE",
"571 190 OFFCURVE",
"532 155 CURVE SMOOTH",
"425 58 OFFCURVE",
"317 0 OFFCURVE",
"182 0 CURVE SMOOTH",
"48 0 OFFCURVE",
"9 146 OFFCURVE",
"97 251 CURVE",
"101 254 OFFCURVE",
"108 250 OFFCURVE",
"107 241 CURVE",
"43 172 OFFCURVE",
"80 43 OFFCURVE",
"234 43 CURVE SMOOTH",
"335 43 OFFCURVE",
"442 93 OFFCURVE",
"534 180 CURVE SMOOTH",
"563 207 OFFCURVE",
"594 240 OFFCURVE",
"629 277 CURVE",
"583 274 OFFCURVE",
"542 270 OFFCURVE",
"505 265 CURVE",
"492 268 OFFCURVE",
"524 289 OFFCURVE",
"544 291 CURVE SMOOTH",
"560 292 OFFCURVE",
"599 293 OFFCURVE",
"646 294 CURVE",
"722 374 OFFCURVE",
"813 468 OFFCURVE",
"937 565 CURVE",
"848 594 OFFCURVE",
"749 616 OFFCURVE",
"661 616 CURVE SMOOTH",
"561 616 OFFCURVE",
"491 559 OFFCURVE",
"475 440 CURVE",
"472 433 OFFCURVE",
"466 435 OFFCURVE",
"465 442 CURVE",
"481 573 OFFCURVE",
"567 644 OFFCURVE",
"696 644 CURVE SMOOTH",
"805 644 OFFCURVE",
"924 612 OFFCURVE",
"1004 585 CURVE"
);
},
{
closed = 1;
nodes = (
"863 392 OFFCURVE",
"903 488 OFFCURVE",
"959 564 CURVE",
"842 469 OFFCURVE",
"751 377 OFFCURVE",
"671 294 CURVE",
"735 295 OFFCURVE",
"804 295 OFFCURVE",
"840 295 CURVE"
);
}
);
width = 996;
},
{
layerId = "A10215CB-3318-4220-A0C8-1C7678CE5CF9";
paths = (
{
closed = 1;
nodes = (
"968 753 OFFCURVE",
"956 738 OFFCURVE",
"956 714 CURVE SMOOTH",
"956 695 OFFCURVE",
"965 682 OFFCURVE",
"986 682 CURVE SMOOTH",
"1006 682 OFFCURVE",
"1018 698 OFFCURVE",
"1018 722 CURVE SMOOTH",
"1018 743 OFFCURVE",
"1008 753 OFFCURVE",
"989 753 CURVE SMOOTH"
);
},
{
closed = 1;
nodes = (
"952 670 OFFCURVE",
"940 686 OFFCURVE",
"940 706 CURVE SMOOTH",
"940 737 OFFCURVE",
"966 765 OFFCURVE",
"1001 765 CURVE SMOOTH",
"1024 765 OFFCURVE",
"1034 750 OFFCURVE",
"1034 730 CURVE SMOOTH",
"1034 699 OFFCURVE",
"1009 670 OFFCURVE",
"973 670 CURVE SMOOTH"
);
},
{
closed = 1;
nodes = (
"1025 582 OFFCURVE",
"1026 578 OFFCURVE",
"1018 570 CURVE SMOOTH",
"931 475 OFFCURVE",
"877 316 OFFCURVE",
"877 145 CURVE SMOOTH",
"877 81 OFFCURVE",
"890 44 OFFCURVE",
"929 44 CURVE SMOOTH",
"956 44 OFFCURVE",
"981 63 OFFCURVE",
"1005 100 CURVE",
"1009 103 OFFCURVE",
"1014 99 OFFCURVE",
"1013 94 CURVE",
"978 38 OFFCURVE",
"933 0 OFFCURVE",
"897 0 CURVE SMOOTH",
"844 0 OFFCURVE",
"816 43 OFFCURVE",
"816 119 CURVE SMOOTH",
"816 172 OFFCURVE",
"822 227 OFFCURVE",
"834 282 CURVE",
"771 282 OFFCURVE",
"710 281 OFFCURVE",
"653 278 CURVE",
"609 231 OFFCURVE",
"569 190 OFFCURVE",
"530 155 CURVE SMOOTH",
"423 58 OFFCURVE",
"315 0 OFFCURVE",
"180 0 CURVE SMOOTH",
"35 0 OFFCURVE",
"8 143 OFFCURVE",
"95 251 CURVE",
"99 254 OFFCURVE",
"106 250 OFFCURVE",
"105 241 CURVE",
"43 174 OFFCURVE",
"93 55 OFFCURVE",
"233 55 CURVE SMOOTH",
"346 55 OFFCURVE",
"445 105 OFFCURVE",
"533 185 CURVE SMOOTH",
"564 212 OFFCURVE",
"594 243 OFFCURVE",
"627 276 CURVE",
"580 273 OFFCURVE",
"539 270 OFFCURVE",
"503 265 CURVE",
"491 267 OFFCURVE",
"521 288 OFFCURVE",
"541 291 CURVE",
"558 292 OFFCURVE",
"597 293 OFFCURVE",
"644 294 CURVE",
"719 371 OFFCURVE",
"806 462 OFFCURVE",
"931 561 CURVE",
"842 590 OFFCURVE",
"743 612 OFFCURVE",
"655 612 CURVE SMOOTH",
"555 612 OFFCURVE",
"488 559 OFFCURVE",
"473 440 CURVE",
"470 433 OFFCURVE",
"464 435 OFFCURVE",
"463 442 CURVE",
"479 573 OFFCURVE",
"565 644 OFFCURVE",
"694 644 CURVE SMOOTH",
"803 644 OFFCURVE",
"941 612 OFFCURVE",
"1021 585 CURVE"
);
},
{
closed = 1;
nodes = (
"858 391 OFFCURVE",
"897 484 OFFCURVE",
"953 560 CURVE",
"836 465 OFFCURVE",
"746 375 OFFCURVE",
"669 294 CURVE",
"733 295 OFFCURVE",
"801 295 OFFCURVE",
"837 295 CURVE"
);
}
);
width = 1015;
}
);
unicode = 00C5;
},
{
glyphname = Atilde;
lastChange = "2017-06-09 14:51:01 +0000";
layers = (
{
layerId = UUID0;
paths = (
{
closed = 1;
nodes = (
"885 694 OFFCURVE",
"912 719 OFFCURVE",
"935 719 CURVE SMOOTH",
"966 719 OFFCURVE",
"984 684 OFFCURVE",
"1028 684 CURVE SMOOTH",
"1052 684 OFFCURVE",
"1066 700 OFFCURVE",
"1079 728 CURVE",
"1082 731 OFFCURVE",
"1088 728 OFFCURVE",
"1087 724 CURVE SMOOTH",
"1071 688 OFFCURVE",
"1051 665 OFFCURVE",
"1011 665 CURVE SMOOTH",
"974 665 OFFCURVE",
"950 698 OFFCURVE",
"923 698 CURVE SMOOTH",
"906 698 OFFCURVE",
"892 686 OFFCURVE",
"877 667 CURVE",
"872 664 OFFCURVE",
"867 669 OFFCURVE",
"870 673 CURVE SMOOTH"
);
},
{
closed = 1;
nodes = (
"1007 582 OFFCURVE",
"1008 578 OFFCURVE",
"1001 570 CURVE SMOOTH",
"914 475 OFFCURVE",
"859 316 OFFCURVE",
"859 145 CURVE SMOOTH",
"859 81 OFFCURVE",
"873 44 OFFCURVE",
"912 44 CURVE SMOOTH",
"938 44 OFFCURVE",
"963 63 OFFCURVE",
"988 100 CURVE",
"992 103 OFFCURVE",
"998 99 OFFCURVE",
"995 94 CURVE SMOOTH",
"969 50 OFFCURVE",
"918 0 OFFCURVE",
"887 0 CURVE SMOOTH",
"843 0 OFFCURVE",
"819 50 OFFCURVE",
"819 119 CURVE SMOOTH",
"819 172 OFFCURVE",
"825 227 OFFCURVE",
"837 282 CURVE",
"774 282 OFFCURVE",
"714 281 OFFCURVE",
"655 278 CURVE",
"611 231 OFFCURVE",
"571 190 OFFCURVE",
"532 155 CURVE SMOOTH",
"425 58 OFFCURVE",
"317 0 OFFCURVE",
"182 0 CURVE SMOOTH",
"48 0 OFFCURVE",
"9 146 OFFCURVE",
"97 251 CURVE",
"101 254 OFFCURVE",
"108 250 OFFCURVE",
"107 241 CURVE",
"43 172 OFFCURVE",
"80 43 OFFCURVE",
"234 43 CURVE SMOOTH",
"335 43 OFFCURVE",
"442 93 OFFCURVE",
"534 180 CURVE SMOOTH",
"563 207 OFFCURVE",
"594 240 OFFCURVE",
"629 277 CURVE",
"583 274 OFFCURVE",
"542 270 OFFCURVE",
"505 265 CURVE",
"492 268 OFFCURVE",
"524 289 OFFCURVE",
"544 291 CURVE SMOOTH",
"560 292 OFFCURVE",
"599 293 OFFCURVE",
"646 294 CURVE",
"722 374 OFFCURVE",
"813 468 OFFCURVE",
"937 565 CURVE",
"848 594 OFFCURVE",
"749 616 OFFCURVE",
"661 616 CURVE SMOOTH",
"561 616 OFFCURVE",
"491 559 OFFCURVE",
"475 440 CURVE",
"472 433 OFFCURVE",
"466 435 OFFCURVE",
"465 442 CURVE",
"481 573 OFFCURVE",
"567 644 OFFCURVE",
"696 644 CURVE SMOOTH",
"805 644 OFFCURVE",
"924 612 OFFCURVE",
"1004 585 CURVE"
);
},
{
closed = 1;
nodes = (
"863 392 OFFCURVE",
"903 488 OFFCURVE",
"959 564 CURVE",
"842 469 OFFCURVE",
"751 377 OFFCURVE",
"671 294 CURVE",
"735 295 OFFCURVE",
"804 295 OFFCURVE",
"840 295 CURVE"
);
}
);
width = 996;
},
{
layerId = "A10215CB-3318-4220-A0C8-1C7678CE5CF9";
paths = (
{
closed = 1;
nodes = (
"885 694 OFFCURVE",
"912 719 OFFCURVE",
"935 719 CURVE SMOOTH",
"966 719 OFFCURVE",
"984 684 OFFCURVE",
"1028 684 CURVE SMOOTH",
"1052 684 OFFCURVE",
"1066 700 OFFCURVE",
"1079 728 CURVE",
"1082 731 OFFCURVE",
"1088 728 OFFCURVE",
"1087 724 CURVE SMOOTH",
"1071 688 OFFCURVE",
"1051 665 OFFCURVE",
"1011 665 CURVE SMOOTH",
"974 665 OFFCURVE",
"950 698 OFFCURVE",
"923 698 CURVE SMOOTH",
"906 698 OFFCURVE",
"892 686 OFFCURVE",
"877 667 CURVE",
"872 664 OFFCURVE",
"867 669 OFFCURVE",
"870 673 CURVE SMOOTH"
);
},
{
closed = 1;
nodes = (
"1025 582 OFFCURVE",
"1026 578 OFFCURVE",
"1018 570 CURVE SMOOTH",
"931 475 OFFCURVE",
"877 316 OFFCURVE",
"877 145 CURVE SMOOTH",
"877 81 OFFCURVE",
"890 44 OFFCURVE",
"929 44 CURVE SMOOTH",
"956 44 OFFCURVE",
"981 63 OFFCURVE",
"1005 100 CURVE",
"1009 103 OFFCURVE",
"1014 99 OFFCURVE",
"1013 94 CURVE",
"978 38 OFFCURVE",
"933 0 OFFCURVE",
"897 0 CURVE SMOOTH",
"844 0 OFFCURVE",
"816 43 OFFCURVE",
"816 119 CURVE SMOOTH",
"816 172 OFFCURVE",
"822 227 OFFCURVE",
"834 282 CURVE",
"771 282 OFFCURVE",
"710 281 OFFCURVE",
"653 278 CURVE",
"609 231 OFFCURVE",
"569 190 OFFCURVE",
"530 155 CURVE SMOOTH",
"423 58 OFFCURVE",
"315 0 OFFCURVE",
"180 0 CURVE SMOOTH",
"35 0 OFFCURVE",
"8 143 OFFCURVE",
"95 251 CURVE",
"99 254 OFFCURVE",
"106 250 OFFCURVE",
"105 241 CURVE",
"43 174 OFFCURVE",
"93 55 OFFCURVE",
"233 55 CURVE SMOOTH",
"346 55 OFFCURVE",
"445 105 OFFCURVE",
"533 185 CURVE SMOOTH",
"564 212 OFFCURVE",
"594 243 OFFCURVE",
"627 276 CURVE",
"580 273 OFFCURVE",
"539 270 OFFCURVE",
"503 265 CURVE",
"491 267 OFFCURVE",
"521 288 OFFCURVE",
"541 291 CURVE",
"558 292 OFFCURVE",
"597 293 OFFCURVE",
"644 294 CURVE",
"719 371 OFFCURVE",
"806 462 OFFCURVE",
"931 561 CURVE",
"842 590 OFFCURVE",
"743 612 OFFCURVE",
"655 612 CURVE SMOOTH",
"555 612 OFFCURVE",
"488 559 OFFCURVE",
"473 440 CURVE",
"470 433 OFFCURVE",
"464 435 OFFCURVE",
"463 442 CURVE",
"479 573 OFFCURVE",
"565 644 OFFCURVE",
"694 644 CURVE SMOOTH",
"803 644 OFFCURVE",
"941 612 OFFCURVE",
"1021 585 CURVE"
);
},
{
closed = 1;
nodes = (
"858 391 OFFCURVE",
"897 484 OFFCURVE",
"953 560 CURVE",
"836 465 OFFCURVE",
"746 375 OFFCURVE",
"669 294 CURVE",
"733 295 OFFCURVE",
"801 295 OFFCURVE",
"837 295 CURVE"
);
}
);
width = 1015;
}
);
unicode = 00C3;
},
{
glyphname = C;
lastChange = "2017-06-09 14:51:01 +0000";
layers = (
{
layerId = UUID0;
paths = (
{
closed = 1;
nodes = (
"561 644 OFFCURVE",
"630 624 OFFCURVE",
"630 592 CURVE SMOOTH",
"630 571 OFFCURVE",
"610 527 OFFCURVE",
"594 505 CURVE",
"590 502 OFFCURVE",
"583 507 OFFCURVE",
"586 512 CURVE SMOOTH",
"600 537 OFFCURVE",
"603 556 OFFCURVE",
"595 569 CURVE SMOOTH",
"576 600 OFFCURVE",
"515 625 OFFCURVE",
"442 625 CURVE SMOOTH",
"251 625 OFFCURVE",
"120 481 OFFCURVE",
"120 276 CURVE SMOOTH",
"120 127 OFFCURVE",
"202 17 OFFCURVE",
"346 17 CURVE SMOOTH",
"442 17 OFFCURVE",
"507 81 OFFCURVE",
"534 180 CURVE",
"537 187 OFFCURVE",
"545 185 OFFCURVE",
"545 178 CURVE",
"535 123 OFFCURVE",
"499 31 OFFCURVE",
"484 26 CURVE SMOOTH",
"441 10 OFFCURVE",
"389 0 OFFCURVE",
"330 0 CURVE SMOOTH",
"167 0 OFFCURVE",
"69 105 OFFCURVE",
"69 245 CURVE SMOOTH",
"69 458 OFFCURVE",
"231 644 OFFCURVE",
"466 644 CURVE SMOOTH"
);
}
);
width = 557;
},
{
layerId = "A10215CB-3318-4220-A0C8-1C7678CE5CF9";
paths = (
{
closed = 1;
nodes = (
"580 644 OFFCURVE",
"650 624 OFFCURVE",
"650 592 CURVE SMOOTH",
"650 571 OFFCURVE",
"627 514 OFFCURVE",
"611 492 CURVE",
"607 489 OFFCURVE",
"598 493 OFFCURVE",
"601 500 CURVE SMOOTH",
"615 525 OFFCURVE",
"618 544 OFFCURVE",
"610 557 CURVE SMOOTH",
"593 585 OFFCURVE",
"534 616 OFFCURVE",
"451 616 CURVE SMOOTH",
"243 616 OFFCURVE",
"139 484 OFFCURVE",
"139 276 CURVE SMOOTH",
"139 127 OFFCURVE",
"221 17 OFFCURVE",
"365 17 CURVE SMOOTH",
"461 17 OFFCURVE",
"526 81 OFFCURVE",
"553 180 CURVE",
"556 187 OFFCURVE",
"565 185 OFFCURVE",
"565 178 CURVE",
"554 123 OFFCURVE",
"521 32 OFFCURVE",
"504 26 CURVE SMOOTH",
"461 10 OFFCURVE",
"408 0 OFFCURVE",
"349 0 CURVE SMOOTH",
"162 0 OFFCURVE",
"69 92 OFFCURVE",
"69 245 CURVE SMOOTH",
"69 473 OFFCURVE",
"241 644 OFFCURVE",
"485 644 CURVE SMOOTH"
);
}
);
width = 577;
}
);
unicode = 0043;
},
{
glyphname = Ccedilla;
lastChange = "2017-06-09 14:51:01 +0000";
layers = (
{
layerId = UUID0;
paths = (
{
closed = 1;
nodes = (
"629 570 OFFCURVE",
"610 526 OFFCURVE",
"594 505 CURVE",
"590 502 OFFCURVE",
"584 505 OFFCURVE",
"585 512 CURVE",
"599 537 OFFCURVE",
"602 556 OFFCURVE",
"594 569 CURVE SMOOTH",
"575 598 OFFCURVE",
"514 625 OFFCURVE",
"442 625 CURVE SMOOTH",
"251 625 OFFCURVE",
"120 481 OFFCURVE",
"120 276 CURVE SMOOTH",
"120 127 OFFCURVE",
"201 17 OFFCURVE",
"345 17 CURVE SMOOTH",
"441 17 OFFCURVE",
"506 81 OFFCURVE",
"533 180 CURVE",
"537 187 OFFCURVE",
"544 184 OFFCURVE",
"544 177 CURVE",
"534 123 OFFCURVE",
"500 32 OFFCURVE",
"483 26 CURVE SMOOTH",
"443 10 OFFCURVE",
"396 1 OFFCURVE",
"341 0 CURVE",
"330 -8 OFFCURVE",
"326 -22 OFFCURVE",
"330 -33 CURVE SMOOTH",
"342 -64 OFFCURVE",
"323 -101 OFFCURVE",
"276 -120 CURVE",
"272 -119 OFFCURVE",
"271 -113 OFFCURVE",
"274 -110 CURVE",
"309 -94 OFFCURVE",
"317 -76 OFFCURVE",
"309 -49 CURVE SMOOTH",
"304 -33 OFFCURVE",
"311 -11 OFFCURVE",
"328 0 CURVE",
"165 0 OFFCURVE",
"69 107 OFFCURVE",
"69 245 CURVE SMOOTH",
"69 457 OFFCURVE",
"231 644 OFFCURVE",
"466 644 CURVE SMOOTH",
"561 644 OFFCURVE",
"629 624 OFFCURVE",
"629 591 CURVE SMOOTH"
);
}
);
width = 557;
},
{
layerId = "A10215CB-3318-4220-A0C8-1C7678CE5CF9";
paths = (
{
closed = 1;
nodes = (
"581 644 OFFCURVE",
"651 624 OFFCURVE",
"651 592 CURVE SMOOTH",
"651 571 OFFCURVE",
"628 514 OFFCURVE",
"612 493 CURVE",
"608 490 OFFCURVE",
"599 495 OFFCURVE",
"602 500 CURVE SMOOTH",
"616 525 OFFCURVE",
"619 544 OFFCURVE",
"611 557 CURVE SMOOTH",
"594 585 OFFCURVE",
"534 617 OFFCURVE",
"451 617 CURVE SMOOTH",
"242 617 OFFCURVE",
"140 484 OFFCURVE",
"140 276 CURVE SMOOTH",
"140 128 OFFCURVE",
"221 18 OFFCURVE",
"365 18 CURVE SMOOTH",
"461 18 OFFCURVE",
"526 81 OFFCURVE",
"553 181 CURVE",
"557 186 OFFCURVE",
"566 185 OFFCURVE",
"566 178 CURVE",
"555 123 OFFCURVE",
"520 33 OFFCURVE",
"505 26 CURVE",
"466 11 OFFCURVE",
"416 3 OFFCURVE",
"361 0 CURVE",
"352 -8 OFFCURVE",
"350 -21 OFFCURVE",
"354 -32 CURVE SMOOTH",
"366 -63 OFFCURVE",
"347 -100 OFFCURVE",
"300 -119 CURVE",
"296 -118 OFFCURVE",
"295 -112 OFFCURVE",
"298 -109 CURVE",
"333 -93 OFFCURVE",
"337 -76 OFFCURVE",
"328 -49 CURVE SMOOTH",
"323 -32 OFFCURVE",
"325 -15 OFFCURVE",
"344 0 CURVE",
"160 3 OFFCURVE",
"69 93 OFFCURVE",
"69 246 CURVE SMOOTH",
"69 473 OFFCURVE",
"242 644 OFFCURVE",
"486 644 CURVE SMOOTH"
);
}
);
width = 578;
}
);
unicode = 00C7;
},
{
glyphname = E;
lastChange = "2017-06-09 14:51:01 +0000";
layers = (
{
layerId = UUID0;
paths = (
{
closed = 1;
nodes = (
"269 476 OFFCURVE",
"297 445 OFFCURVE",
"373 422 CURVE",
"381 417 OFFCURVE",
"356 395 OFFCURVE",
"344 392 CURVE",
"195 399 OFFCURVE",
"108 326 OFFCURVE",
"108 182 CURVE SMOOTH",
"108 89 OFFCURVE",
"166 18 OFFCURVE",
"258 18 CURVE SMOOTH",
"367 18 OFFCURVE",
"436 66 OFFCURVE",
"467 179 CURVE",
"471 186 OFFCURVE",
"477 182 OFFCURVE",
"478 174 CURVE",
"462 99 OFFCURVE",
"438 46 OFFCURVE",
"419 38 CURVE SMOOTH",
"372 17 OFFCURVE",
"302 0 OFFCURVE",
"234 0 CURVE SMOOTH",
"122 0 OFFCURVE",
"60 75 OFFCURVE",
"60 158 CURVE SMOOTH",
"60 286 OFFCURVE",
"158 388 OFFCURVE",
"297 412 CURVE",
"254 435 OFFCURVE",
"229 466 OFFCURVE",
"229 502 CURVE SMOOTH",
"229 576 OFFCURVE",
"311 644 OFFCURVE",
"419 644 CURVE SMOOTH",
"484 644 OFFCURVE",
"546 618 OFFCURVE",
"546 591 CURVE SMOOTH",
"546 571 OFFCURVE",
"525 529 OFFCURVE",
"516 517 CURVE SMOOTH",
"513 514 OFFCURVE",
"507 517 OFFCURVE",
"508 522 CURVE",
"516 537 OFFCURVE",
"523 556 OFFCURVE",
"512 573 CURVE SMOOTH",
"497 597 OFFCURVE",
"452 627 OFFCURVE",
"399 627 CURVE SMOOTH",
"312 627 OFFCURVE",
"269 574 OFFCURVE",
"269 523 CURVE SMOOTH"
);
}
);
width = 494;
},
{
layerId = "A10215CB-3318-4220-A0C8-1C7678CE5CF9";
paths = (
{
closed = 1;
nodes = (
"288 476 OFFCURVE",
"317 445 OFFCURVE",
"393 422 CURVE",
"401 417 OFFCURVE",
"370 388 OFFCURVE",
"359 385 CURVE",
"211 392 OFFCURVE",
"127 319 OFFCURVE",
"127 182 CURVE SMOOTH",
"127 89 OFFCURVE",
"185 18 OFFCURVE",
"277 18 CURVE SMOOTH",
"386 18 OFFCURVE",
"455 66 OFFCURVE",
"486 179 CURVE",
"490 186 OFFCURVE",
"496 182 OFFCURVE",
"497 174 CURVE",
"481 99 OFFCURVE",
"457 46 OFFCURVE",
"438 38 CURVE SMOOTH",
"382 13 OFFCURVE",
"329 0 OFFCURVE",
"252 0 CURVE SMOOTH",
"127 0 OFFCURVE",
"60 58 OFFCURVE",
"60 158 CURVE SMOOTH",
"60 285 OFFCURVE",
"166 379 OFFCURVE",
"312 405 CURVE",
"261 426 OFFCURVE",
"228 463 OFFCURVE",
"228 510 CURVE SMOOTH",
"228 582 OFFCURVE",
"301 644 OFFCURVE",
"432 644 CURVE SMOOTH",
"504 644 OFFCURVE",
"565 615 OFFCURVE",
"565 587 CURVE SMOOTH",
"565 566 OFFCURVE",
"542 518 OFFCURVE",
"533 506 CURVE",
"529 503 OFFCURVE",
"524 507 OFFCURVE",
"525 512 CURVE",
"533 527 OFFCURVE",
"537 544 OFFCURVE",
"529 563 CURVE",
"513 596 OFFCURVE",
"467 623 OFFCURVE",
"408 623 CURVE SMOOTH",
"328 623 OFFCURVE",
"288 583 OFFCURVE",
"288 523 CURVE SMOOTH"
);
}
);
width = 513;
}
);
unicode = 0045;
},
{
glyphname = Eacute;
lastChange = "2017-06-09 14:51:01 +0000";
layers = (
{
layerId = UUID0;
paths = (
{
closed = 1;
nodes = (
"439 738 OFFCURVE",
"461 729 OFFCURVE",
"473 724 CURVE",
"476 721 OFFCURVE",
"478 718 OFFCURVE",
"474 715 CURVE SMOOTH",
"447 696 OFFCURVE",
"387 672 OFFCURVE",
"346 658 CURVE",
"341 658 OFFCURVE",
"341 665 OFFCURVE",
"345 669 CURVE",
"372 685 OFFCURVE",
"407 707 OFFCURVE",
"432 734 CURVE"
);
},
{
closed = 1;
nodes = (
"238 476 OFFCURVE",
"266 445 OFFCURVE",
"342 422 CURVE",
"350 417 OFFCURVE",
"325 395 OFFCURVE",
"313 392 CURVE",
"164 399 OFFCURVE",
"77 326 OFFCURVE",
"77 182 CURVE SMOOTH",
"77 89 OFFCURVE",
"135 18 OFFCURVE",
"227 18 CURVE SMOOTH",
"336 18 OFFCURVE",
"405 66 OFFCURVE",
"436 179 CURVE",
"440 186 OFFCURVE",
"446 182 OFFCURVE",
"447 174 CURVE",
"431 99 OFFCURVE",
"407 46 OFFCURVE",
"388 38 CURVE SMOOTH",
"341 17 OFFCURVE",
"271 0 OFFCURVE",
"203 0 CURVE SMOOTH",
"91 0 OFFCURVE",
"29 75 OFFCURVE",
"29 158 CURVE SMOOTH",
"29 286 OFFCURVE",
"127 388 OFFCURVE",
"266 412 CURVE",
"223 435 OFFCURVE",
"198 466 OFFCURVE",
"198 502 CURVE SMOOTH",
"198 576 OFFCURVE",
"280 644 OFFCURVE",
"388 644 CURVE SMOOTH",
"453 644 OFFCURVE",
"515 618 OFFCURVE",
"515 591 CURVE SMOOTH",
"515 571 OFFCURVE",
"494 529 OFFCURVE",
"485 517 CURVE SMOOTH",
"482 514 OFFCURVE",
"476 517 OFFCURVE",
"477 522 CURVE",
"485 537 OFFCURVE",
"492 556 OFFCURVE",
"481 573 CURVE SMOOTH",
"466 597 OFFCURVE",
"421 627 OFFCURVE",
"368 627 CURVE SMOOTH",
"281 627 OFFCURVE",
"238 574 OFFCURVE",
"238 523 CURVE SMOOTH"
);
}
);
width = 463;
},
{
layerId = "A10215CB-3318-4220-A0C8-1C7678CE5CF9";
paths = (
{
closed = 1;
nodes = (
"439 738 OFFCURVE",
"461 729 OFFCURVE",
"473 724 CURVE",
"476 721 OFFCURVE",
"478 718 OFFCURVE",
"474 715 CURVE SMOOTH",
"447 696 OFFCURVE",
"387 672 OFFCURVE",
"346 658 CURVE",
"341 658 OFFCURVE",
"341 665 OFFCURVE",
"345 669 CURVE",
"372 685 OFFCURVE",
"407 707 OFFCURVE",
"432 734 CURVE"
);
},
{
closed = 1;
nodes = (
"288 476 OFFCURVE",
"317 445 OFFCURVE",
"393 422 CURVE",
"401 417 OFFCURVE",
"370 388 OFFCURVE",
"359 385 CURVE",
"211 392 OFFCURVE",
"127 319 OFFCURVE",
"127 182 CURVE SMOOTH",
"127 89 OFFCURVE",
"185 18 OFFCURVE",
"277 18 CURVE SMOOTH",
"386 18 OFFCURVE",
"455 66 OFFCURVE",
"486 179 CURVE",
"490 186 OFFCURVE",
"496 182 OFFCURVE",
"497 174 CURVE",
"481 99 OFFCURVE",
"457 46 OFFCURVE",
"438 38 CURVE SMOOTH",
"382 13 OFFCURVE",
"329 0 OFFCURVE",
"252 0 CURVE SMOOTH",
"127 0 OFFCURVE",
"60 58 OFFCURVE",
"60 158 CURVE SMOOTH",
"60 285 OFFCURVE",
"166 379 OFFCURVE",
"312 405 CURVE",
"261 426 OFFCURVE",
"228 463 OFFCURVE",
"228 510 CURVE SMOOTH",
"228 582 OFFCURVE",
"301 644 OFFCURVE",
"432 644 CURVE SMOOTH",
"504 644 OFFCURVE",
"565 615 OFFCURVE",
"565 587 CURVE SMOOTH",
"565 566 OFFCURVE",
"542 518 OFFCURVE",
"533 506 CURVE",
"529 503 OFFCURVE",
"524 507 OFFCURVE",
"525 512 CURVE",
"533 527 OFFCURVE",
"537 544 OFFCURVE",
"529 563 CURVE",
"513 596 OFFCURVE",
"467 623 OFFCURVE",
"408 623 CURVE SMOOTH",
"328 623 OFFCURVE",
"288 583 OFFCURVE",
"288 523 CURVE SMOOTH"
);
}
);
width = 513;
}
);
unicode = 00C9;
},
{
glyphname = Ecircumflex;
lastChange = "2017-06-09 14:51:01 +0000";
layers = (
{
layerId = UUID0;
paths = (
{
closed = 1;
nodes = (
"394 749 OFFCURVE",
"398 749 OFFCURVE",
"403 745 CURVE",
"420 722 OFFCURVE",
"450 696 OFFCURVE",
"477 684 CURVE",
"484 677 OFFCURVE",
"467 668 OFFCURVE",
"451 671 CURVE",
"426 682 OFFCURVE",
"406 698 OFFCURVE",
"385 715 CURVE",
"370 702 OFFCURVE",
"329 678 OFFCURVE",
"310 670 CURVE",
"303 670 OFFCURVE",
"302 673 OFFCURVE",
"305 679 CURVE",
"328 692 OFFCURVE",
"370 721 OFFCURVE",
"391 746 CURVE SMOOTH"
);
},
{
closed = 1;
nodes = (
"238 476 OFFCURVE",
"266 445 OFFCURVE",
"342 422 CURVE",
"350 417 OFFCURVE",
"325 395 OFFCURVE",
"313 392 CURVE",
"164 399 OFFCURVE",
"77 326 OFFCURVE",
"77 182 CURVE SMOOTH",
"77 89 OFFCURVE",
"135 18 OFFCURVE",
"227 18 CURVE SMOOTH",
"336 18 OFFCURVE",
"405 66 OFFCURVE",
"436 179 CURVE",
"440 186 OFFCURVE",
"446 182 OFFCURVE",
"447 174 CURVE",
"431 99 OFFCURVE",
"407 46 OFFCURVE",
"388 38 CURVE SMOOTH",
"341 17 OFFCURVE",
"271 0 OFFCURVE",
"203 0 CURVE SMOOTH",
"91 0 OFFCURVE",
"29 75 OFFCURVE",
"29 158 CURVE SMOOTH",
"29 286 OFFCURVE",
"127 388 OFFCURVE",
"266 412 CURVE",
"223 435 OFFCURVE",
"198 466 OFFCURVE",
"198 502 CURVE SMOOTH",
"198 576 OFFCURVE",
"280 644 OFFCURVE",
"388 644 CURVE SMOOTH",
"453 644 OFFCURVE",
"515 618 OFFCURVE",
"515 591 CURVE SMOOTH",
"515 571 OFFCURVE",
"494 529 OFFCURVE",
"485 517 CURVE SMOOTH",
"482 514 OFFCURVE",
"476 517 OFFCURVE",
"477 522 CURVE",
"485 537 OFFCURVE",
"492 556 OFFCURVE",
"481 573 CURVE SMOOTH",
"466 597 OFFCURVE",
"421 627 OFFCURVE",
"368 627 CURVE SMOOTH",
"281 627 OFFCURVE",
"238 574 OFFCURVE",
"238 523 CURVE SMOOTH"
);
}
);
width = 463;
},
{
layerId = "A10215CB-3318-4220-A0C8-1C7678CE5CF9";
paths = (
{
closed = 1;
nodes = (
"394 749 OFFCURVE",
"398 749 OFFCURVE",
"403 745 CURVE",
"420 722 OFFCURVE",
"450 696 OFFCURVE",
"477 684 CURVE",
"484 677 OFFCURVE",
"467 668 OFFCURVE",
"451 671 CURVE",
"426 682 OFFCURVE",
"406 698 OFFCURVE",
"385 715 CURVE",
"370 702 OFFCURVE",
"329 678 OFFCURVE",
"310 670 CURVE",
"303 670 OFFCURVE",
"302 673 OFFCURVE",
"305 679 CURVE",
"328 692 OFFCURVE",
"370 721 OFFCURVE",
"391 746 CURVE SMOOTH"
);
},
{
closed = 1;
nodes = (
"288 476 OFFCURVE",
"317 445 OFFCURVE",
"393 422 CURVE",
"401 417 OFFCURVE",
"370 388 OFFCURVE",
"359 385 CURVE",
"211 392 OFFCURVE",
"127 319 OFFCURVE",
"127 182 CURVE SMOOTH",
"127 89 OFFCURVE",
"185 18 OFFCURVE",
"277 18 CURVE SMOOTH",
"386 18 OFFCURVE",
"455 66 OFFCURVE",
"486 179 CURVE",
"490 186 OFFCURVE",
"496 182 OFFCURVE",
"497 174 CURVE",
"481 99 OFFCURVE",
"457 46 OFFCURVE",
"438 38 CURVE SMOOTH",
"382 13 OFFCURVE",
"329 0 OFFCURVE",
"252 0 CURVE SMOOTH",
"127 0 OFFCURVE",
"60 58 OFFCURVE",
"60 158 CURVE SMOOTH",
"60 285 OFFCURVE",
"166 379 OFFCURVE",
"312 405 CURVE",
"261 426 OFFCURVE",
"228 463 OFFCURVE",
"228 510 CURVE SMOOTH",
"228 582 OFFCURVE",
"301 644 OFFCURVE",
"432 644 CURVE SMOOTH",
"504 644 OFFCURVE",
"565 615 OFFCURVE",
"565 587 CURVE SMOOTH",
"565 566 OFFCURVE",
"542 518 OFFCURVE",
"533 506 CURVE",
"529 503 OFFCURVE",
"524 507 OFFCURVE",
"525 512 CURVE",
"533 527 OFFCURVE",
"537 544 OFFCURVE",
"529 563 CURVE",
"513 596 OFFCURVE",
"467 623 OFFCURVE",
"408 623 CURVE SMOOTH",
"328 623 OFFCURVE",
"288 583 OFFCURVE",
"288 523 CURVE SMOOTH"
);
}
);
width = 513;
}
);
unicode = 00CA;
},
{
glyphname = Edieresis;
lastChange = "2017-06-09 14:51:01 +0000";
layers = (
{
layerId = UUID0;
paths = (
{
closed = 1;
nodes = (
"354 667 OFFCURVE",
"350 673 OFFCURVE",
"350 684 CURVE SMOOTH",
"350 697 OFFCURVE",
"365 721 OFFCURVE",
"386 721 CURVE SMOOTH",
"392 721 OFFCURVE",
"395 717 OFFCURVE",
"395 708 CURVE SMOOTH",
"395 689 OFFCURVE",
"380 667 OFFCURVE",
"361 667 CURVE SMOOTH"
);
},
{
closed = 1;
nodes = (
"430 667 OFFCURVE",
"426 673 OFFCURVE",
"426 684 CURVE SMOOTH",
"426 697 OFFCURVE",
"441 721 OFFCURVE",
"461 721 CURVE SMOOTH",
"467 721 OFFCURVE",
"470 717 OFFCURVE",
"470 708 CURVE SMOOTH",
"470 689 OFFCURVE",
"454 667 OFFCURVE",
"438 667 CURVE SMOOTH"
);
},
{
closed = 1;
nodes = (
"238 476 OFFCURVE",
"266 445 OFFCURVE",
"342 422 CURVE",
"350 417 OFFCURVE",
"325 395 OFFCURVE",
"313 392 CURVE",
"164 399 OFFCURVE",
"77 326 OFFCURVE",
"77 182 CURVE SMOOTH",
"77 89 OFFCURVE",
"135 18 OFFCURVE",
"227 18 CURVE SMOOTH",
"336 18 OFFCURVE",
"405 66 OFFCURVE",
"436 179 CURVE",
"440 186 OFFCURVE",
"446 182 OFFCURVE",
"447 174 CURVE",
"431 99 OFFCURVE",
"407 46 OFFCURVE",
"388 38 CURVE SMOOTH",
"341 17 OFFCURVE",
"271 0 OFFCURVE",
"203 0 CURVE SMOOTH",
"91 0 OFFCURVE",
"29 75 OFFCURVE",
"29 158 CURVE SMOOTH",
"29 286 OFFCURVE",
"127 388 OFFCURVE",
"266 412 CURVE",
"223 435 OFFCURVE",
"198 466 OFFCURVE",
"198 502 CURVE SMOOTH",
"198 576 OFFCURVE",
"280 644 OFFCURVE",
"388 644 CURVE SMOOTH",
"453 644 OFFCURVE",
"515 618 OFFCURVE",
"515 591 CURVE SMOOTH",
"515 571 OFFCURVE",
"494 529 OFFCURVE",
"485 517 CURVE SMOOTH",
"482 514 OFFCURVE",
"476 517 OFFCURVE",
"477 522 CURVE",
"485 537 OFFCURVE",
"492 556 OFFCURVE",
"481 573 CURVE SMOOTH",
"466 597 OFFCURVE",
"421 627 OFFCURVE",
"368 627 CURVE SMOOTH",
"281 627 OFFCURVE",
"238 574 OFFCURVE",
"238 523 CURVE SMOOTH"
);
}
);
width = 463;
},
{
layerId = "A10215CB-3318-4220-A0C8-1C7678CE5CF9";
paths = (
{
closed = 1;
nodes = (
"354 667 OFFCURVE",
"350 673 OFFCURVE",
"350 684 CURVE SMOOTH",
"350 697 OFFCURVE",
"365 721 OFFCURVE",
"386 721 CURVE SMOOTH",
"392 721 OFFCURVE",
"395 717 OFFCURVE",
"395 708 CURVE SMOOTH",
"395 689 OFFCURVE",
"380 667 OFFCURVE",
"361 667 CURVE SMOOTH"
);
},
{
closed = 1;
nodes = (
"430 667 OFFCURVE",
"426 673 OFFCURVE",
"426 684 CURVE SMOOTH",
"426 697 OFFCURVE",
"441 721 OFFCURVE",
"461 721 CURVE SMOOTH",
"467 721 OFFCURVE",
"470 717 OFFCURVE",
"470 708 CURVE SMOOTH",
"470 689 OFFCURVE",
"454 667 OFFCURVE",
"438 667 CURVE SMOOTH"
);
},
{
closed = 1;
nodes = (
"288 476 OFFCURVE",
"317 445 OFFCURVE",
"393 422 CURVE",
"401 417 OFFCURVE",
"370 388 OFFCURVE",
"359 385 CURVE",
"211 392 OFFCURVE",
"127 319 OFFCURVE",
"127 182 CURVE SMOOTH",
"127 89 OFFCURVE",
"185 18 OFFCURVE",
"277 18 CURVE SMOOTH",
"386 18 OFFCURVE",
"455 66 OFFCURVE",
"486 179 CURVE",
"490 186 OFFCURVE",
"496 182 OFFCURVE",
"497 174 CURVE",
"481 99 OFFCURVE",
"457 46 OFFCURVE",
"438 38 CURVE SMOOTH",
"382 13 OFFCURVE",
"329 0 OFFCURVE",
"252 0 CURVE SMOOTH",
"127 0 OFFCURVE",
"60 58 OFFCURVE",
"60 158 CURVE SMOOTH",
"60 285 OFFCURVE",
"166 379 OFFCURVE",
"312 405 CURVE",
"261 426 OFFCURVE",
"228 463 OFFCURVE",
"228 510 CURVE SMOOTH",
"228 582 OFFCURVE",
"301 644 OFFCURVE",
"432 644 CURVE SMOOTH",
"504 644 OFFCURVE",
"565 615 OFFCURVE",
"565 587 CURVE SMOOTH",
"565 566 OFFCURVE",
"542 518 OFFCURVE",
"533 506 CURVE",
"529 503 OFFCURVE",
"524 507 OFFCURVE",
"525 512 CURVE",
"533 527 OFFCURVE",
"537 544 OFFCURVE",
"529 563 CURVE",
"513 596 OFFCURVE",
"467 623 OFFCURVE",
"408 623 CURVE SMOOTH",
"328 623 OFFCURVE",
"288 583 OFFCURVE",
"288 523 CURVE SMOOTH"
);
}
);
width = 513;
}
);
unicode = 00CB;
},
{
glyphname = Egrave;
lastChange = "2017-06-09 14:51:01 +0000";
layers = (
{
layerId = UUID0;
paths = (
{
closed = 1;
nodes = (
"472 666 OFFCURVE",
"468 660 OFFCURVE",
"461 660 CURVE",
"428 668 OFFCURVE",
"367 693 OFFCURVE",
"338 709 CURVE SMOOTH",
"335 710 OFFCURVE",
"335 714 OFFCURVE",
"338 717 CURVE SMOOTH",
"351 728 OFFCURVE",
"375 734 OFFCURVE",
"378 731 CURVE SMOOTH",
"401 712 OFFCURVE",
"433 689 OFFCURVE",
"469 669 CURVE"
);
},
{
closed = 1;
nodes = (
"238 476 OFFCURVE",
"266 445 OFFCURVE",
"342 422 CURVE",
"350 417 OFFCURVE",
"325 395 OFFCURVE",
"313 392 CURVE",
"164 399 OFFCURVE",
"77 326 OFFCURVE",
"77 182 CURVE SMOOTH",
"77 89 OFFCURVE",
"135 18 OFFCURVE",
"227 18 CURVE SMOOTH",
"336 18 OFFCURVE",
"405 66 OFFCURVE",
"436 179 CURVE",
"440 186 OFFCURVE",
"446 182 OFFCURVE",
"447 174 CURVE",
"431 99 OFFCURVE",
"407 46 OFFCURVE",
"388 38 CURVE SMOOTH",
"341 17 OFFCURVE",
"271 0 OFFCURVE",
"203 0 CURVE SMOOTH",
"91 0 OFFCURVE",
"29 75 OFFCURVE",
"29 158 CURVE SMOOTH",
"29 286 OFFCURVE",
"127 388 OFFCURVE",
"266 412 CURVE",
"223 435 OFFCURVE",
"198 466 OFFCURVE",
"198 502 CURVE SMOOTH",
"198 576 OFFCURVE",
"280 644 OFFCURVE",
"388 644 CURVE SMOOTH",
"453 644 OFFCURVE",
"515 618 OFFCURVE",
"515 591 CURVE SMOOTH",
"515 571 OFFCURVE",
"494 529 OFFCURVE",
"485 517 CURVE SMOOTH",
"482 514 OFFCURVE",
"476 517 OFFCURVE",
"477 522 CURVE",
"485 537 OFFCURVE",
"492 556 OFFCURVE",
"481 573 CURVE SMOOTH",
"466 597 OFFCURVE",
"421 627 OFFCURVE",
"368 627 CURVE SMOOTH",
"281 627 OFFCURVE",
"238 574 OFFCURVE",
"238 523 CURVE SMOOTH"
);
}
);
width = 463;
},
{
layerId = "A10215CB-3318-4220-A0C8-1C7678CE5CF9";
paths = (
{
closed = 1;
nodes = (
"472 666 OFFCURVE",
"468 660 OFFCURVE",
"461 660 CURVE",
"428 668 OFFCURVE",
"367 693 OFFCURVE",
"338 709 CURVE SMOOTH",
"335 710 OFFCURVE",
"335 714 OFFCURVE",
"338 717 CURVE SMOOTH",
"351 728 OFFCURVE",
"375 734 OFFCURVE",
"378 731 CURVE SMOOTH",
"401 712 OFFCURVE",
"433 689 OFFCURVE",
"469 669 CURVE"
);
},
{
closed = 1;
nodes = (
"288 476 OFFCURVE",
"317 445 OFFCURVE",
"393 422 CURVE",
"401 417 OFFCURVE",
"370 388 OFFCURVE",
"359 385 CURVE",
"211 392 OFFCURVE",
"127 319 OFFCURVE",
"127 182 CURVE SMOOTH",
"127 89 OFFCURVE",
"185 18 OFFCURVE",
"277 18 CURVE SMOOTH",
"386 18 OFFCURVE",
"455 66 OFFCURVE",
"486 179 CURVE",
"490 186 OFFCURVE",
"496 182 OFFCURVE",
"497 174 CURVE",
"481 99 OFFCURVE",
"457 46 OFFCURVE",
"438 38 CURVE SMOOTH",
"382 13 OFFCURVE",
"329 0 OFFCURVE",
"252 0 CURVE SMOOTH",
"127 0 OFFCURVE",
"60 58 OFFCURVE",
"60 158 CURVE SMOOTH",
"60 285 OFFCURVE",
"166 379 OFFCURVE",
"312 405 CURVE",
"261 426 OFFCURVE",
"228 463 OFFCURVE",
"228 510 CURVE SMOOTH",
"228 582 OFFCURVE",
"301 644 OFFCURVE",
"432 644 CURVE SMOOTH",
"504 644 OFFCURVE",
"565 615 OFFCURVE",
"565 587 CURVE SMOOTH",
"565 566 OFFCURVE",
"542 518 OFFCURVE",
"533 506 CURVE",
"529 503 OFFCURVE",
"524 507 OFFCURVE",
"525 512 CURVE",
"533 527 OFFCURVE",
"537 544 OFFCURVE",
"529 563 CURVE",
"513 596 OFFCURVE",
"467 623 OFFCURVE",
"408 623 CURVE SMOOTH",
"328 623 OFFCURVE",
"288 583 OFFCURVE",
"288 523 CURVE SMOOTH"
);
}
);
width = 513;
}
);
unicode = 00C8;
},
{
glyphname = F;
lastChange = "2017-06-09 14:51:01 +0000";
layers = (
{
layerId = UUID0;
paths = (
{
closed = 1;
nodes = (
"844 601 OFFCURVE",
"816 577 OFFCURVE",
"797 577 CURVE",
"765 580 OFFCURVE",
"732 585 OFFCURVE",
"700 590 CURVE",
"648 574 OFFCURVE",
"619 534 OFFCURVE",
"587 418 CURVE SMOOTH",
"578 387 OFFCURVE",
"571 358 OFFCURVE",
"560 330 CURVE",
"593 331 OFFCURVE",
"627 331 OFFCURVE",
"663 331 CURVE",
"670 328 OFFCURVE",
"668 324 OFFCURVE",
"657 321 CURVE",
"622 321 OFFCURVE",
"588 320 OFFCURVE",
"556 319 CURVE",
"477 99 OFFCURVE",
"359 0 OFFCURVE",
"194 0 CURVE SMOOTH",
"98 0 OFFCURVE",
"50 53 OFFCURVE",
"50 133 CURVE SMOOTH",
"50 172 OFFCURVE",
"71 213 OFFCURVE",
"110 240 CURVE",
"117 240 OFFCURVE",
"119 233 OFFCURVE",
"116 229 CURVE",
"92 210 OFFCURVE",
"81 191 OFFCURVE",
"81 154 CURVE SMOOTH",
"81 85 OFFCURVE",
"127 33 OFFCURVE",
"239 33 CURVE SMOOTH",
"372 33 OFFCURVE",
"449 105 OFFCURVE",
"519 317 CURVE",
"452 314 OFFCURVE",
"390 309 OFFCURVE",
"326 300 CURVE",
"317 303 OFFCURVE",
"354 320 OFFCURVE",
"368 323 CURVE",
"423 327 OFFCURVE",
"472 329 OFFCURVE",
"523 330 CURVE",
"530 351 OFFCURVE",
"536 374 OFFCURVE",
"543 398 CURVE SMOOTH",
"575 514 OFFCURVE",
"608 566 OFFCURVE",
"677 593 CURVE",
"605 604 OFFCURVE",
"538 614 OFFCURVE",
"478 614 CURVE SMOOTH",
"378 614 OFFCURVE",
"309 573 OFFCURVE",
"278 481 CURVE",
"274 478 OFFCURVE",
"269 480 OFFCURVE",
"269 487 CURVE",
"298 582 OFFCURVE",
"388 644 OFFCURVE",
"515 644 CURVE SMOOTH",
"614 644 OFFCURVE",
"713 620 OFFCURVE",
"833 609 CURVE"
);
}
);
width = 626;
},
{
layerId = "A10215CB-3318-4220-A0C8-1C7678CE5CF9";
paths = (
{
closed = 1;
nodes = (
"863 602 OFFCURVE",
"832 571 OFFCURVE",
"812 571 CURVE",
"780 574 OFFCURVE",
"747 578 OFFCURVE",
"715 583 CURVE",
"659 567 OFFCURVE",
"635 526 OFFCURVE",
"606 418 CURVE SMOOTH",
"597 387 OFFCURVE",
"590 358 OFFCURVE",
"579 331 CURVE",
"682 331 LINE",
"689 328 OFFCURVE",
"687 325 OFFCURVE",
"676 322 CURVE",
"575 319 LINE",
"495 99 OFFCURVE",
"373 0 OFFCURVE",
"201 0 CURVE SMOOTH",
"105 0 OFFCURVE",
"50 48 OFFCURVE",
"50 128 CURVE SMOOTH",
"50 175 OFFCURVE",
"78 217 OFFCURVE",
"129 240 CURVE",
"134 240 OFFCURVE",
"138 234 OFFCURVE",
"135 230 CURVE",
"111 211 OFFCURVE",
"100 193 OFFCURVE",
"100 154 CURVE SMOOTH",
"100 86 OFFCURVE",
"146 34 OFFCURVE",
"258 34 CURVE SMOOTH",
"386 34 OFFCURVE",
"446 88 OFFCURVE",
"518 317 CURVE",
"450 314 OFFCURVE",
"386 309 OFFCURVE",
"325 300 CURVE",
"316 303 OFFCURVE",
"353 321 OFFCURVE",
"368 324 CURVE",
"418 327 OFFCURVE",
"469 329 OFFCURVE",
"522 330 CURVE",
"529 351 OFFCURVE",
"535 374 OFFCURVE",
"542 398 CURVE SMOOTH",
"571 506 OFFCURVE",
"612 559 OFFCURVE",
"691 587 CURVE",
"619 598 OFFCURVE",
"553 608 OFFCURVE",
"493 608 CURVE SMOOTH",
"393 608 OFFCURVE",
"328 574 OFFCURVE",
"297 482 CURVE",
"293 478 OFFCURVE",
"288 481 OFFCURVE",
"288 488 CURVE",
"317 583 OFFCURVE",
"407 645 OFFCURVE",
"534 645 CURVE SMOOTH",
"633 645 OFFCURVE",
"732 621 OFFCURVE",
"852 610 CURVE"
);
}
);
width = 645;
}
);
unicode = 0046;
},
{
glyphname = G;
lastChange = "2017-06-09 14:51:01 +0000";
layers = (
{
layerId = UUID0;
paths = (
{
closed = 1;
nodes = (
"388 611 OFFCURVE",
"249 451 OFFCURVE",
"249 239 CURVE SMOOTH",
"249 148 OFFCURVE",
"281 101 OFFCURVE",
"349 101 CURVE SMOOTH",
"426 101 OFFCURVE",
"487 146 OFFCURVE",
"510 226 CURVE",
"513 242 OFFCURVE",
"558 248 OFFCURVE",
"558 236 CURVE",
"470 -73 OFFCURVE",
"319 -186 OFFCURVE",
"145 -186 CURVE SMOOTH",
"23 -186 OFFCURVE",
"-37 -117 OFFCURVE",
"-37 -34 CURVE SMOOTH",
"-37 23 OFFCURVE",
"-14 71 OFFCURVE",
"49 100 CURVE SMOOTH",
"56 103 OFFCURVE",
"58 94 OFFCURVE",
"54 89 CURVE",
"21 71 OFFCURVE",
"5 38 OFFCURVE",
"5 -10 CURVE SMOOTH",
"5 -103 OFFCURVE",
"63 -168 OFFCURVE",
"167 -168 CURVE SMOOTH",
"311 -168 OFFCURVE",
"419 -76 OFFCURVE",
"486 143 CURVE",
"445 108 OFFCURVE",
"393 82 OFFCURVE",
"328 82 CURVE SMOOTH",
"243 82 OFFCURVE",
"200 135 OFFCURVE",
"200 216 CURVE SMOOTH",
"200 403 OFFCURVE",
"377 643 OFFCURVE",
"601 643 CURVE SMOOTH",
"660 643 OFFCURVE",
"696 614 OFFCURVE",
"696 578 CURVE SMOOTH",
"696 547 OFFCURVE",
"664 496 OFFCURVE",
"645 466 CURVE",
"640 463 OFFCURVE",
"634 468 OFFCURVE",
"635 473 CURVE",
"654 502 OFFCURVE",
"662 522 OFFCURVE",
"662 549 CURVE SMOOTH",
"662 585 OFFCURVE",
"626 611 OFFCURVE",
"573 611 CURVE SMOOTH"
);
}
);
width = 571;
},
{
layerId = "A10215CB-3318-4220-A0C8-1C7678CE5CF9";
paths = (
{
closed = 1;
nodes = (
"394 605 OFFCURVE",
"268 443 OFFCURVE",
"268 239 CURVE SMOOTH",
"268 148 OFFCURVE",
"300 101 OFFCURVE",
"368 101 CURVE SMOOTH",
"447 101 OFFCURVE",
"507 146 OFFCURVE",
"530 226 CURVE",
"535 248 OFFCURVE",
"598 256 OFFCURVE",
"598 240 CURVE",
"512 -62 OFFCURVE",
"361 -186 OFFCURVE",
"165 -186 CURVE SMOOTH",
"33 -186 OFFCURVE",
"-37 -127 OFFCURVE",
"-37 -34 CURVE SMOOTH",
"-37 22 OFFCURVE",
"-3 73 OFFCURVE",
"69 100 CURVE SMOOTH",
"76 103 OFFCURVE",
"77 92 OFFCURVE",
"72 87 CURVE",
"40 68 OFFCURVE",
"25 41 OFFCURVE",
"25 -10 CURVE SMOOTH",
"25 -110 OFFCURVE",
"86 -168 OFFCURVE",
"191 -168 CURVE SMOOTH",
"336 -168 OFFCURVE",
"434 -86 OFFCURVE",
"506 143 CURVE",
"465 108 OFFCURVE",
"412 82 OFFCURVE",
"348 82 CURVE SMOOTH",
"249 82 OFFCURVE",
"200 127 OFFCURVE",
"200 216 CURVE SMOOTH",
"200 400 OFFCURVE",
"395 643 OFFCURVE",
"621 643 CURVE SMOOTH",
"685 643 OFFCURVE",
"727 612 OFFCURVE",
"727 569 CURVE SMOOTH",
"727 538 OFFCURVE",
"682 487 OFFCURVE",
"663 457 CURVE",
"659 454 OFFCURVE",
"652 459 OFFCURVE",
"653 464 CURVE",
"672 493 OFFCURVE",
"680 513 OFFCURVE",
"680 540 CURVE SMOOTH",
"680 577 OFFCURVE",
"647 605 OFFCURVE",
"575 605 CURVE SMOOTH"
);
}
);
width = 610;
}
);
unicode = 0047;
},
{
glyphname = H;
lastChange = "2017-06-09 14:51:01 +0000";
layers = (
{
layerId = UUID0;
paths = (
{
closed = 1;
nodes = (
"1137 681 OFFCURVE",
"1152 660 OFFCURVE",
"1152 636 CURVE SMOOTH",
"1152 617 OFFCURVE",
"1147 598 OFFCURVE",
"1139 585 CURVE",
"1136 582 OFFCURVE",
"1132 584 OFFCURVE",
"1132 589 CURVE",
"1141 620 OFFCURVE",
"1127 644 OFFCURVE",
"1088 644 CURVE SMOOTH",
"972 644 OFFCURVE",
"874 551 OFFCURVE",
"781 237 CURVE",
"831 223 LINE",
"838 218 OFFCURVE",
"814 205 OFFCURVE",
"787 206 CURVE",
"773 211 LINE",
"759 161 LINE SMOOTH",
"738 83 OFFCURVE",
"743 44 OFFCURVE",
"772 44 CURVE SMOOTH",
"798 44 OFFCURVE",
"823 63 OFFCURVE",
"848 100 CURVE",
"852 104 OFFCURVE",
"857 101 OFFCURVE",
"856 94 CURVE",
"827 50 OFFCURVE",
"779 0 OFFCURVE",
"747 0 CURVE SMOOTH",
"707 0 OFFCURVE",
"688 39 OFFCURVE",
"711 127 CURVE",
"719 161 OFFCURVE",
"728 193 OFFCURVE",
"738 222 CURVE",
"659 246 OFFCURVE",
"569 266 OFFCURVE",
"473 274 CURVE",
"398 79 OFFCURVE",
"285 0 OFFCURVE",
"154 0 CURVE SMOOTH",
"85 0 OFFCURVE",
"50 37 OFFCURVE",
"50 92 CURVE SMOOTH",
"50 196 OFFCURVE",
"178 291 OFFCURVE",
"398 291 CURVE SMOOTH",
"413 291 OFFCURVE",
"427 291 OFFCURVE",
"442 290 CURVE",
"449 309 OFFCURVE",
"453 328 OFFCURVE",
"460 349 CURVE",
"503 507 OFFCURVE",
"540 565 OFFCURVE",
"590 591 CURVE",
"555 604 OFFCURVE",
"507 615 OFFCURVE",
"451 615 CURVE SMOOTH",
"326 615 OFFCURVE",
"273 534 OFFCURVE",
"292 443 CURVE",
"291 436 OFFCURVE",
"286 435 OFFCURVE",
"282 440 CURVE",
"258 553 OFFCURVE",
"331 645 OFFCURVE",
"487 645 CURVE SMOOTH",
"542 645 OFFCURVE",
"596 630 OFFCURVE",
"637 613 CURVE",
"642 605 OFFCURVE",
"638 599 OFFCURVE",
"618 591 CURVE SMOOTH",
"565 570 OFFCURVE",
"545 520 OFFCURVE",
"510 387 CURVE",
"499 352 OFFCURVE",
"490 319 OFFCURVE",
"479 288 CURVE",
"567 281 OFFCURVE",
"662 266 OFFCURVE",
"746 246 CURVE",
"836 520 OFFCURVE",
"983 681 OFFCURVE",
"1109 681 CURVE SMOOTH"
);
},
{
closed = 1;
nodes = (
"299 24 OFFCURVE",
"374 85 OFFCURVE",
"438 276 CURVE",
"418 279 OFFCURVE",
"399 278 OFFCURVE",
"379 278 CURVE SMOOTH",
"189 278 OFFCURVE",
"80 200 OFFCURVE",
"80 112 CURVE SMOOTH",
"80 55 OFFCURVE",
"117 24 OFFCURVE",
"181 24 CURVE SMOOTH"
);
}
);
width = 865;
},
{
layerId = "A10215CB-3318-4220-A0C8-1C7678CE5CF9";
paths = (
{
closed = 1;
nodes = (
"1159 681 OFFCURVE",
"1174 666 OFFCURVE",
"1174 637 CURVE SMOOTH",
"1174 618 OFFCURVE",
"1166 590 OFFCURVE",
"1159 575 CURVE",
"1155 574 OFFCURVE",
"1152 575 OFFCURVE",
"1151 579 CURVE",
"1162 610 OFFCURVE",
"1146 635 OFFCURVE",
"1090 635 CURVE SMOOTH",
"975 635 OFFCURVE",
"903 530 OFFCURVE",
"820 237 CURVE",
"870 223 LINE",
"875 218 OFFCURVE",
"843 197 OFFCURVE",
"815 200 CURVE",
"814 200 OFFCURVE",
"813 201 OFFCURVE",
"810 202 CURVE",
"799 161 LINE SMOOTH",
"778 83 OFFCURVE",
"783 44 OFFCURVE",
"812 44 CURVE SMOOTH",
"838 44 OFFCURVE",
"863 63 OFFCURVE",
"887 100 CURVE",
"891 104 OFFCURVE",
"896 101 OFFCURVE",
"895 94 CURVE",
"866 50 OFFCURVE",
"820 0 OFFCURVE",
"781 0 CURVE SMOOTH",
"732 0 OFFCURVE",
"708 38 OFFCURVE",
"731 127 CURVE SMOOTH",
"739 159 OFFCURVE",
"746 189 OFFCURVE",
"757 218 CURVE",
"678 241 OFFCURVE",
"585 259 OFFCURVE",
"490 267 CURVE",
"415 78 OFFCURVE",
"302 0 OFFCURVE",
"173 0 CURVE SMOOTH",
"89 0 OFFCURVE",
"50 40 OFFCURVE",
"50 92 CURVE SMOOTH",
"50 193 OFFCURVE",
"176 291 OFFCURVE",
"417 291 CURVE SMOOTH",
"443 291 LINE",
"448 310 OFFCURVE",
"453 328 OFFCURVE",
"460 349 CURVE",
"503 506 OFFCURVE",
"549 559 OFFCURVE",
"599 585 CURVE",
"564 597 OFFCURVE",
"515 609 OFFCURVE",
"460 609 CURVE SMOOTH",
"335 609 OFFCURVE",
"293 535 OFFCURVE",
"312 443 CURVE",
"311 436 OFFCURVE",
"306 435 OFFCURVE",
"302 440 CURVE",
"278 553 OFFCURVE",
"350 645 OFFCURVE",
"506 645 CURVE SMOOTH",
"562 645 OFFCURVE",
"616 630 OFFCURVE",
"657 613 CURVE",
"662 605 OFFCURVE",
"657 599 OFFCURVE",
"637 591 CURVE SMOOTH",
"586 570 OFFCURVE",
"564 520 OFFCURVE",
"529 387 CURVE SMOOTH",
"520 352 OFFCURVE",
"510 319 OFFCURVE",
"498 288 CURVE",
"586 281 OFFCURVE",
"682 268 OFFCURVE",
"767 249 CURVE",
"858 522 OFFCURVE",
"1002 681 OFFCURVE",
"1129 681 CURVE SMOOTH"
);
},
{
closed = 1;
nodes = (
"319 24 OFFCURVE",
"376 84 OFFCURVE",
"437 271 CURVE",
"418 272 OFFCURVE",
"400 272 OFFCURVE",
"381 272 CURVE SMOOTH",
"181 272 OFFCURVE",
"100 202 OFFCURVE",
"100 112 CURVE SMOOTH",
"100 55 OFFCURVE",
"137 24 OFFCURVE",
"201 24 CURVE SMOOTH"
);
}
);
width = 904;
}
);
unicode = 0048;
},
{
glyphname = I;
lastChange = "2017-06-09 14:51:01 +0000";
layers = (
{
layerId = UUID0;
paths = (
{
closed = 1;
nodes = (
"745 640 OFFCURVE",
"729 619 OFFCURVE",
"717 613 CURVE",
"665 597 OFFCURVE",
"632 570 OFFCURVE",
"592 414 CURVE SMOOTH",
"568 323 OFFCURVE",
"535 245 OFFCURVE",
"494 182 CURVE",
"513 185 OFFCURVE",
"531 193 OFFCURVE",
"540 198 CURVE",
"544 199 OFFCURVE",
"546 195 OFFCURVE",
"543 191 CURVE",
"529 182 OFFCURVE",
"511 175 OFFCURVE",
"488 172 CURVE",
"411 60 OFFCURVE",
"308 0 OFFCURVE",
"181 0 CURVE SMOOTH",
"101 0 OFFCURVE",
"50 41 OFFCURVE",
"50 93 CURVE SMOOTH",
"50 134 OFFCURVE",
"87 179 OFFCURVE",
"146 206 CURVE",
"153 205 OFFCURVE",
"153 200 OFFCURVE",
"150 197 CURVE",
"109 174 OFFCURVE",
"89 144 OFFCURVE",
"89 113 CURVE SMOOTH",
"89 68 OFFCURVE",
"130 29 OFFCURVE",
"214 29 CURVE SMOOTH",
"319 29 OFFCURVE",
"400 68 OFFCURVE",
"463 171 CURVE",
"395 175 OFFCURVE",
"358 227 OFFCURVE",
"358 303 CURVE SMOOTH",
"358 468 OFFCURVE",
"529 645 OFFCURVE",
"738 645 CURVE"
);
},
{
closed = 1;
nodes = (
"578 504 OFFCURVE",
"612 568 OFFCURVE",
"674 606 CURVE",
"490 585 OFFCURVE",
"371 432 OFFCURVE",
"371 307 CURVE SMOOTH",
"371 227 OFFCURVE",
"409 185 OFFCURVE",
"469 181 CURVE",
"500 234 OFFCURVE",
"526 304 OFFCURVE",
"549 392 CURVE SMOOTH"
);
}
);
width = 554;
},
{
layerId = "A10215CB-3318-4220-A0C8-1C7678CE5CF9";
paths = (
{
closed = 1;
nodes = (
"788 640 OFFCURVE",
"765 612 OFFCURVE",
"749 604 CURVE",
"692 588 OFFCURVE",
"665 551 OFFCURVE",
"631 414 CURVE SMOOTH",
"608 324 OFFCURVE",
"574 248 OFFCURVE",
"530 185 CURVE",
"547 188 OFFCURVE",
"564 194 OFFCURVE",
"571 198 CURVE",
"575 199 OFFCURVE",
"577 195 OFFCURVE",
"574 191 CURVE",
"563 184 OFFCURVE",
"543 177 OFFCURVE",
"523 174 CURVE",
"439 61 OFFCURVE",
"328 0 OFFCURVE",
"201 0 CURVE SMOOTH",
"104 0 OFFCURVE",
"50 38 OFFCURVE",
"50 93 CURVE SMOOTH",
"50 140 OFFCURVE",
"86 186 OFFCURVE",
"166 206 CURVE",
"173 205 OFFCURVE",
"173 200 OFFCURVE",
"170 197 CURVE",
"129 184 OFFCURVE",
"109 158 OFFCURVE",
"109 121 CURVE SMOOTH",
"109 65 OFFCURVE",
"155 29 OFFCURVE",
"234 29 CURVE SMOOTH",
"338 29 OFFCURVE",
"420 68 OFFCURVE",
"483 171 CURVE",
"415 175 OFFCURVE",
"378 227 OFFCURVE",
"378 303 CURVE SMOOTH",
"378 468 OFFCURVE",
"568 645 OFFCURVE",
"777 645 CURVE"
);
},
{
closed = 1;
nodes = (
"598 512 OFFCURVE",
"635 557 OFFCURVE",
"706 597 CURVE",
"521 576 OFFCURVE",
"391 431 OFFCURVE",
"391 307 CURVE SMOOTH",
"391 227 OFFCURVE",
"428 185 OFFCURVE",
"488 181 CURVE",
"519 234 OFFCURVE",
"546 305 OFFCURVE",
"569 392 CURVE"
);
}
);
width = 593;
}
);
unicode = 0049;
},
{
glyphname = Iacute;
lastChange = "2017-06-09 14:51:01 +0000";
layers = (
{
layerId = UUID0;
paths = (
{
closed = 1;
nodes = (
"607 738 OFFCURVE",
"629 729 OFFCURVE",
"641 724 CURVE",
"644 721 OFFCURVE",
"646 718 OFFCURVE",
"642 715 CURVE SMOOTH",
"615 696 OFFCURVE",
"555 672 OFFCURVE",
"514 658 CURVE",
"509 658 OFFCURVE",
"509 665 OFFCURVE",
"513 669 CURVE",
"540 685 OFFCURVE",
"575 707 OFFCURVE",
"600 734 CURVE"
);
},
{
closed = 1;
nodes = (
"705 640 OFFCURVE",
"689 619 OFFCURVE",
"677 613 CURVE",
"625 597 OFFCURVE",
"592 570 OFFCURVE",
"552 414 CURVE SMOOTH",
"528 323 OFFCURVE",
"495 245 OFFCURVE",
"454 182 CURVE",
"473 185 OFFCURVE",
"491 193 OFFCURVE",
"500 198 CURVE",
"504 199 OFFCURVE",
"506 195 OFFCURVE",
"503 191 CURVE",
"489 182 OFFCURVE",
"471 175 OFFCURVE",
"448 172 CURVE",
"371 60 OFFCURVE",
"268 0 OFFCURVE",
"141 0 CURVE SMOOTH",
"61 0 OFFCURVE",
"10 41 OFFCURVE",
"10 93 CURVE SMOOTH",
"10 134 OFFCURVE",
"47 179 OFFCURVE",
"106 206 CURVE",
"113 205 OFFCURVE",
"113 200 OFFCURVE",
"110 197 CURVE",
"69 174 OFFCURVE",
"49 144 OFFCURVE",
"49 113 CURVE SMOOTH",
"49 68 OFFCURVE",
"90 29 OFFCURVE",
"174 29 CURVE SMOOTH",
"279 29 OFFCURVE",
"360 68 OFFCURVE",
"423 171 CURVE",
"355 175 OFFCURVE",
"318 227 OFFCURVE",
"318 303 CURVE SMOOTH",
"318 468 OFFCURVE",
"489 645 OFFCURVE",
"698 645 CURVE"
);
},
{
closed = 1;
nodes = (
"538 504 OFFCURVE",
"572 568 OFFCURVE",
"634 606 CURVE",
"450 585 OFFCURVE",
"331 432 OFFCURVE",
"331 307 CURVE SMOOTH",
"331 227 OFFCURVE",
"369 185 OFFCURVE",
"429 181 CURVE",
"460 234 OFFCURVE",
"486 304 OFFCURVE",
"509 392 CURVE SMOOTH"
);
}
);
width = 514;
},
{
layerId = "A10215CB-3318-4220-A0C8-1C7678CE5CF9";
paths = (
{
closed = 1;
nodes = (
"638 738 OFFCURVE",
"660 729 OFFCURVE",
"672 724 CURVE",
"675 721 OFFCURVE",
"677 718 OFFCURVE",
"673 715 CURVE SMOOTH",
"646 696 OFFCURVE",
"586 672 OFFCURVE",
"545 658 CURVE",
"540 658 OFFCURVE",
"540 665 OFFCURVE",
"544 669 CURVE",
"571 685 OFFCURVE",
"606 707 OFFCURVE",
"631 734 CURVE"
);
},
{
closed = 1;
nodes = (
"788 640 OFFCURVE",
"765 612 OFFCURVE",
"749 604 CURVE",
"692 588 OFFCURVE",
"665 551 OFFCURVE",
"631 414 CURVE SMOOTH",
"608 324 OFFCURVE",
"574 248 OFFCURVE",
"530 185 CURVE",
"547 188 OFFCURVE",
"564 194 OFFCURVE",
"571 198 CURVE",
"575 199 OFFCURVE",
"577 195 OFFCURVE",
"574 191 CURVE",
"563 184 OFFCURVE",
"543 177 OFFCURVE",
"523 174 CURVE",
"439 61 OFFCURVE",
"328 0 OFFCURVE",
"201 0 CURVE SMOOTH",
"104 0 OFFCURVE",
"50 38 OFFCURVE",
"50 93 CURVE SMOOTH",
"50 140 OFFCURVE",
"86 186 OFFCURVE",
"166 206 CURVE",
"173 205 OFFCURVE",
"173 200 OFFCURVE",
"170 197 CURVE",
"129 184 OFFCURVE",
"109 158 OFFCURVE",
"109 121 CURVE SMOOTH",
"109 65 OFFCURVE",
"155 29 OFFCURVE",
"234 29 CURVE SMOOTH",
"338 29 OFFCURVE",
"420 68 OFFCURVE",
"483 171 CURVE",
"415 175 OFFCURVE",
"378 227 OFFCURVE",
"378 303 CURVE SMOOTH",
"378 468 OFFCURVE",
"568 645 OFFCURVE",
"777 645 CURVE"
);
},
{
closed = 1;
nodes = (
"598 512 OFFCURVE",
"635 557 OFFCURVE",
"706 597 CURVE",
"521 576 OFFCURVE",
"391 431 OFFCURVE",
"391 307 CURVE SMOOTH",
"391 227 OFFCURVE",
"428 185 OFFCURVE",
"488 181 CURVE",
"519 234 OFFCURVE",
"546 305 OFFCURVE",
"569 392 CURVE"
);
}
);
width = 593;
}
);
unicode = 00CD;
},
{
glyphname = Icircumflex;
lastChange = "2017-06-09 14:51:01 +0000";
layers = (
{
layerId = UUID0;
paths = (
{
closed = 1;
nodes = (
"592 749 OFFCURVE",
"596 749 OFFCURVE",
"601 745 CURVE",
"618 722 OFFCURVE",
"648 696 OFFCURVE",
"675 684 CURVE",
"682 677 OFFCURVE",
"665 668 OFFCURVE",
"649 671 CURVE",
"624 682 OFFCURVE",
"604 698 OFFCURVE",
"583 715 CURVE",
"568 702 OFFCURVE",
"527 678 OFFCURVE",
"508 670 CURVE",
"501 670 OFFCURVE",
"500 673 OFFCURVE",
"503 679 CURVE",
"526 692 OFFCURVE",
"568 721 OFFCURVE",
"589 746 CURVE SMOOTH"
);
},
{
closed = 1;
nodes = (
"705 640 OFFCURVE",
"689 619 OFFCURVE",
"677 613 CURVE",
"625 597 OFFCURVE",
"592 570 OFFCURVE",
"552 414 CURVE SMOOTH",
"528 323 OFFCURVE",
"495 245 OFFCURVE",
"454 182 CURVE",
"473 185 OFFCURVE",
"491 193 OFFCURVE",
"500 198 CURVE",
"504 199 OFFCURVE",
"506 195 OFFCURVE",
"503 191 CURVE",
"489 182 OFFCURVE",
"471 175 OFFCURVE",
"448 172 CURVE",
"371 60 OFFCURVE",
"268 0 OFFCURVE",
"141 0 CURVE SMOOTH",
"61 0 OFFCURVE",
"10 41 OFFCURVE",
"10 93 CURVE SMOOTH",
"10 134 OFFCURVE",
"47 179 OFFCURVE",
"106 206 CURVE",
"113 205 OFFCURVE",
"113 200 OFFCURVE",
"110 197 CURVE",
"69 174 OFFCURVE",
"49 144 OFFCURVE",
"49 113 CURVE SMOOTH",
"49 68 OFFCURVE",
"90 29 OFFCURVE",
"174 29 CURVE SMOOTH",
"279 29 OFFCURVE",
"360 68 OFFCURVE",
"423 171 CURVE",
"355 175 OFFCURVE",
"318 227 OFFCURVE",
"318 303 CURVE SMOOTH",
"318 468 OFFCURVE",
"489 645 OFFCURVE",
"698 645 CURVE"
);
},
{
closed = 1;
nodes = (
"538 504 OFFCURVE",
"572 568 OFFCURVE",
"634 606 CURVE",
"450 585 OFFCURVE",
"331 432 OFFCURVE",
"331 307 CURVE SMOOTH",
"331 227 OFFCURVE",
"369 185 OFFCURVE",
"429 181 CURVE",
"460 234 OFFCURVE",
"486 304 OFFCURVE",
"509 392 CURVE SMOOTH"
);
}
);
width = 514;
},
{
layerId = "A10215CB-3318-4220-A0C8-1C7678CE5CF9";
paths = (
{
closed = 1;
nodes = (
"592 749 OFFCURVE",
"596 749 OFFCURVE",
"601 745 CURVE",
"618 722 OFFCURVE",
"648 696 OFFCURVE",
"675 684 CURVE",
"682 677 OFFCURVE",
"665 668 OFFCURVE",
"649 671 CURVE",
"624 682 OFFCURVE",
"604 698 OFFCURVE",
"583 715 CURVE",
"568 702 OFFCURVE",
"527 678 OFFCURVE",
"508 670 CURVE",
"501 670 OFFCURVE",
"500 673 OFFCURVE",
"503 679 CURVE",
"526 692 OFFCURVE",
"568 721 OFFCURVE",
"589 746 CURVE SMOOTH"
);
},
{
closed = 1;
nodes = (
"788 640 OFFCURVE",
"765 612 OFFCURVE",
"749 604 CURVE",
"692 588 OFFCURVE",
"665 551 OFFCURVE",
"631 414 CURVE SMOOTH",
"608 324 OFFCURVE",
"574 248 OFFCURVE",
"530 185 CURVE",
"547 188 OFFCURVE",
"564 194 OFFCURVE",
"571 198 CURVE",
"575 199 OFFCURVE",
"577 195 OFFCURVE",
"574 191 CURVE",
"563 184 OFFCURVE",
"543 177 OFFCURVE",
"523 174 CURVE",
"439 61 OFFCURVE",
"328 0 OFFCURVE",
"201 0 CURVE SMOOTH",
"104 0 OFFCURVE",
"50 38 OFFCURVE",
"50 93 CURVE SMOOTH",
"50 140 OFFCURVE",
"86 186 OFFCURVE",
"166 206 CURVE",
"173 205 OFFCURVE",
"173 200 OFFCURVE",
"170 197 CURVE",
"129 184 OFFCURVE",
"109 158 OFFCURVE",
"109 121 CURVE SMOOTH",
"109 65 OFFCURVE",
"155 29 OFFCURVE",
"234 29 CURVE SMOOTH",
"338 29 OFFCURVE",
"420 68 OFFCURVE",
"483 171 CURVE",
"415 175 OFFCURVE",
"378 227 OFFCURVE",
"378 303 CURVE SMOOTH",
"378 468 OFFCURVE",
"568 645 OFFCURVE",
"777 645 CURVE"
);
},
{
closed = 1;
nodes = (
"598 512 OFFCURVE",
"635 557 OFFCURVE",
"706 597 CURVE",
"521 576 OFFCURVE",
"391 431 OFFCURVE",
"391 307 CURVE SMOOTH",
"391 227 OFFCURVE",
"428 185 OFFCURVE",
"488 181 CURVE",
"519 234 OFFCURVE",
"546 305 OFFCURVE",
"569 392 CURVE"
);
}
);
width = 593;
}
);
unicode = 00CE;
},
{
glyphname = Idieresis;
lastChange = "2017-06-09 14:51:01 +0000";
layers = (
{
layerId = UUID0;
paths = (
{
closed = 1;
nodes = (
"538 667 OFFCURVE",
"534 673 OFFCURVE",
"534 684 CURVE SMOOTH",
"534 697 OFFCURVE",
"549 721 OFFCURVE",
"570 721 CURVE SMOOTH",
"576 721 OFFCURVE",
"579 717 OFFCURVE",
"579 708 CURVE SMOOTH",
"579 689 OFFCURVE",
"564 667 OFFCURVE",
"545 667 CURVE SMOOTH"
);
},
{
closed = 1;
nodes = (
"614 667 OFFCURVE",
"610 673 OFFCURVE",
"610 684 CURVE SMOOTH",
"610 697 OFFCURVE",
"625 721 OFFCURVE",
"645 721 CURVE SMOOTH",
"651 721 OFFCURVE",
"654 717 OFFCURVE",
"654 708 CURVE SMOOTH",
"654 689 OFFCURVE",
"638 667 OFFCURVE",
"622 667 CURVE SMOOTH"
);
},
{
closed = 1;
nodes = (
"705 640 OFFCURVE",
"689 619 OFFCURVE",
"677 613 CURVE",
"625 597 OFFCURVE",
"592 570 OFFCURVE",
"552 414 CURVE SMOOTH",
"528 323 OFFCURVE",
"495 245 OFFCURVE",
"454 182 CURVE",
"473 185 OFFCURVE",
"491 193 OFFCURVE",
"500 198 CURVE",
"504 199 OFFCURVE",
"506 195 OFFCURVE",
"503 191 CURVE",
"489 182 OFFCURVE",
"471 175 OFFCURVE",
"448 172 CURVE",
"371 60 OFFCURVE",
"268 0 OFFCURVE",
"141 0 CURVE SMOOTH",
"61 0 OFFCURVE",
"10 41 OFFCURVE",
"10 93 CURVE SMOOTH",
"10 134 OFFCURVE",
"47 179 OFFCURVE",
"106 206 CURVE",
"113 205 OFFCURVE",
"113 200 OFFCURVE",
"110 197 CURVE",
"69 174 OFFCURVE",
"49 144 OFFCURVE",
"49 113 CURVE SMOOTH",
"49 68 OFFCURVE",
"90 29 OFFCURVE",
"174 29 CURVE SMOOTH",
"279 29 OFFCURVE",
"360 68 OFFCURVE",
"423 171 CURVE",
"355 175 OFFCURVE",
"318 227 OFFCURVE",
"318 303 CURVE SMOOTH",
"318 468 OFFCURVE",
"489 645 OFFCURVE",
"698 645 CURVE"
);
},
{
closed = 1;
nodes = (
"538 504 OFFCURVE",
"572 568 OFFCURVE",
"634 606 CURVE",
"450 585 OFFCURVE",
"331 432 OFFCURVE",
"331 307 CURVE SMOOTH",
"331 227 OFFCURVE",
"369 185 OFFCURVE",
"429 181 CURVE",
"460 234 OFFCURVE",
"486 304 OFFCURVE",
"509 392 CURVE SMOOTH"
);
}
);
width = 514;
},
{
layerId = "A10215CB-3318-4220-A0C8-1C7678CE5CF9";
paths = (
{
closed = 1;
nodes = (
"538 667 OFFCURVE",
"534 673 OFFCURVE",
"534 684 CURVE SMOOTH",
"534 697 OFFCURVE",
"549 721 OFFCURVE",
"570 721 CURVE SMOOTH",
"576 721 OFFCURVE",
"579 717 OFFCURVE",
"579 708 CURVE SMOOTH",
"579 689 OFFCURVE",
"564 667 OFFCURVE",
"545 667 CURVE SMOOTH"
);
},
{
closed = 1;
nodes = (
"614 667 OFFCURVE",
"610 673 OFFCURVE",
"610 684 CURVE SMOOTH",
"610 697 OFFCURVE",
"625 721 OFFCURVE",
"645 721 CURVE SMOOTH",
"651 721 OFFCURVE",
"654 717 OFFCURVE",
"654 708 CURVE SMOOTH",
"654 689 OFFCURVE",
"638 667 OFFCURVE",
"622 667 CURVE SMOOTH"
);
},
{
closed = 1;
nodes = (
"788 640 OFFCURVE",
"765 612 OFFCURVE",
"749 604 CURVE",
"692 588 OFFCURVE",
"665 551 OFFCURVE",
"631 414 CURVE SMOOTH",
"608 324 OFFCURVE",
"574 248 OFFCURVE",
"530 185 CURVE",
"547 188 OFFCURVE",
"564 194 OFFCURVE",
"571 198 CURVE",
"575 199 OFFCURVE",
"577 195 OFFCURVE",
"574 191 CURVE",
"563 184 OFFCURVE",
"543 177 OFFCURVE",
"523 174 CURVE",
"439 61 OFFCURVE",
"328 0 OFFCURVE",
"201 0 CURVE SMOOTH",
"104 0 OFFCURVE",
"50 38 OFFCURVE",
"50 93 CURVE SMOOTH",
"50 140 OFFCURVE",
"86 186 OFFCURVE",
"166 206 CURVE",
"173 205 OFFCURVE",
"173 200 OFFCURVE",
"170 197 CURVE",
"129 184 OFFCURVE",
"109 158 OFFCURVE",
"109 121 CURVE SMOOTH",
"109 65 OFFCURVE",
"155 29 OFFCURVE",
"234 29 CURVE SMOOTH",
"338 29 OFFCURVE",
"420 68 OFFCURVE",
"483 171 CURVE",
"415 175 OFFCURVE",
"378 227 OFFCURVE",
"378 303 CURVE SMOOTH",
"378 468 OFFCURVE",
"568 645 OFFCURVE",
"777 645 CURVE"
);
},
{
closed = 1;
nodes = (
"598 512 OFFCURVE",
"635 557 OFFCURVE",
"706 597 CURVE",
"521 576 OFFCURVE",
"391 431 OFFCURVE",
"391 307 CURVE SMOOTH",
"391 227 OFFCURVE",
"428 185 OFFCURVE",
"488 181 CURVE",
"519 234 OFFCURVE",
"546 305 OFFCURVE",
"569 392 CURVE"
);
}
);
width = 593;
}
);
unicode = 00CF;
},
{
glyphname = Igrave;
lastChange = "2017-06-09 14:51:01 +0000";
layers = (
{
layerId = UUID0;
paths = (
{
closed = 1;
nodes = (
"618 666 OFFCURVE",
"614 660 OFFCURVE",
"607 660 CURVE",
"574 668 OFFCURVE",
"513 693 OFFCURVE",
"484 709 CURVE SMOOTH",
"481 710 OFFCURVE",
"481 714 OFFCURVE",
"484 717 CURVE SMOOTH",
"497 728 OFFCURVE",
"521 734 OFFCURVE",
"524 731 CURVE SMOOTH",
"547 712 OFFCURVE",
"579 689 OFFCURVE",
"615 669 CURVE"
);
},
{
closed = 1;
nodes = (
"705 640 OFFCURVE",
"689 619 OFFCURVE",
"677 613 CURVE",
"625 597 OFFCURVE",
"592 570 OFFCURVE",
"552 414 CURVE SMOOTH",
"528 323 OFFCURVE",
"495 245 OFFCURVE",
"454 182 CURVE",
"473 185 OFFCURVE",
"491 193 OFFCURVE",
"500 198 CURVE",
"504 199 OFFCURVE",
"506 195 OFFCURVE",
"503 191 CURVE",
"489 182 OFFCURVE",
"471 175 OFFCURVE",
"448 172 CURVE",
"371 60 OFFCURVE",
"268 0 OFFCURVE",
"141 0 CURVE SMOOTH",
"61 0 OFFCURVE",
"10 41 OFFCURVE",
"10 93 CURVE SMOOTH",
"10 134 OFFCURVE",
"47 179 OFFCURVE",
"106 206 CURVE",
"113 205 OFFCURVE",
"113 200 OFFCURVE",
"110 197 CURVE",
"69 174 OFFCURVE",
"49 144 OFFCURVE",
"49 113 CURVE SMOOTH",
"49 68 OFFCURVE",
"90 29 OFFCURVE",
"174 29 CURVE SMOOTH",
"279 29 OFFCURVE",
"360 68 OFFCURVE",
"423 171 CURVE",
"355 175 OFFCURVE",
"318 227 OFFCURVE",
"318 303 CURVE SMOOTH",
"318 468 OFFCURVE",
"489 645 OFFCURVE",
"698 645 CURVE"
);
},
{
closed = 1;
nodes = (
"538 504 OFFCURVE",
"572 568 OFFCURVE",
"634 606 CURVE",
"450 585 OFFCURVE",
"331 432 OFFCURVE",
"331 307 CURVE SMOOTH",
"331 227 OFFCURVE",
"369 185 OFFCURVE",
"429 181 CURVE",
"460 234 OFFCURVE",
"486 304 OFFCURVE",
"509 392 CURVE SMOOTH"
);
}
);
width = 514;
},
{
layerId = "A10215CB-3318-4220-A0C8-1C7678CE5CF9";
paths = (
{
closed = 1;
nodes = (
"618 666 OFFCURVE",
"614 660 OFFCURVE",
"607 660 CURVE",
"574 668 OFFCURVE",
"513 693 OFFCURVE",
"484 709 CURVE SMOOTH",
"481 710 OFFCURVE",
"481 714 OFFCURVE",
"484 717 CURVE SMOOTH",
"497 728 OFFCURVE",
"521 734 OFFCURVE",
"524 731 CURVE SMOOTH",
"547 712 OFFCURVE",
"579 689 OFFCURVE",
"615 669 CURVE"
);
},
{
closed = 1;
nodes = (
"788 640 OFFCURVE",
"765 612 OFFCURVE",
"749 604 CURVE",
"692 588 OFFCURVE",
"665 551 OFFCURVE",
"631 414 CURVE SMOOTH",
"608 324 OFFCURVE",
"574 248 OFFCURVE",
"530 185 CURVE",
"547 188 OFFCURVE",
"564 194 OFFCURVE",
"571 198 CURVE",
"575 199 OFFCURVE",
"577 195 OFFCURVE",
"574 191 CURVE",
"563 184 OFFCURVE",
"543 177 OFFCURVE",
"523 174 CURVE",
"439 61 OFFCURVE",
"328 0 OFFCURVE",
"201 0 CURVE SMOOTH",
"104 0 OFFCURVE",
"50 38 OFFCURVE",
"50 93 CURVE SMOOTH",
"50 140 OFFCURVE",
"86 186 OFFCURVE",
"166 206 CURVE",
"173 205 OFFCURVE",
"173 200 OFFCURVE",
"170 197 CURVE",
"129 184 OFFCURVE",
"109 158 OFFCURVE",
"109 121 CURVE SMOOTH",
"109 65 OFFCURVE",
"155 29 OFFCURVE",
"234 29 CURVE SMOOTH",
"338 29 OFFCURVE",
"420 68 OFFCURVE",
"483 171 CURVE",
"415 175 OFFCURVE",
"378 227 OFFCURVE",
"378 303 CURVE SMOOTH",
"378 468 OFFCURVE",
"568 645 OFFCURVE",
"777 645 CURVE"
);
},
{
closed = 1;
nodes = (
"598 512 OFFCURVE",
"635 557 OFFCURVE",
"706 597 CURVE",
"521 576 OFFCURVE",
"391 431 OFFCURVE",
"391 307 CURVE SMOOTH",
"391 227 OFFCURVE",
"428 185 OFFCURVE",
"488 181 CURVE",
"519 234 OFFCURVE",
"546 305 OFFCURVE",
"569 392 CURVE"
);
}
);
width = 593;
}
);
unicode = 00CC;
},
{
glyphname = J;
lastChange = "2017-06-09 14:51:01 +0000";
layers = (
{
layerId = UUID0;
paths = (
{
closed = 1;
nodes = (
"829 640 OFFCURVE",
"813 618 OFFCURVE",
"801 612 CURVE",
"745 596 OFFCURVE",
"710 553 OFFCURVE",
"675 413 CURVE SMOOTH",
"652 325 OFFCURVE",
"626 250 OFFCURVE",
"595 182 CURVE",
"611 185 OFFCURVE",
"627 192 OFFCURVE",
"635 197 CURVE",
"640 197 OFFCURVE",
"641 195 OFFCURVE",
"639 190 CURVE",
"627 181 OFFCURVE",
"611 175 OFFCURVE",
"591 172 CURVE",
"477 -72 OFFCURVE",
"311 -185 OFFCURVE",
"135 -185 CURVE SMOOTH",
"43 -185 OFFCURVE",
"0 -136 OFFCURVE",
"0 -72 CURVE SMOOTH",
"0 30 OFFCURVE",
"117 156 OFFCURVE",
"276 185 CURVE",
"283 185 OFFCURVE",
"283 178 OFFCURVE",
"276 175 CURVE",
"136 149 OFFCURVE",
"35 49 OFFCURVE",
"35 -46 CURVE SMOOTH",
"35 -113 OFFCURVE",
"72 -157 OFFCURVE",
"169 -157 CURVE SMOOTH",
"327 -157 OFFCURVE",
"459 -66 OFFCURVE",
"560 169 CURVE",
"489 172 OFFCURVE",
"442 222 OFFCURVE",
"442 302 CURVE SMOOTH",
"442 467 OFFCURVE",
"613 644 OFFCURVE",
"822 644 CURVE"
);
},
{
closed = 1;
nodes = (
"662 507 OFFCURVE",
"703 574 OFFCURVE",
"758 606 CURVE",
"574 582 OFFCURVE",
"455 432 OFFCURVE",
"455 306 CURVE SMOOTH",
"455 229 OFFCURVE",
"496 183 OFFCURVE",
"564 179 CURVE",
"589 240 OFFCURVE",
"612 310 OFFCURVE",
"633 391 CURVE SMOOTH"
);
}
);
width = 634;
},
{
layerId = "A10215CB-3318-4220-A0C8-1C7678CE5CF9";
paths = (
{
closed = 1;
nodes = (
"875 636 OFFCURVE",
"842 609 OFFCURVE",
"833 603 CURVE",
"778 587 OFFCURVE",
"750 552 OFFCURVE",
"715 413 CURVE SMOOTH",
"693 328 OFFCURVE",
"666 252 OFFCURVE",
"634 185 CURVE",
"649 189 OFFCURVE",
"661 193 OFFCURVE",
"666 197 CURVE",
"671 197 OFFCURVE",
"673 193 OFFCURVE",
"670 190 CURVE SMOOTH",
"661 183 OFFCURVE",
"646 178 OFFCURVE",
"629 174 CURVE",
"509 -71 OFFCURVE",
"333 -185 OFFCURVE",
"155 -185 CURVE SMOOTH",
"54 -185 OFFCURVE",
"0 -145 OFFCURVE",
"0 -61 CURVE SMOOTH",
"0 30 OFFCURVE",
"96 150 OFFCURVE",
"296 185 CURVE",
"303 185 OFFCURVE",
"303 178 OFFCURVE",
"296 175 CURVE",
"135 144 OFFCURVE",
"55 62 OFFCURVE",
"55 -34 CURVE SMOOTH",
"55 -115 OFFCURVE",
"101 -157 OFFCURVE",
"189 -157 CURVE SMOOTH",
"347 -157 OFFCURVE",
"479 -66 OFFCURVE",
"580 169 CURVE",
"511 172 OFFCURVE",
"462 222 OFFCURVE",
"462 302 CURVE SMOOTH",
"462 467 OFFCURVE",
"652 644 OFFCURVE",
"861 644 CURVE"
);
},
{
closed = 1;
nodes = (
"682 506 OFFCURVE",
"735 565 OFFCURVE",
"790 596 CURVE",
"605 575 OFFCURVE",
"475 430 OFFCURVE",
"475 306 CURVE SMOOTH",
"475 229 OFFCURVE",
"516 183 OFFCURVE",
"584 179 CURVE",
"609 240 OFFCURVE",
"632 310 OFFCURVE",
"653 391 CURVE SMOOTH"
);
}
);
width = 674;
}
);
unicode = 004A;
},
{
glyphname = K;
lastChange = "2017-06-09 14:51:01 +0000";
layers = (
{
layerId = UUID0;
paths = (
{
closed = 1;
nodes = (
"511 118 OFFCURVE",
"369 0 OFFCURVE",
"187 0 CURVE SMOOTH",
"92 0 OFFCURVE",
"50 47 OFFCURVE",
"50 108 CURVE SMOOTH",
"50 164 OFFCURVE",
"83 218 OFFCURVE",
"132 242 CURVE",
"140 242 OFFCURVE",
"142 237 OFFCURVE",
"139 232 CURVE",
"104 213 OFFCURVE",
"85 177 OFFCURVE",
"85 136 CURVE SMOOTH",
"85 72 OFFCURVE",
"132 27 OFFCURVE",
"213 27 CURVE SMOOTH",
"375 27 OFFCURVE",
"467 105 OFFCURVE",
"504 313 CURVE SMOOTH",
"539 506 OFFCURVE",
"575 560 OFFCURVE",
"628 589 CURVE",
"593 602 OFFCURVE",
"546 612 OFFCURVE",
"491 612 CURVE SMOOTH",
"326 612 OFFCURVE",
"236 491 OFFCURVE",
"268 336 CURVE",
"268 329 OFFCURVE",
"261 325 OFFCURVE",
"257 332 CURVE",
"220 497 OFFCURVE",
"322 644 OFFCURVE",
"527 644 CURVE SMOOTH",
"583 644 OFFCURVE",
"637 631 OFFCURVE",
"678 612 CURVE",
"683 604 OFFCURVE",
"678 599 OFFCURVE",
"658 590 CURVE SMOOTH",
"603 566 OFFCURVE",
"578 510 OFFCURVE",
"551 347 CURVE"
);
},
{
closed = 1;
nodes = (
"674 159 OFFCURVE",
"726 32 OFFCURVE",
"842 32 CURVE SMOOTH",
"871 32 OFFCURVE",
"897 49 OFFCURVE",
"912 73 CURVE",
"916 77 OFFCURVE",
"921 72 OFFCURVE",
"920 65 CURVE",
"900 28 OFFCURVE",
"865 0 OFFCURVE",
"813 0 CURVE SMOOTH",
"690 0 OFFCURVE",
"631 159 OFFCURVE",
"585 341 CURVE SMOOTH",
"583 348 OFFCURVE",
"584 354 OFFCURVE",
"589 361 CURVE SMOOTH",
"710 517 OFFCURVE",
"853 644 OFFCURVE",
"955 644 CURVE SMOOTH",
"978 644 OFFCURVE",
"996 625 OFFCURVE",
"996 597 CURVE SMOOTH",
"996 578 OFFCURVE",
"993 565 OFFCURVE",
"984 544 CURVE",
"980 540 OFFCURVE",
"975 542 OFFCURVE",
"974 547 CURVE",
"981 579 OFFCURVE",
"967 606 OFFCURVE",
"923 606 CURVE SMOOTH",
"848 606 OFFCURVE",
"720 507 OFFCURVE",
"615 368 CURVE"
);
}
);
width = 936;
},
{
layerId = "A10215CB-3318-4220-A0C8-1C7678CE5CF9";
paths = (
{
closed = 1;
nodes = (
"531 122 OFFCURVE",
"387 0 OFFCURVE",
"208 0 CURVE SMOOTH",
"107 0 OFFCURVE",
"50 47 OFFCURVE",
"50 115 CURVE SMOOTH",
"50 170 OFFCURVE",
"89 221 OFFCURVE",
"153 242 CURVE",
"160 243 OFFCURVE",
"163 239 OFFCURVE",
"160 232 CURVE",
"125 213 OFFCURVE",
"105 179 OFFCURVE",
"105 136 CURVE SMOOTH",
"105 72 OFFCURVE",
"151 28 OFFCURVE",
"234 28 CURVE SMOOTH",
"395 28 OFFCURVE",
"468 105 OFFCURVE",
"505 313 CURVE SMOOTH",
"537 496 OFFCURVE",
"584 555 OFFCURVE",
"642 584 CURVE",
"607 597 OFFCURVE",
"560 607 OFFCURVE",
"504 607 CURVE SMOOTH",
"339 607 OFFCURVE",
"257 491 OFFCURVE",
"289 336 CURVE",
"288 329 OFFCURVE",
"281 327 OFFCURVE",
"278 332 CURVE",
"240 498 OFFCURVE",
"344 645 OFFCURVE",
"548 645 CURVE SMOOTH",
"603 645 OFFCURVE",
"657 630 OFFCURVE",
"698 613 CURVE",
"703 605 OFFCURVE",
"699 599 OFFCURVE",
"678 591 CURVE SMOOTH",
"621 567 OFFCURVE",
"601 512 OFFCURVE",
"571 347 CURVE SMOOTH"
);
},
{
closed = 1;
nodes = (
"710 177 OFFCURVE",
"761 46 OFFCURVE",
"876 46 CURVE SMOOTH",
"907 46 OFFCURVE",
"931 63 OFFCURVE",
"946 87 CURVE",
"950 91 OFFCURVE",
"957 85 OFFCURVE",
"954 78 CURVE SMOOTH",
"930 33 OFFCURVE",
"886 0 OFFCURVE",
"834 0 CURVE SMOOTH",
"711 0 OFFCURVE",
"650 158 OFFCURVE",
"605 342 CURVE",
"604 349 OFFCURVE",
"603 354 OFFCURVE",
"610 361 CURVE",
"731 517 OFFCURVE",
"874 645 OFFCURVE",
"975 645 CURVE SMOOTH",
"1002 645 OFFCURVE",
"1017 622 OFFCURVE",
"1017 594 CURVE SMOOTH",
"1017 575 OFFCURVE",
"1012 547 OFFCURVE",
"1005 528 CURVE",
"1000 525 OFFCURVE",
"996 526 OFFCURVE",
"995 531 CURVE",
"1002 563 OFFCURVE",
"987 590 OFFCURVE",
"943 590 CURVE SMOOTH",
"858 590 OFFCURVE",
"752 514 OFFCURVE",
"651 386 CURVE"
);
}
);
width = 970;
}
);
unicode = 004B;
},
{
glyphname = L;
lastChange = "2017-06-09 14:51:01 +0000";
layers = (
{
layerId = UUID0;
paths = (
{
closed = 1;
nodes = (
"703 644 OFFCURVE",
"725 612 OFFCURVE",
"725 571 CURVE SMOOTH",
"725 544 OFFCURVE",
"714 513 OFFCURVE",
"702 489 CURVE",
"697 485 OFFCURVE",
"691 487 OFFCURVE",
"692 494 CURVE",
"711 542 OFFCURVE",
"694 601 OFFCURVE",
"626 601 CURVE SMOOTH",
"529 601 OFFCURVE",
"471 539 OFFCURVE",
"410 299 CURVE SMOOTH",
"385 203 OFFCURVE",
"352 131 OFFCURVE",
"308 82 CURVE",
"365 59 OFFCURVE",
"426 39 OFFCURVE",
"505 39 CURVE SMOOTH",
"568 39 OFFCURVE",
"605 57 OFFCURVE",
"636 118 CURVE",
"641 121 OFFCURVE",
"647 117 OFFCURVE",
"644 110 CURVE SMOOTH",
"612 38 OFFCURVE",
"562 0 OFFCURVE",
"473 0 CURVE SMOOTH",
"394 0 OFFCURVE",
"336 27 OFFCURVE",
"279 54 CURVE",
"234 18 OFFCURVE",
"177 0 OFFCURVE",
"107 0 CURVE SMOOTH",
"56 0 OFFCURVE",
"30 25 OFFCURVE",
"30 49 CURVE SMOOTH",
"30 84 OFFCURVE",
"72 124 OFFCURVE",
"139 124 CURVE SMOOTH",
"191 124 OFFCURVE",
"238 107 OFFCURVE",
"289 88 CURVE",
"319 127 OFFCURVE",
"345 189 OFFCURVE",
"368 274 CURVE SMOOTH",
"427 494 OFFCURVE",
"525 644 OFFCURVE",
"660 644 CURVE SMOOTH"
);
},
{
closed = 1;
nodes = (
"190 21 OFFCURVE",
"228 32 OFFCURVE",
"263 61 CURVE",
"216 84 OFFCURVE",
"170 102 OFFCURVE",
"111 102 CURVE SMOOTH",
"74 102 OFFCURVE",
"59 89 OFFCURVE",
"59 70 CURVE SMOOTH",
"59 43 OFFCURVE",
"88 21 OFFCURVE",
"139 21 CURVE SMOOTH"
);
}
);
width = 657;
},
{
layerId = "A10215CB-3318-4220-A0C8-1C7678CE5CF9";
paths = (
{
closed = 1;
nodes = (
"717 645 OFFCURVE",
"745 612 OFFCURVE",
"745 571 CURVE SMOOTH",
"745 544 OFFCURVE",
"730 504 OFFCURVE",
"717 481 CURVE",
"712 477 OFFCURVE",
"704 480 OFFCURVE",
"705 487 CURVE",
"721 534 OFFCURVE",
"702 590 OFFCURVE",
"626 590 CURVE SMOOTH",
"527 590 OFFCURVE",
"482 525 OFFCURVE",
"426 300 CURVE SMOOTH",
"403 211 OFFCURVE",
"370 142 OFFCURVE",
"329 93 CURVE",
"389 70 OFFCURVE",
"453 49 OFFCURVE",
"533 49 CURVE SMOOTH",
"600 49 OFFCURVE",
"629 74 OFFCURVE",
"652 119 CURVE",
"657 123 OFFCURVE",
"663 119 OFFCURVE",
"662 111 CURVE",
"630 39 OFFCURVE",
"580 0 OFFCURVE",
"491 0 CURVE SMOOTH",
"412 0 OFFCURVE",
"350 28 OFFCURVE",
"289 55 CURVE",
"240 18 OFFCURVE",
"181 0 OFFCURVE",
"110 0 CURVE SMOOTH",
"57 0 OFFCURVE",
"30 21 OFFCURVE",
"30 49 CURVE SMOOTH",
"30 83 OFFCURVE",
"83 136 OFFCURVE",
"159 136 CURVE SMOOTH",
"208 136 OFFCURVE",
"255 122 OFFCURVE",
"304 103 CURVE",
"327 140 OFFCURVE",
"348 195 OFFCURVE",
"369 276 CURVE SMOOTH",
"430 505 OFFCURVE",
"543 645 OFFCURVE",
"676 645 CURVE SMOOTH"
);
},
{
closed = 1;
nodes = (
"203 26 OFFCURVE",
"240 34 OFFCURVE",
"271 63 CURVE",
"222 84 OFFCURVE",
"172 103 OFFCURVE",
"115 103 CURVE SMOOTH",
"84 103 OFFCURVE",
"69 93 OFFCURVE",
"69 72 CURVE SMOOTH",
"69 45 OFFCURVE",
"100 26 OFFCURVE",
"155 26 CURVE SMOOTH"
);
}
);
width = 675;
}
);
unicode = 004C;
},
{
glyphname = M;
lastChange = "2017-06-09 14:51:01 +0000";
layers = (
{
layerId = UUID0;
paths = (
{
closed = 1;
nodes = (
"1293 656 OFFCURVE",
"1296 647 OFFCURVE",
"1292 642 CURVE",
"1165 531 OFFCURVE",
"1081 317 OFFCURVE",
"1081 159 CURVE SMOOTH",
"1081 87 OFFCURVE",
"1099 44 OFFCURVE",
"1130 44 CURVE SMOOTH",
"1155 44 OFFCURVE",
"1180 63 OFFCURVE",
"1205 100 CURVE",
"1209 104 OFFCURVE",
"1215 99 OFFCURVE",
"1214 94 CURVE",
"1185 50 OFFCURVE",
"1137 0 OFFCURVE",
"1105 0 CURVE SMOOTH",
"1070 0 OFFCURVE",
"1039 40 OFFCURVE",
"1039 124 CURVE SMOOTH",
"1039 264 OFFCURVE",
"1096 452 OFFCURVE",
"1206 578 CURVE",
"1041 456 OFFCURVE",
"851 221 OFFCURVE",
"760 29 CURVE SMOOTH",
"755 20 OFFCURVE",
"736 0 OFFCURVE",
"728 0 CURVE SMOOTH",
"723 0 OFFCURVE",
"721 2 OFFCURVE",
"721 7 CURVE",
"746 214 OFFCURVE",
"795 369 OFFCURVE",
"860 505 CURVE",
"647 185 OFFCURVE",
"456 0 OFFCURVE",
"226 0 CURVE SMOOTH",
"118 0 OFFCURVE",
"51 73 OFFCURVE",
"51 171 CURVE SMOOTH",
"51 235 OFFCURVE",
"81 291 OFFCURVE",
"140 322 CURVE SMOOTH",
"145 325 OFFCURVE",
"148 317 OFFCURVE",
"145 312 CURVE",
"104 285 OFFCURVE",
"89 254 OFFCURVE",
"89 198 CURVE SMOOTH",
"89 110 OFFCURVE",
"148 36 OFFCURVE",
"259 36 CURVE SMOOTH",
"493 36 OFFCURVE",
"685 267 OFFCURVE",
"879 559 CURVE",
"786 591 OFFCURVE",
"679 616 OFFCURVE",
"586 616 CURVE SMOOTH",
"486 616 OFFCURVE",
"415 559 OFFCURVE",
"400 440 CURVE",
"397 433 OFFCURVE",
"391 435 OFFCURVE",
"390 442 CURVE",
"405 573 OFFCURVE",
"490 644 OFFCURVE",
"621 644 CURVE SMOOTH",
"730 644 OFFCURVE",
"849 612 OFFCURVE",
"929 585 CURVE",
"938 587 LINE",
"943 587 OFFCURVE",
"944 580 OFFCURVE",
"941 576 CURVE",
"922 564 OFFCURVE",
"913 548 OFFCURVE",
"898 520 CURVE SMOOTH",
"831 387 OFFCURVE",
"796 238 OFFCURVE",
"769 89 CURVE",
"895 311 OFFCURVE",
"1104 541 OFFCURVE",
"1286 656 CURVE"
);
}
);
width = 1219;
},
{
layerId = "A10215CB-3318-4220-A0C8-1C7678CE5CF9";
paths = (
{
closed = 1;
nodes = (
"1351 657 OFFCURVE",
"1354 647 OFFCURVE",
"1350 642 CURVE",
"1214 508 OFFCURVE",
"1139 302 OFFCURVE",
"1139 159 CURVE SMOOTH",
"1139 87 OFFCURVE",
"1157 44 OFFCURVE",
"1188 44 CURVE SMOOTH",
"1215 44 OFFCURVE",
"1239 65 OFFCURVE",
"1263 101 CURVE",
"1267 104 OFFCURVE",
"1273 101 OFFCURVE",
"1272 94 CURVE",
"1243 50 OFFCURVE",
"1193 0 OFFCURVE",
"1150 0 CURVE SMOOTH",
"1101 0 OFFCURVE",
"1077 49 OFFCURVE",
"1077 125 CURVE SMOOTH",
"1077 249 OFFCURVE",
"1138 445 OFFCURVE",
"1242 568 CURVE",
"1082 448 OFFCURVE",
"888 221 OFFCURVE",
"798 30 CURVE SMOOTH",
"792 18 OFFCURVE",
"762 0 OFFCURVE",
"746 0 CURVE SMOOTH",
"741 0 OFFCURVE",
"739 2 OFFCURVE",
"740 7 CURVE SMOOTH",
"765 214 OFFCURVE",
"814 370 OFFCURVE",
"878 506 CURVE",
"664 185 OFFCURVE",
"474 0 OFFCURVE",
"245 0 CURVE SMOOTH",
"120 0 OFFCURVE",
"50 68 OFFCURVE",
"50 171 CURVE SMOOTH",
"50 239 OFFCURVE",
"91 297 OFFCURVE",
"159 322 CURVE",
"164 325 OFFCURVE",
"167 317 OFFCURVE",
"164 313 CURVE",
"123 286 OFFCURVE",
"108 255 OFFCURVE",
"108 199 CURVE SMOOTH",
"108 111 OFFCURVE",
"166 36 OFFCURVE",
"278 36 CURVE SMOOTH",
"509 36 OFFCURVE",
"700 263 OFFCURVE",
"892 551 CURVE",
"799 583 OFFCURVE",
"693 608 OFFCURVE",
"598 608 CURVE SMOOTH",
"490 608 OFFCURVE",
"432 543 OFFCURVE",
"419 440 CURVE",
"416 433 OFFCURVE",
"410 435 OFFCURVE",
"409 442 CURVE",
"424 574 OFFCURVE",
"509 645 OFFCURVE",
"640 645 CURVE SMOOTH",
"747 645 OFFCURVE",
"886 612 OFFCURVE",
"966 585 CURVE",
"976 588 LINE",
"981 587 OFFCURVE",
"983 580 OFFCURVE",
"980 576 CURVE",
"961 565 OFFCURVE",
"951 548 OFFCURVE",
"936 521 CURVE",
"869 386 OFFCURVE",
"833 238 OFFCURVE",
"808 89 CURVE",
"931 311 OFFCURVE",
"1152 545 OFFCURVE",
"1344 657 CURVE"
);
}
);
width = 1277;
}
);
unicode = 004D;
},
{
glyphname = N;
lastChange = "2017-06-09 14:51:01 +0000";
layers = (
{
layerId = UUID0;
paths = (
{
closed = 1;
nodes = (
"1253 644 OFFCURVE",
"1277 619 OFFCURVE",
"1277 548 CURVE",
"1276 540 OFFCURVE",
"1268 539 OFFCURVE",
"1265 547 CURVE",
"1260 594 OFFCURVE",
"1201 620 OFFCURVE",
"1151 583 CURVE",
"1020 490 OFFCURVE",
"927 224 OFFCURVE",
"919 18 CURVE",
"919 3 OFFCURVE",
"917 0 OFFCURVE",
"910 0 CURVE SMOOTH",
"905 0 OFFCURVE",
"902 7 OFFCURVE",
"899 15 CURVE",
"839 243 OFFCURVE",
"755 422 OFFCURVE",
"647 522 CURVE",
"588 191 OFFCURVE",
"419 0 OFFCURVE",
"234 0 CURVE SMOOTH",
"45 0 OFFCURVE",
"-3 185 OFFCURVE",
"112 290 CURVE",
"119 291 OFFCURVE",
"123 286 OFFCURVE",
"120 279 CURVE",
"43 202 OFFCURVE",
"73 43 OFFCURVE",
"259 43 CURVE SMOOTH",
"444 43 OFFCURVE",
"582 225 OFFCURVE",
"627 540 CURVE",
"571 587 OFFCURVE",
"511 611 OFFCURVE",
"446 611 CURVE SMOOTH",
"382 611 OFFCURVE",
"340 576 OFFCURVE",
"321 540 CURVE",
"317 537 OFFCURVE",
"311 538 OFFCURVE",
"310 545 CURVE",
"334 596 OFFCURVE",
"392 644 OFFCURVE",
"472 644 CURVE SMOOTH",
"528 644 OFFCURVE",
"582 623 OFFCURVE",
"633 584 CURVE",
"633 586 LINE SMOOTH",
"636 602 OFFCURVE",
"657 635 OFFCURVE",
"660 621 CURVE",
"659 602 OFFCURVE",
"657 584 OFFCURVE",
"654 567 CURVE",
"770 464 OFFCURVE",
"860 289 OFFCURVE",
"914 106 CURVE",
"942 347 OFFCURVE",
"1088 644 OFFCURVE",
"1216 644 CURVE SMOOTH"
);
}
);
width = 990;
},
{
layerId = "A10215CB-3318-4220-A0C8-1C7678CE5CF9";
paths = (
{
closed = 1;
nodes = (
"1262 644 OFFCURVE",
"1280 610 OFFCURVE",
"1280 542 CURVE",
"1279 534 OFFCURVE",
"1270 532 OFFCURVE",
"1267 540 CURVE",
"1264 561 OFFCURVE",
"1249 586 OFFCURVE",
"1209 586 CURVE SMOOTH",
"1081 586 OFFCURVE",
"930 267 OFFCURVE",
"922 18 CURVE SMOOTH",
"922 3 OFFCURVE",
"920 0 OFFCURVE",
"913 0 CURVE SMOOTH",
"906 0 OFFCURVE",
"905 7 OFFCURVE",
"902 15 CURVE",
"842 235 OFFCURVE",
"756 409 OFFCURVE",
"648 509 CURVE",
"589 181 OFFCURVE",
"426 0 OFFCURVE",
"229 0 CURVE SMOOTH",
"104 0 OFFCURVE",
"43 65 OFFCURVE",
"43 149 CURVE SMOOTH",
"43 202 OFFCURVE",
"70 258 OFFCURVE",
"119 290 CURVE",
"126 293 OFFCURVE",
"129 286 OFFCURVE",
"126 279 CURVE",
"102 255 OFFCURVE",
"87 224 OFFCURVE",
"87 191 CURVE SMOOTH",
"87 107 OFFCURVE",
"143 52 OFFCURVE",
"255 52 CURVE SMOOTH",
"447 52 OFFCURVE",
"581 210 OFFCURVE",
"628 527 CURVE",
"568 575 OFFCURVE",
"506 602 OFFCURVE",
"438 602 CURVE SMOOTH",
"374 602 OFFCURVE",
"332 567 OFFCURVE",
"313 532 CURVE",
"309 528 OFFCURVE",
"303 529 OFFCURVE",
"302 536 CURVE",
"326 588 OFFCURVE",
"395 644 OFFCURVE",
"475 644 CURVE SMOOTH",
"531 644 OFFCURVE",
"585 624 OFFCURVE",
"636 588 CURVE",
"641 604 OFFCURVE",
"660 633 OFFCURVE",
"663 622 CURVE",
"662 605 OFFCURVE",
"661 588 OFFCURVE",
"658 572 CURVE",
"775 479 OFFCURVE",
"870 307 OFFCURVE",
"921 134 CURVE",
"953 353 OFFCURVE",
"1092 644 OFFCURVE",
"1219 644 CURVE SMOOTH"
);
}
);
width = 993;
}
);
unicode = 004E;
},
{
glyphname = Ntilde;
lastChange = "2017-06-09 14:51:01 +0000";
layers = (
{
layerId = UUID0;
paths = (
{
closed = 1;
nodes = (
"628 694 OFFCURVE",
"655 719 OFFCURVE",
"678 719 CURVE SMOOTH",
"709 719 OFFCURVE",
"727 684 OFFCURVE",
"771 684 CURVE SMOOTH",
"795 684 OFFCURVE",
"809 700 OFFCURVE",
"822 728 CURVE",
"825 731 OFFCURVE",
"831 728 OFFCURVE",
"830 724 CURVE SMOOTH",
"814 688 OFFCURVE",
"794 665 OFFCURVE",
"754 665 CURVE SMOOTH",
"717 665 OFFCURVE",
"693 698 OFFCURVE",
"666 698 CURVE SMOOTH",
"649 698 OFFCURVE",
"635 686 OFFCURVE",
"620 667 CURVE",
"615 664 OFFCURVE",
"610 669 OFFCURVE",
"613 673 CURVE SMOOTH"
);
},
{
closed = 1;
nodes = (
"1059 644 OFFCURVE",
"1083 619 OFFCURVE",
"1083 548 CURVE",
"1082 540 OFFCURVE",
"1074 539 OFFCURVE",
"1071 547 CURVE",
"1066 594 OFFCURVE",
"1007 620 OFFCURVE",
"957 583 CURVE",
"826 490 OFFCURVE",
"733 224 OFFCURVE",
"725 18 CURVE",
"725 3 OFFCURVE",
"723 0 OFFCURVE",
"716 0 CURVE SMOOTH",
"711 0 OFFCURVE",
"708 7 OFFCURVE",
"705 15 CURVE",
"645 243 OFFCURVE",
"561 422 OFFCURVE",
"453 522 CURVE",
"394 191 OFFCURVE",
"225 0 OFFCURVE",
"40 0 CURVE SMOOTH",
"-149 0 OFFCURVE",
"-197 185 OFFCURVE",
"-82 290 CURVE",
"-75 291 OFFCURVE",
"-71 286 OFFCURVE",
"-74 279 CURVE",
"-151 202 OFFCURVE",
"-121 43 OFFCURVE",
"65 43 CURVE SMOOTH",
"250 43 OFFCURVE",
"388 225 OFFCURVE",
"433 540 CURVE",
"377 587 OFFCURVE",
"317 611 OFFCURVE",
"252 611 CURVE SMOOTH",
"188 611 OFFCURVE",
"146 576 OFFCURVE",
"127 540 CURVE",
"123 537 OFFCURVE",
"117 538 OFFCURVE",
"116 545 CURVE",
"140 596 OFFCURVE",
"198 644 OFFCURVE",
"278 644 CURVE SMOOTH",
"334 644 OFFCURVE",
"388 623 OFFCURVE",
"439 584 CURVE",
"439 586 LINE SMOOTH",
"442 602 OFFCURVE",
"463 635 OFFCURVE",
"466 621 CURVE",
"465 602 OFFCURVE",
"463 584 OFFCURVE",
"460 567 CURVE",
"576 464 OFFCURVE",
"666 289 OFFCURVE",
"720 106 CURVE",
"748 347 OFFCURVE",
"894 644 OFFCURVE",
"1022 644 CURVE SMOOTH"
);
}
);
width = 796;
},
{
layerId = "A10215CB-3318-4220-A0C8-1C7678CE5CF9";
paths = (
{
closed = 1;
nodes = (
"788 694 OFFCURVE",
"815 719 OFFCURVE",
"838 719 CURVE SMOOTH",
"869 719 OFFCURVE",
"887 684 OFFCURVE",
"931 684 CURVE SMOOTH",
"955 684 OFFCURVE",
"969 700 OFFCURVE",
"982 728 CURVE",
"985 731 OFFCURVE",
"991 728 OFFCURVE",
"990 724 CURVE SMOOTH",
"974 688 OFFCURVE",
"954 665 OFFCURVE",
"914 665 CURVE SMOOTH",
"877 665 OFFCURVE",
"853 698 OFFCURVE",
"826 698 CURVE SMOOTH",
"809 698 OFFCURVE",
"795 686 OFFCURVE",
"780 667 CURVE",
"775 664 OFFCURVE",
"770 669 OFFCURVE",
"773 673 CURVE SMOOTH"
);
},
{
closed = 1;
nodes = (
"1262 644 OFFCURVE",
"1280 610 OFFCURVE",
"1280 542 CURVE",
"1279 534 OFFCURVE",
"1270 532 OFFCURVE",
"1267 540 CURVE",
"1264 561 OFFCURVE",
"1249 586 OFFCURVE",
"1209 586 CURVE SMOOTH",
"1081 586 OFFCURVE",
"930 267 OFFCURVE",
"922 18 CURVE SMOOTH",
"922 3 OFFCURVE",
"920 0 OFFCURVE",
"913 0 CURVE SMOOTH",
"906 0 OFFCURVE",
"905 7 OFFCURVE",
"902 15 CURVE",
"842 235 OFFCURVE",
"756 409 OFFCURVE",
"648 509 CURVE",
"589 181 OFFCURVE",
"426 0 OFFCURVE",
"229 0 CURVE SMOOTH",
"104 0 OFFCURVE",
"43 65 OFFCURVE",
"43 149 CURVE SMOOTH",
"43 202 OFFCURVE",
"70 258 OFFCURVE",
"119 290 CURVE",
"126 293 OFFCURVE",
"129 286 OFFCURVE",
"126 279 CURVE",
"102 255 OFFCURVE",
"87 224 OFFCURVE",
"87 191 CURVE SMOOTH",
"87 107 OFFCURVE",
"143 52 OFFCURVE",
"255 52 CURVE SMOOTH",
"447 52 OFFCURVE",
"581 210 OFFCURVE",
"628 527 CURVE",
"568 575 OFFCURVE",
"506 602 OFFCURVE",
"438 602 CURVE SMOOTH",
"374 602 OFFCURVE",
"332 567 OFFCURVE",
"313 532 CURVE",
"309 528 OFFCURVE",
"303 529 OFFCURVE",
"302 536 CURVE",
"326 588 OFFCURVE",
"395 644 OFFCURVE",
"475 644 CURVE SMOOTH",
"531 644 OFFCURVE",
"585 624 OFFCURVE",
"636 588 CURVE",
"641 604 OFFCURVE",
"660 633 OFFCURVE",
"663 622 CURVE",
"662 605 OFFCURVE",
"661 588 OFFCURVE",
"658 572 CURVE",
"775 479 OFFCURVE",
"870 307 OFFCURVE",
"921 134 CURVE",
"953 353 OFFCURVE",
"1092 644 OFFCURVE",
"1219 644 CURVE SMOOTH"
);
}
);
width = 993;
}
);
unicode = 00D1;
},
{
glyphname = O;
lastChange = "2017-06-09 14:51:01 +0000";
layers = (
{
layerId = UUID0;
paths = (
{
closed = 1;
nodes = (
"571 645 OFFCURVE",
"651 544 OFFCURVE",
"651 406 CURVE SMOOTH",
"651 188 OFFCURVE",
"469 0 OFFCURVE",
"285 0 CURVE SMOOTH",
"145 0 OFFCURVE",
"70 109 OFFCURVE",
"70 232 CURVE SMOOTH",
"70 436 OFFCURVE",
"235 645 OFFCURVE",
"446 645 CURVE SMOOTH"
);
},
{
closed = 1;
nodes = (
"466 31 OFFCURVE",
"611 171 OFFCURVE",
"611 376 CURVE SMOOTH",
"611 523 OFFCURVE",
"537 611 OFFCURVE",
"414 611 CURVE SMOOTH",
"235 611 OFFCURVE",
"112 457 OFFCURVE",
"112 265 CURVE SMOOTH",
"112 126 OFFCURVE",
"191 31 OFFCURVE",
"328 31 CURVE SMOOTH"
);
}
);
width = 606;
},
{
layerId = "A10215CB-3318-4220-A0C8-1C7678CE5CF9";
paths = (
{
closed = 1;
nodes = (
"609 644 OFFCURVE",
"691 546 OFFCURVE",
"691 406 CURVE SMOOTH",
"691 190 OFFCURVE",
"502 0 OFFCURVE",
"305 0 CURVE SMOOTH",
"154 0 OFFCURVE",
"70 100 OFFCURVE",
"70 232 CURVE SMOOTH",
"70 436 OFFCURVE",
"256 644 OFFCURVE",
"466 644 CURVE SMOOTH"
);
},
{
closed = 1;
nodes = (
"498 36 OFFCURVE",
"631 172 OFFCURVE",
"631 376 CURVE SMOOTH",
"631 504 OFFCURVE",
"565 606 OFFCURVE",
"422 606 CURVE SMOOTH",
"244 606 OFFCURVE",
"132 456 OFFCURVE",
"132 265 CURVE SMOOTH",
"132 127 OFFCURVE",
"213 36 OFFCURVE",
"360 36 CURVE SMOOTH"
);
}
);
width = 646;
}
);
unicode = 004F;
},
{
glyphname = Oacute;
lastChange = "2017-06-09 14:51:01 +0000";
layers = (
{
layerId = UUID0;
paths = (
{
closed = 1;
nodes = (
"475 738 OFFCURVE",
"497 729 OFFCURVE",
"509 724 CURVE",
"512 721 OFFCURVE",
"514 718 OFFCURVE",
"510 715 CURVE SMOOTH",
"483 696 OFFCURVE",
"423 672 OFFCURVE",
"382 658 CURVE",
"377 658 OFFCURVE",
"377 665 OFFCURVE",
"381 669 CURVE",
"408 685 OFFCURVE",
"443 707 OFFCURVE",
"468 734 CURVE"
);
},
{
closed = 1;
nodes = (
"573 645 OFFCURVE",
"653 544 OFFCURVE",
"653 406 CURVE SMOOTH",
"653 188 OFFCURVE",
"471 0 OFFCURVE",
"287 0 CURVE SMOOTH",
"147 0 OFFCURVE",
"72 109 OFFCURVE",
"72 232 CURVE SMOOTH",
"72 436 OFFCURVE",
"237 645 OFFCURVE",
"448 645 CURVE SMOOTH"
);
},
{
closed = 1;
nodes = (
"468 31 OFFCURVE",
"613 171 OFFCURVE",
"613 376 CURVE SMOOTH",
"613 523 OFFCURVE",
"539 611 OFFCURVE",
"416 611 CURVE SMOOTH",
"237 611 OFFCURVE",
"114 457 OFFCURVE",
"114 265 CURVE SMOOTH",
"114 126 OFFCURVE",
"193 31 OFFCURVE",
"330 31 CURVE SMOOTH"
);
}
);
width = 608;
},
{
layerId = "A10215CB-3318-4220-A0C8-1C7678CE5CF9";
paths = (
{
closed = 1;
nodes = (
"475 738 OFFCURVE",
"497 729 OFFCURVE",
"509 724 CURVE",
"512 721 OFFCURVE",
"514 718 OFFCURVE",
"510 715 CURVE SMOOTH",
"483 696 OFFCURVE",
"423 672 OFFCURVE",
"382 658 CURVE",
"377 658 OFFCURVE",
"377 665 OFFCURVE",
"381 669 CURVE",
"408 685 OFFCURVE",
"443 707 OFFCURVE",
"468 734 CURVE"
);
},
{
closed = 1;
nodes = (
"609 644 OFFCURVE",
"691 546 OFFCURVE",
"691 406 CURVE SMOOTH",
"691 190 OFFCURVE",
"502 0 OFFCURVE",
"305 0 CURVE SMOOTH",
"154 0 OFFCURVE",
"70 100 OFFCURVE",
"70 232 CURVE SMOOTH",
"70 436 OFFCURVE",
"256 644 OFFCURVE",
"466 644 CURVE SMOOTH"
);
},
{
closed = 1;
nodes = (
"498 36 OFFCURVE",
"631 172 OFFCURVE",
"631 376 CURVE SMOOTH",
"631 504 OFFCURVE",
"565 606 OFFCURVE",
"422 606 CURVE SMOOTH",
"244 606 OFFCURVE",
"132 456 OFFCURVE",
"132 265 CURVE SMOOTH",
"132 127 OFFCURVE",
"213 36 OFFCURVE",
"360 36 CURVE SMOOTH"
);
}
);
width = 646;
}
);
unicode = 00D3;
},
{
glyphname = Ocircumflex;
lastChange = "2017-06-09 14:51:01 +0000";
layers = (
{
layerId = UUID0;
paths = (
{
closed = 1;
nodes = (
"453 749 OFFCURVE",
"457 749 OFFCURVE",
"462 745 CURVE",
"479 722 OFFCURVE",
"509 696 OFFCURVE",
"536 684 CURVE",
"543 677 OFFCURVE",
"526 668 OFFCURVE",
"510 671 CURVE",
"485 682 OFFCURVE",
"465 698 OFFCURVE",
"444 715 CURVE",
"429 702 OFFCURVE",
"388 678 OFFCURVE",
"369 670 CURVE",
"362 670 OFFCURVE",
"361 673 OFFCURVE",
"364 679 CURVE",
"387 692 OFFCURVE",
"429 721 OFFCURVE",
"450 746 CURVE SMOOTH"
);
},
{
closed = 1;
nodes = (
"573 645 OFFCURVE",
"653 544 OFFCURVE",
"653 406 CURVE SMOOTH",
"653 188 OFFCURVE",
"471 0 OFFCURVE",
"287 0 CURVE SMOOTH",
"147 0 OFFCURVE",
"72 109 OFFCURVE",
"72 232 CURVE SMOOTH",
"72 436 OFFCURVE",
"237 645 OFFCURVE",
"448 645 CURVE SMOOTH"
);
},
{
closed = 1;
nodes = (
"468 31 OFFCURVE",
"613 171 OFFCURVE",
"613 376 CURVE SMOOTH",
"613 523 OFFCURVE",
"539 611 OFFCURVE",
"416 611 CURVE SMOOTH",
"237 611 OFFCURVE",
"114 457 OFFCURVE",
"114 265 CURVE SMOOTH",
"114 126 OFFCURVE",
"193 31 OFFCURVE",
"330 31 CURVE SMOOTH"
);
}
);
width = 608;
},
{
layerId = "A10215CB-3318-4220-A0C8-1C7678CE5CF9";
paths = (
{
closed = 1;
nodes = (
"453 749 OFFCURVE",
"457 749 OFFCURVE",
"462 745 CURVE",
"479 722 OFFCURVE",
"509 696 OFFCURVE",
"536 684 CURVE",
"543 677 OFFCURVE",
"526 668 OFFCURVE",
"510 671 CURVE",
"485 682 OFFCURVE",
"465 698 OFFCURVE",
"444 715 CURVE",
"429 702 OFFCURVE",
"388 678 OFFCURVE",
"369 670 CURVE",
"362 670 OFFCURVE",
"361 673 OFFCURVE",
"364 679 CURVE",
"387 692 OFFCURVE",
"429 721 OFFCURVE",
"450 746 CURVE SMOOTH"
);
},
{
closed = 1;
nodes = (
"609 644 OFFCURVE",
"691 546 OFFCURVE",
"691 406 CURVE SMOOTH",
"691 190 OFFCURVE",
"502 0 OFFCURVE",
"305 0 CURVE SMOOTH",
"154 0 OFFCURVE",
"70 100 OFFCURVE",
"70 232 CURVE SMOOTH",
"70 436 OFFCURVE",
"256 644 OFFCURVE",
"466 644 CURVE SMOOTH"
);
},
{
closed = 1;
nodes = (
"498 36 OFFCURVE",
"631 172 OFFCURVE",
"631 376 CURVE SMOOTH",
"631 504 OFFCURVE",
"565 606 OFFCURVE",
"422 606 CURVE SMOOTH",
"244 606 OFFCURVE",
"132 456 OFFCURVE",
"132 265 CURVE SMOOTH",
"132 127 OFFCURVE",
"213 36 OFFCURVE",
"360 36 CURVE SMOOTH"
);
}
);
width = 646;
}
);
unicode = 00D4;
},
{
glyphname = Odieresis;
lastChange = "2017-06-09 14:51:01 +0000";
layers = (
{
layerId = UUID0;
paths = (
{
closed = 1;
nodes = (
"399 667 OFFCURVE",
"395 673 OFFCURVE",
"395 684 CURVE SMOOTH",
"395 697 OFFCURVE",
"410 721 OFFCURVE",
"431 721 CURVE SMOOTH",
"437 721 OFFCURVE",
"440 717 OFFCURVE",
"440 708 CURVE SMOOTH",
"440 689 OFFCURVE",
"425 667 OFFCURVE",
"406 667 CURVE SMOOTH"
);
},
{
closed = 1;
nodes = (
"475 667 OFFCURVE",
"471 673 OFFCURVE",
"471 684 CURVE SMOOTH",
"471 697 OFFCURVE",
"486 721 OFFCURVE",
"506 721 CURVE SMOOTH",
"512 721 OFFCURVE",
"515 717 OFFCURVE",
"515 708 CURVE SMOOTH",
"515 689 OFFCURVE",
"499 667 OFFCURVE",
"483 667 CURVE SMOOTH"
);
},
{
closed = 1;
nodes = (
"573 645 OFFCURVE",
"653 544 OFFCURVE",
"653 406 CURVE SMOOTH",
"653 188 OFFCURVE",
"471 0 OFFCURVE",
"287 0 CURVE SMOOTH",
"147 0 OFFCURVE",
"72 109 OFFCURVE",
"72 232 CURVE SMOOTH",
"72 436 OFFCURVE",
"237 645 OFFCURVE",
"448 645 CURVE SMOOTH"
);
},
{
closed = 1;
nodes = (
"468 31 OFFCURVE",
"613 171 OFFCURVE",
"613 376 CURVE SMOOTH",
"613 523 OFFCURVE",
"539 611 OFFCURVE",
"416 611 CURVE SMOOTH",
"237 611 OFFCURVE",
"114 457 OFFCURVE",
"114 265 CURVE SMOOTH",
"114 126 OFFCURVE",
"193 31 OFFCURVE",
"330 31 CURVE SMOOTH"
);
}
);
width = 608;
},
{
layerId = "A10215CB-3318-4220-A0C8-1C7678CE5CF9";
paths = (
{
closed = 1;
nodes = (
"399 667 OFFCURVE",
"395 673 OFFCURVE",
"395 684 CURVE SMOOTH",
"395 697 OFFCURVE",
"410 721 OFFCURVE",
"431 721 CURVE SMOOTH",
"437 721 OFFCURVE",
"440 717 OFFCURVE",
"440 708 CURVE SMOOTH",
"440 689 OFFCURVE",
"425 667 OFFCURVE",
"406 667 CURVE SMOOTH"
);
},
{
closed = 1;
nodes = (
"475 667 OFFCURVE",
"471 673 OFFCURVE",
"471 684 CURVE SMOOTH",
"471 697 OFFCURVE",
"486 721 OFFCURVE",
"506 721 CURVE SMOOTH",
"512 721 OFFCURVE",
"515 717 OFFCURVE",
"515 708 CURVE SMOOTH",
"515 689 OFFCURVE",
"499 667 OFFCURVE",
"483 667 CURVE SMOOTH"
);
},
{
closed = 1;
nodes = (
"609 644 OFFCURVE",
"691 546 OFFCURVE",
"691 406 CURVE SMOOTH",
"691 190 OFFCURVE",
"502 0 OFFCURVE",
"305 0 CURVE SMOOTH",
"154 0 OFFCURVE",
"70 100 OFFCURVE",
"70 232 CURVE SMOOTH",
"70 436 OFFCURVE",
"256 644 OFFCURVE",
"466 644 CURVE SMOOTH"
);
},
{
closed = 1;
nodes = (
"498 36 OFFCURVE",
"631 172 OFFCURVE",
"631 376 CURVE SMOOTH",
"631 504 OFFCURVE",
"565 606 OFFCURVE",
"422 606 CURVE SMOOTH",
"244 606 OFFCURVE",
"132 456 OFFCURVE",
"132 265 CURVE SMOOTH",
"132 127 OFFCURVE",
"213 36 OFFCURVE",
"360 36 CURVE SMOOTH"
);
}
);
width = 646;
}
);
unicode = 00D6;
},
{
glyphname = Ograve;
lastChange = "2017-06-09 14:51:01 +0000";
layers = (
{
layerId = UUID0;
paths = (
{
closed = 1;
nodes = (
"497 666 OFFCURVE",
"493 660 OFFCURVE",
"486 660 CURVE",
"453 668 OFFCURVE",
"392 693 OFFCURVE",
"363 709 CURVE SMOOTH",
"360 710 OFFCURVE",
"360 714 OFFCURVE",
"363 717 CURVE SMOOTH",
"376 728 OFFCURVE",
"400 734 OFFCURVE",
"403 731 CURVE SMOOTH",
"426 712 OFFCURVE",
"458 689 OFFCURVE",
"494 669 CURVE"
);
},
{
closed = 1;
nodes = (
"573 645 OFFCURVE",
"653 544 OFFCURVE",
"653 406 CURVE SMOOTH",
"653 188 OFFCURVE",
"471 0 OFFCURVE",
"287 0 CURVE SMOOTH",
"147 0 OFFCURVE",
"72 109 OFFCURVE",
"72 232 CURVE SMOOTH",
"72 436 OFFCURVE",
"237 645 OFFCURVE",
"448 645 CURVE SMOOTH"
);
},
{
closed = 1;
nodes = (
"468 31 OFFCURVE",
"613 171 OFFCURVE",
"613 376 CURVE SMOOTH",
"613 523 OFFCURVE",
"539 611 OFFCURVE",
"416 611 CURVE SMOOTH",
"237 611 OFFCURVE",
"114 457 OFFCURVE",
"114 265 CURVE SMOOTH",
"114 126 OFFCURVE",
"193 31 OFFCURVE",
"330 31 CURVE SMOOTH"
);
}
);
width = 608;
},
{
layerId = "A10215CB-3318-4220-A0C8-1C7678CE5CF9";
paths = (
{
closed = 1;
nodes = (
"497 666 OFFCURVE",
"493 660 OFFCURVE",
"486 660 CURVE",
"453 668 OFFCURVE",
"392 693 OFFCURVE",
"363 709 CURVE SMOOTH",
"360 710 OFFCURVE",
"360 714 OFFCURVE",
"363 717 CURVE SMOOTH",
"376 728 OFFCURVE",
"400 734 OFFCURVE",
"403 731 CURVE SMOOTH",
"426 712 OFFCURVE",
"458 689 OFFCURVE",
"494 669 CURVE"
);
},
{
closed = 1;
nodes = (
"609 644 OFFCURVE",
"691 546 OFFCURVE",
"691 406 CURVE SMOOTH",
"691 190 OFFCURVE",
"502 0 OFFCURVE",
"305 0 CURVE SMOOTH",
"154 0 OFFCURVE",
"70 100 OFFCURVE",
"70 232 CURVE SMOOTH",
"70 436 OFFCURVE",
"256 644 OFFCURVE",
"466 644 CURVE SMOOTH"
);
},
{
closed = 1;
nodes = (
"498 36 OFFCURVE",
"631 172 OFFCURVE",
"631 376 CURVE SMOOTH",
"631 504 OFFCURVE",
"565 606 OFFCURVE",
"422 606 CURVE SMOOTH",
"244 606 OFFCURVE",
"132 456 OFFCURVE",
"132 265 CURVE SMOOTH",
"132 127 OFFCURVE",
"213 36 OFFCURVE",
"360 36 CURVE SMOOTH"
);
}
);
width = 646;
}
);
unicode = 00D2;
},
{
glyphname = Oslash;
lastChange = "2017-06-09 14:51:01 +0000";
layers = (
{
layerId = UUID0;
paths = (
{
closed = 1;
nodes = (
"618 570 OFFCURVE",
"650 497 OFFCURVE",
"650 406 CURVE SMOOTH",
"650 188 OFFCURVE",
"469 0 OFFCURVE",
"285 0 CURVE SMOOTH",
"228 0 OFFCURVE",
"183 18 OFFCURVE",
"148 47 CURVE",
"129 22 OFFCURVE",
"115 1 OFFCURVE",
"104 -15 CURVE",
"97 -23 OFFCURVE",
"83 -20 OFFCURVE",
"86 -12 CURVE",
"99 7 OFFCURVE",
"116 30 OFFCURVE",
"136 57 CURVE",
"92 101 OFFCURVE",
"70 164 OFFCURVE",
"70 232 CURVE SMOOTH",
"70 436 OFFCURVE",
"236 644 OFFCURVE",
"446 644 CURVE SMOOTH",
"482 644 OFFCURVE",
"515 636 OFFCURVE",
"544 619 CURVE",
"573 657 LINE",
"581 664 OFFCURVE",
"594 661 OFFCURVE",
"591 652 CURVE",
"582 641 OFFCURVE",
"571 627 OFFCURVE",
"559 610 CURVE"
);
},
{
closed = 1;
nodes = (
"112 196 OFFCURVE",
"130 140 OFFCURVE",
"165 99 CURVE",
"269 240 OFFCURVE",
"418 450 OFFCURVE",
"517 583 CURVE",
"488 601 OFFCURVE",
"453 610 OFFCURVE",
"413 610 CURVE SMOOTH",
"234 610 OFFCURVE",
"112 455 OFFCURVE",
"112 265 CURVE SMOOTH"
);
},
{
closed = 1;
nodes = (
"467 30 OFFCURVE",
"610 170 OFFCURVE",
"610 376 CURVE SMOOTH",
"610 467 OFFCURVE",
"582 534 OFFCURVE",
"531 573 CURVE",
"432 442 OFFCURVE",
"275 227 OFFCURVE",
"176 87 CURVE",
"213 51 OFFCURVE",
"263 30 OFFCURVE",
"327 30 CURVE SMOOTH"
);
}
);
width = 605;
},
{
layerId = "A10215CB-3318-4220-A0C8-1C7678CE5CF9";
paths = (
{
closed = 1;
nodes = (
"583 616 LINE",
"652 577 OFFCURVE",
"690 502 OFFCURVE",
"690 406 CURVE SMOOTH",
"690 190 OFFCURVE",
"502 0 OFFCURVE",
"305 0 CURVE SMOOTH",
"246 0 OFFCURVE",
"200 14 OFFCURVE",
"163 39 CURVE",
"124 -16 LINE",
"117 -24 OFFCURVE",
"101 -20 OFFCURVE",
"104 -13 CURVE",
"148 50 LINE",
"97 93 OFFCURVE",
"70 156 OFFCURVE",
"70 232 CURVE SMOOTH",
"70 436 OFFCURVE",
"255 644 OFFCURVE",
"466 644 CURVE SMOOTH",
"503 644 OFFCURVE",
"536 637 OFFCURVE",
"566 624 CURVE",
"590 657 LINE",
"598 664 OFFCURVE",
"614 660 OFFCURVE",
"610 652 CURVE"
);
},
{
closed = 1;
nodes = (
"132 198 OFFCURVE",
"150 144 OFFCURVE",
"186 103 CURVE",
"287 244 OFFCURVE",
"434 446 OFFCURVE",
"532 579 CURVE",
"501 596 OFFCURVE",
"465 605 OFFCURVE",
"422 605 CURVE SMOOTH",
"242 605 OFFCURVE",
"132 454 OFFCURVE",
"132 265 CURVE SMOOTH"
);
},
{
closed = 1;
nodes = (
"498 35 OFFCURVE",
"630 171 OFFCURVE",
"630 376 CURVE SMOOTH",
"630 457 OFFCURVE",
"604 528 OFFCURVE",
"548 568 CURVE",
"450 438 OFFCURVE",
"297 228 OFFCURVE",
"199 90 CURVE",
"238 55 OFFCURVE",
"291 35 OFFCURVE",
"360 35 CURVE SMOOTH"
);
}
);
width = 645;
}
);
unicode = 00D8;
},
{
glyphname = Otilde;
lastChange = "2017-06-09 14:51:01 +0000";
layers = (
{
layerId = UUID0;
paths = (
{
closed = 1;
nodes = (
"360 694 OFFCURVE",
"387 719 OFFCURVE",
"410 719 CURVE SMOOTH",
"441 719 OFFCURVE",
"459 684 OFFCURVE",
"503 684 CURVE SMOOTH",
"527 684 OFFCURVE",
"541 700 OFFCURVE",
"554 728 CURVE",
"557 731 OFFCURVE",
"563 728 OFFCURVE",
"562 724 CURVE SMOOTH",
"546 688 OFFCURVE",
"526 665 OFFCURVE",
"486 665 CURVE SMOOTH",
"449 665 OFFCURVE",
"425 698 OFFCURVE",
"398 698 CURVE SMOOTH",
"381 698 OFFCURVE",
"367 686 OFFCURVE",
"352 667 CURVE",
"347 664 OFFCURVE",
"342 669 OFFCURVE",
"345 673 CURVE SMOOTH"
);
},
{
closed = 1;
nodes = (
"573 645 OFFCURVE",
"653 544 OFFCURVE",
"653 406 CURVE SMOOTH",
"653 188 OFFCURVE",
"471 0 OFFCURVE",
"287 0 CURVE SMOOTH",
"147 0 OFFCURVE",
"72 109 OFFCURVE",
"72 232 CURVE SMOOTH",
"72 436 OFFCURVE",
"237 645 OFFCURVE",
"448 645 CURVE SMOOTH"
);
},
{
closed = 1;
nodes = (
"468 31 OFFCURVE",
"613 171 OFFCURVE",
"613 376 CURVE SMOOTH",
"613 523 OFFCURVE",
"539 611 OFFCURVE",
"416 611 CURVE SMOOTH",
"237 611 OFFCURVE",
"114 457 OFFCURVE",
"114 265 CURVE SMOOTH",
"114 126 OFFCURVE",
"193 31 OFFCURVE",
"330 31 CURVE SMOOTH"
);
}
);
width = 608;
},
{
layerId = "A10215CB-3318-4220-A0C8-1C7678CE5CF9";
paths = (
{
closed = 1;
nodes = (
"360 694 OFFCURVE",
"387 719 OFFCURVE",
"410 719 CURVE SMOOTH",
"441 719 OFFCURVE",
"459 684 OFFCURVE",
"503 684 CURVE SMOOTH",
"527 684 OFFCURVE",
"541 700 OFFCURVE",
"554 728 CURVE",
"557 731 OFFCURVE",
"563 728 OFFCURVE",
"562 724 CURVE SMOOTH",
"546 688 OFFCURVE",
"526 665 OFFCURVE",
"486 665 CURVE SMOOTH",
"449 665 OFFCURVE",
"425 698 OFFCURVE",
"398 698 CURVE SMOOTH",
"381 698 OFFCURVE",
"367 686 OFFCURVE",
"352 667 CURVE",
"347 664 OFFCURVE",
"342 669 OFFCURVE",
"345 673 CURVE SMOOTH"
);
},
{
closed = 1;
nodes = (
"609 644 OFFCURVE",
"691 546 OFFCURVE",
"691 406 CURVE SMOOTH",
"691 190 OFFCURVE",
"502 0 OFFCURVE",
"305 0 CURVE SMOOTH",
"154 0 OFFCURVE",
"70 100 OFFCURVE",
"70 232 CURVE SMOOTH",
"70 436 OFFCURVE",
"256 644 OFFCURVE",
"466 644 CURVE SMOOTH"
);
},
{
closed = 1;
nodes = (
"498 36 OFFCURVE",
"631 172 OFFCURVE",
"631 376 CURVE SMOOTH",
"631 504 OFFCURVE",
"565 606 OFFCURVE",
"422 606 CURVE SMOOTH",
"244 606 OFFCURVE",
"132 456 OFFCURVE",
"132 265 CURVE SMOOTH",
"132 127 OFFCURVE",
"213 36 OFFCURVE",
"360 36 CURVE SMOOTH"
);
}
);
width = 646;
}
);
unicode = 00D5;
},
{
glyphname = P;
lastChange = "2017-06-09 14:51:01 +0000";
layers = (
{
layerId = UUID0;
paths = (
{
closed = 1;
nodes = (
"808 625 OFFCURVE",
"873 536 OFFCURVE",
"873 444 CURVE SMOOTH",
"873 322 OFFCURVE",
"784 226 OFFCURVE",
"633 226 CURVE SMOOTH",
"588 226 OFFCURVE",
"553 237 OFFCURVE",
"526 259 CURVE",
"446 79 OFFCURVE",
"334 0 OFFCURVE",
"203 0 CURVE SMOOTH",
"102 0 OFFCURVE",
"50 71 OFFCURVE",
"50 146 CURVE SMOOTH",
"50 196 OFFCURVE",
"79 255 OFFCURVE",
"125 276 CURVE",
"132 277 OFFCURVE",
"134 275 OFFCURVE",
"131 269 CURVE",
"92 248 OFFCURVE",
"73 209 OFFCURVE",
"73 168 CURVE SMOOTH",
"73 91 OFFCURVE",
"130 30 OFFCURVE",
"230 30 CURVE SMOOTH",
"354 30 OFFCURVE",
"431 87 OFFCURVE",
"500 287 CURVE",
"485 308 OFFCURVE",
"475 333 OFFCURVE",
"468 364 CURVE",
"469 369 OFFCURVE",
"474 372 OFFCURVE",
"477 368 CURVE",
"483 342 OFFCURVE",
"492 320 OFFCURVE",
"505 303 CURVE",
"512 324 OFFCURVE",
"519 347 OFFCURVE",
"526 372 CURVE SMOOTH",
"557 485 OFFCURVE",
"591 567 OFFCURVE",
"642 619 CURVE",
"634 620 OFFCURVE",
"625 620 OFFCURVE",
"616 620 CURVE SMOOTH",
"475 620 OFFCURVE",
"373 551 OFFCURVE",
"334 418 CURVE",
"330 414 OFFCURVE",
"325 417 OFFCURVE",
"325 428 CURVE",
"370 561 OFFCURVE",
"474 644 OFFCURVE",
"647 644 CURVE SMOOTH",
"655 644 OFFCURVE",
"662 644 OFFCURVE",
"669 643 CURVE",
"692 660 OFFCURVE",
"718 673 OFFCURVE",
"748 680 CURVE",
"755 680 OFFCURVE",
"756 675 OFFCURVE",
"749 672 CURVE",
"726 665 OFFCURVE",
"708 656 OFFCURVE",
"691 641 CURVE"
);
},
{
closed = 1;
nodes = (
"756 246 OFFCURVE",
"829 326 OFFCURVE",
"829 427 CURVE SMOOTH",
"829 521 OFFCURVE",
"772 597 OFFCURVE",
"667 616 CURVE",
"631 572 OFFCURVE",
"604 507 OFFCURVE",
"581 420 CURVE SMOOTH",
"567 367 OFFCURVE",
"551 318 OFFCURVE",
"533 275 CURVE",
"560 256 OFFCURVE",
"596 246 OFFCURVE",
"643 246 CURVE SMOOTH"
);
}
);
width = 783;
},
{
layerId = "A10215CB-3318-4220-A0C8-1C7678CE5CF9";
paths = (
{
closed = 1;
nodes = (
"835 626 OFFCURVE",
"911 547 OFFCURVE",
"911 450 CURVE SMOOTH",
"911 325 OFFCURVE",
"810 226 OFFCURVE",
"651 226 CURVE SMOOTH",
"608 226 OFFCURVE",
"572 237 OFFCURVE",
"543 258 CURVE",
"459 78 OFFCURVE",
"343 0 OFFCURVE",
"212 0 CURVE SMOOTH",
"101 0 OFFCURVE",
"50 62 OFFCURVE",
"50 146 CURVE SMOOTH",
"50 198 OFFCURVE",
"85 252 OFFCURVE",
"144 276 CURVE",
"148 279 OFFCURVE",
"153 276 OFFCURVE",
"150 269 CURVE",
"110 248 OFFCURVE",
"92 209 OFFCURVE",
"92 168 CURVE SMOOTH",
"92 95 OFFCURVE",
"139 35 OFFCURVE",
"251 35 CURVE SMOOTH",
"379 35 OFFCURVE",
"437 90 OFFCURVE",
"504 301 CURVE",
"492 320 OFFCURVE",
"484 341 OFFCURVE",
"479 364 CURVE",
"480 369 OFFCURVE",
"485 373 OFFCURVE",
"488 369 CURVE",
"493 350 OFFCURVE",
"500 332 OFFCURVE",
"509 317 CURVE",
"524 372 LINE SMOOTH",
"557 491 OFFCURVE",
"596 567 OFFCURVE",
"647 615 CURVE",
"644 616 OFFCURVE",
"639 616 OFFCURVE",
"632 616 CURVE SMOOTH",
"491 616 OFFCURVE",
"392 552 OFFCURVE",
"353 419 CURVE",
"349 415 OFFCURVE",
"343 419 OFFCURVE",
"343 428 CURVE",
"388 561 OFFCURVE",
"493 644 OFFCURVE",
"666 644 CURVE SMOOTH",
"682 644 LINE",
"707 661 OFFCURVE",
"736 673 OFFCURVE",
"767 681 CURVE",
"774 681 OFFCURVE",
"774 673 OFFCURVE",
"767 670 CURVE",
"747 664 OFFCURVE",
"729 655 OFFCURVE",
"712 642 CURVE"
);
},
{
closed = 1;
nodes = (
"774 246 OFFCURVE",
"847 327 OFFCURVE",
"847 428 CURVE SMOOTH",
"847 523 OFFCURVE",
"788 593 OFFCURVE",
"683 612 CURVE",
"650 570 OFFCURVE",
"622 506 OFFCURVE",
"600 420 CURVE SMOOTH",
"585 365 OFFCURVE",
"569 317 OFFCURVE",
"550 274 CURVE",
"577 255 OFFCURVE",
"615 246 OFFCURVE",
"662 246 CURVE SMOOTH"
);
}
);
width = 821;
}
);
unicode = 0050;
},
{
glyphname = Q;
lastChange = "2017-06-09 14:51:01 +0000";
layers = (
{
layerId = UUID0;
paths = (
{
closed = 1;
nodes = (
"538 644 OFFCURVE",
"611 557 OFFCURVE",
"611 430 CURVE SMOOTH",
"611 222 OFFCURVE",
"419 48 OFFCURVE",
"204 21 CURVE",
"274 -3 OFFCURVE",
"371 -60 OFFCURVE",
"468 -98 CURVE SMOOTH",
"519 -118 OFFCURVE",
"556 -127 OFFCURVE",
"607 -127 CURVE SMOOTH",
"675 -127 OFFCURVE",
"717 -109 OFFCURVE",
"749 -74 CURVE",
"753 -71 OFFCURVE",
"761 -73 OFFCURVE",
"758 -80 CURVE",
"722 -131 OFFCURVE",
"666 -167 OFFCURVE",
"586 -167 CURVE SMOOTH",
"532 -167 OFFCURVE",
"493 -157 OFFCURVE",
"438 -131 CURVE",
"304 -72 OFFCURVE",
"155 25 OFFCURVE",
"66 22 CURVE",
"59 25 OFFCURVE",
"55 33 OFFCURVE",
"70 41 CURVE SMOOTH",
"83 48 OFFCURVE",
"95 52 OFFCURVE",
"107 52 CURVE SMOOTH",
"123 52 OFFCURVE",
"150 36 OFFCURVE",
"169 36 CURVE SMOOTH",
"374 36 OFFCURVE",
"564 188 OFFCURVE",
"564 409 CURVE SMOOTH",
"564 533 OFFCURVE",
"504 623 OFFCURVE",
"393 623 CURVE SMOOTH",
"244 623 OFFCURVE",
"139 492 OFFCURVE",
"139 304 CURVE SMOOTH",
"139 232 OFFCURVE",
"170 175 OFFCURVE",
"233 164 CURVE SMOOTH",
"256 160 OFFCURVE",
"273 163 OFFCURVE",
"282 172 CURVE",
"287 173 OFFCURVE",
"290 168 OFFCURVE",
"289 163 CURVE",
"277 148 OFFCURVE",
"250 137 OFFCURVE",
"219 137 CURVE SMOOTH",
"148 137 OFFCURVE",
"104 205 OFFCURVE",
"104 289 CURVE SMOOTH",
"104 470 OFFCURVE",
"236 644 OFFCURVE",
"407 644 CURVE SMOOTH"
);
}
);
width = 563;
},
{
layerId = "A10215CB-3318-4220-A0C8-1C7678CE5CF9";
paths = (
{
closed = 1;
nodes = (
"572 645 OFFCURVE",
"650 548 OFFCURVE",
"650 431 CURVE SMOOTH",
"650 223 OFFCURVE",
"448 52 OFFCURVE",
"223 23 CURVE",
"292 -1 OFFCURVE",
"391 -59 OFFCURVE",
"487 -96 CURVE SMOOTH",
"539 -116 OFFCURVE",
"576 -125 OFFCURVE",
"627 -125 CURVE SMOOTH",
"695 -125 OFFCURVE",
"737 -107 OFFCURVE",
"769 -72 CURVE SMOOTH",
"772 -69 OFFCURVE",
"780 -72 OFFCURVE",
"777 -79 CURVE",
"741 -130 OFFCURVE",
"675 -172 OFFCURVE",
"596 -172 CURVE SMOOTH",
"542 -172 OFFCURVE",
"503 -162 OFFCURVE",
"448 -136 CURVE SMOOTH",
"315 -75 OFFCURVE",
"165 21 OFFCURVE",
"76 18 CURVE",
"69 21 OFFCURVE",
"68 26 OFFCURVE",
"80 37 CURVE",
"91 45 OFFCURVE",
"115 54 OFFCURVE",
"126 54 CURVE SMOOTH",
"143 54 OFFCURVE",
"169 38 OFFCURVE",
"189 38 CURVE SMOOTH",
"394 38 OFFCURVE",
"584 190 OFFCURVE",
"584 410 CURVE SMOOTH",
"584 534 OFFCURVE",
"524 625 OFFCURVE",
"413 625 CURVE SMOOTH",
"264 625 OFFCURVE",
"159 494 OFFCURVE",
"159 306 CURVE SMOOTH",
"159 234 OFFCURVE",
"191 175 OFFCURVE",
"252 166 CURVE SMOOTH",
"275 162 OFFCURVE",
"292 164 OFFCURVE",
"302 173 CURVE SMOOTH",
"306 176 OFFCURVE",
"311 171 OFFCURVE",
"308 164 CURVE",
"297 149 OFFCURVE",
"270 139 OFFCURVE",
"239 139 CURVE SMOOTH",
"158 139 OFFCURVE",
"104 192 OFFCURVE",
"104 291 CURVE SMOOTH",
"104 480 OFFCURVE",
"253 645 OFFCURVE",
"426 645 CURVE SMOOTH"
);
}
);
width = 602;
}
);
unicode = 0051;
},
{
glyphname = R;
lastChange = "2017-06-09 14:51:01 +0000";
layers = (
{
layerId = UUID0;
paths = (
{
closed = 1;
nodes = (
"856 79 OFFCURVE",
"864 79 OFFCURVE",
"863 72 CURVE",
"834 28 OFFCURVE",
"796 0 OFFCURVE",
"753 0 CURVE SMOOTH",
"635 0 OFFCURVE",
"594 144 OFFCURVE",
"559 308 CURVE",
"559 312 OFFCURVE",
"560 315 OFFCURVE",
"563 317 CURVE SMOOTH",
"570 320 OFFCURVE",
"576 322 OFFCURVE",
"591 329 CURVE SMOOTH",
"599 332 OFFCURVE",
"620 317 OFFCURVE",
"665 328 CURVE SMOOTH",
"734 344 OFFCURVE",
"775 394 OFFCURVE",
"775 466 CURVE SMOOTH",
"775 551 OFFCURVE",
"721 612 OFFCURVE",
"632 619 CURVE",
"595 576 OFFCURVE",
"567 508 OFFCURVE",
"543 419 CURVE SMOOTH",
"465 125 OFFCURVE",
"331 0 OFFCURVE",
"165 0 CURVE SMOOTH",
"86 0 OFFCURVE",
"49 53 OFFCURVE",
"49 114 CURVE SMOOTH",
"49 165 OFFCURVE",
"79 221 OFFCURVE",
"124 244 CURVE",
"130 245 OFFCURVE",
"132 243 OFFCURVE",
"131 236 CURVE",
"91 216 OFFCURVE",
"72 176 OFFCURVE",
"72 136 CURVE SMOOTH",
"72 67 OFFCURVE",
"115 30 OFFCURVE",
"192 30 CURVE SMOOTH",
"332 30 OFFCURVE",
"412 102 OFFCURVE",
"487 371 CURVE SMOOTH",
"519 486 OFFCURVE",
"554 567 OFFCURVE",
"605 620 CURVE",
"480 617 OFFCURVE",
"384 570 OFFCURVE",
"319 477 CURVE",
"315 474 OFFCURVE",
"308 477 OFFCURVE",
"311 484 CURVE",
"375 577 OFFCURVE",
"481 638 OFFCURVE",
"632 643 CURVE",
"655 660 OFFCURVE",
"679 673 OFFCURVE",
"710 680 CURVE",
"717 680 OFFCURVE",
"717 674 OFFCURVE",
"710 671 CURVE",
"691 666 OFFCURVE",
"673 657 OFFCURVE",
"657 644 CURVE",
"750 644 OFFCURVE",
"815 566 OFFCURVE",
"815 488 CURVE SMOOTH",
"815 380 OFFCURVE",
"711 304 OFFCURVE",
"602 309 CURVE",
"645 80 OFFCURVE",
"704 32 OFFCURVE",
"785 32 CURVE SMOOTH",
"813 32 OFFCURVE",
"832 46 OFFCURVE",
"853 75 CURVE SMOOTH"
);
}
);
width = 854;
},
{
layerId = "A10215CB-3318-4220-A0C8-1C7678CE5CF9";
paths = (
{
closed = 1;
nodes = (
"873 79 OFFCURVE",
"882 80 OFFCURVE",
"879 73 CURVE",
"851 28 OFFCURVE",
"813 0 OFFCURVE",
"770 0 CURVE SMOOTH",
"652 0 OFFCURVE",
"611 146 OFFCURVE",
"576 309 CURVE",
"576 314 OFFCURVE",
"577 316 OFFCURVE",
"580 317 CURVE SMOOTH",
"587 321 OFFCURVE",
"608 326 OFFCURVE",
"623 331 CURVE SMOOTH",
"632 334 OFFCURVE",
"656 318 OFFCURVE",
"701 329 CURVE SMOOTH",
"758 342 OFFCURVE",
"792 388 OFFCURVE",
"792 467 CURVE SMOOTH",
"792 545 OFFCURVE",
"742 607 OFFCURVE",
"644 615 CURVE",
"609 571 OFFCURVE",
"583 505 OFFCURVE",
"560 420 CURVE SMOOTH",
"480 127 OFFCURVE",
"347 0 OFFCURVE",
"182 0 CURVE SMOOTH",
"90 0 OFFCURVE",
"50 46 OFFCURVE",
"50 114 CURVE SMOOTH",
"50 175 OFFCURVE",
"90 225 OFFCURVE",
"141 244 CURVE SMOOTH",
"148 247 OFFCURVE",
"150 244 OFFCURVE",
"147 237 CURVE",
"108 216 OFFCURVE",
"89 186 OFFCURVE",
"89 145 CURVE SMOOTH",
"89 80 OFFCURVE",
"130 37 OFFCURVE",
"213 37 CURVE SMOOTH",
"346 37 OFFCURVE",
"405 81 OFFCURVE",
"485 372 CURVE SMOOTH",
"515 483 OFFCURVE",
"557 564 OFFCURVE",
"610 615 CURVE",
"486 611 OFFCURVE",
"400 570 OFFCURVE",
"336 478 CURVE",
"331 475 OFFCURVE",
"325 478 OFFCURVE",
"328 485 CURVE",
"391 577 OFFCURVE",
"496 637 OFFCURVE",
"645 644 CURVE",
"670 661 OFFCURVE",
"697 673 OFFCURVE",
"727 681 CURVE",
"734 681 OFFCURVE",
"734 675 OFFCURVE",
"727 672 CURVE",
"709 667 OFFCURVE",
"691 658 OFFCURVE",
"674 644 CURVE",
"786 644 OFFCURVE",
"852 568 OFFCURVE",
"852 488 CURVE SMOOTH",
"852 378 OFFCURVE",
"766 299 OFFCURVE",
"633 312 CURVE",
"673 103 OFFCURVE",
"727 41 OFFCURVE",
"811 41 CURVE SMOOTH",
"834 41 OFFCURVE",
"853 53 OFFCURVE",
"870 76 CURVE SMOOTH"
);
}
);
width = 870;
}
);
unicode = 0052;
},
{
glyphname = S;
lastChange = "2017-06-09 14:51:01 +0000";
layers = (
{
layerId = UUID0;
paths = (
{
closed = 1;
nodes = (
"50 166 OFFCURVE",
"74 206 OFFCURVE",
"118 229 CURVE SMOOTH",
"123 232 OFFCURVE",
"126 223 OFFCURVE",
"123 219 CURVE",
"99 206 OFFCURVE",
"87 182 OFFCURVE",
"87 147 CURVE SMOOTH",
"87 79 OFFCURVE",
"147 23 OFFCURVE",
"247 23 CURVE SMOOTH",
"368 23 OFFCURVE",
"425 82 OFFCURVE",
"425 158 CURVE SMOOTH",
"425 310 OFFCURVE",
"277 372 OFFCURVE",
"277 499 CURVE SMOOTH",
"277 579 OFFCURVE",
"344 644 OFFCURVE",
"428 644 CURVE SMOOTH",
"488 644 OFFCURVE",
"525 608 OFFCURVE",
"525 569 CURVE SMOOTH",
"525 546 OFFCURVE",
"507 517 OFFCURVE",
"492 497 CURVE",
"487 494 OFFCURVE",
"483 498 OFFCURVE",
"483 505 CURVE",
"492 516 OFFCURVE",
"496 530 OFFCURVE",
"496 549 CURVE SMOOTH",
"496 588 OFFCURVE",
"459 619 OFFCURVE",
"403 619 CURVE SMOOTH",
"346 619 OFFCURVE",
"307 582 OFFCURVE",
"307 533 CURVE SMOOTH",
"307 415 OFFCURVE",
"460 334 OFFCURVE",
"460 187 CURVE SMOOTH",
"460 77 OFFCURVE",
"357 0 OFFCURVE",
"231 0 CURVE SMOOTH",
"114 0 OFFCURVE",
"50 50 OFFCURVE",
"50 121 CURVE SMOOTH"
);
}
);
width = 480;
},
{
layerId = "A10215CB-3318-4220-A0C8-1C7678CE5CF9";
paths = (
{
closed = 1;
nodes = (
"50 188 OFFCURVE",
"82 229 OFFCURVE",
"134 250 CURVE SMOOTH",
"141 253 OFFCURVE",
"144 243 OFFCURVE",
"140 238 CURVE",
"116 225 OFFCURVE",
"101 196 OFFCURVE",
"101 156 CURVE SMOOTH",
"101 75 OFFCURVE",
"167 25 OFFCURVE",
"263 25 CURVE SMOOTH",
"388 25 OFFCURVE",
"438 79 OFFCURVE",
"438 159 CURVE SMOOTH",
"438 309 OFFCURVE",
"291 371 OFFCURVE",
"291 499 CURVE SMOOTH",
"291 574 OFFCURVE",
"361 644 OFFCURVE",
"460 644 CURVE SMOOTH",
"528 644 OFFCURVE",
"570 611 OFFCURVE",
"570 571 CURVE SMOOTH",
"570 548 OFFCURVE",
"546 511 OFFCURVE",
"526 487 CURVE",
"521 484 OFFCURVE",
"516 490 OFFCURVE",
"517 495 CURVE",
"524 506 OFFCURVE",
"529 521 OFFCURVE",
"529 540 CURVE SMOOTH",
"529 583 OFFCURVE",
"488 619 OFFCURVE",
"436 619 CURVE SMOOTH",
"369 619 OFFCURVE",
"340 584 OFFCURVE",
"340 533 CURVE SMOOTH",
"340 415 OFFCURVE",
"493 334 OFFCURVE",
"493 187 CURVE SMOOTH",
"493 83 OFFCURVE",
"382 0 OFFCURVE",
"244 0 CURVE SMOOTH",
"117 0 OFFCURVE",
"50 55 OFFCURVE",
"50 131 CURVE SMOOTH"
);
}
);
width = 513;
}
);
unicode = 0053;
},
{
glyphname = Scaron;
lastChange = "2017-06-09 14:51:01 +0000";
layers = (
{
layerId = UUID0;
paths = (
{
closed = 1;
nodes = (
"439 668 OFFCURVE",
"435 669 OFFCURVE",
"431 672 CURVE",
"414 695 OFFCURVE",
"383 722 OFFCURVE",
"358 733 CURVE",
"351 740 OFFCURVE",
"367 749 OFFCURVE",
"384 746 CURVE",
"408 735 OFFCURVE",
"429 719 OFFCURVE",
"449 702 CURVE",
"466 716 OFFCURVE",
"505 737 OFFCURVE",
"524 748 CURVE",
"531 748 OFFCURVE",
"532 743 OFFCURVE",
"529 738 CURVE",
"506 725 OFFCURVE",
"464 698 OFFCURVE",
"443 671 CURVE"
);
},
{
closed = 1;
nodes = (
"50 166 OFFCURVE",
"74 206 OFFCURVE",
"118 229 CURVE SMOOTH",
"123 232 OFFCURVE",
"126 223 OFFCURVE",
"123 219 CURVE",
"99 206 OFFCURVE",
"87 182 OFFCURVE",
"87 147 CURVE SMOOTH",
"87 79 OFFCURVE",
"147 23 OFFCURVE",
"247 23 CURVE SMOOTH",
"368 23 OFFCURVE",
"425 82 OFFCURVE",
"425 158 CURVE SMOOTH",
"425 310 OFFCURVE",
"277 372 OFFCURVE",
"277 499 CURVE SMOOTH",
"277 579 OFFCURVE",
"344 644 OFFCURVE",
"428 644 CURVE SMOOTH",
"488 644 OFFCURVE",
"525 608 OFFCURVE",
"525 569 CURVE SMOOTH",
"525 546 OFFCURVE",
"507 517 OFFCURVE",
"492 497 CURVE",
"487 494 OFFCURVE",
"483 498 OFFCURVE",
"483 505 CURVE",
"492 516 OFFCURVE",
"496 530 OFFCURVE",
"496 549 CURVE SMOOTH",
"496 588 OFFCURVE",
"459 619 OFFCURVE",
"403 619 CURVE SMOOTH",
"346 619 OFFCURVE",
"307 582 OFFCURVE",
"307 533 CURVE SMOOTH",
"307 415 OFFCURVE",
"460 334 OFFCURVE",
"460 187 CURVE SMOOTH",
"460 77 OFFCURVE",
"357 0 OFFCURVE",
"231 0 CURVE SMOOTH",
"114 0 OFFCURVE",
"50 50 OFFCURVE",
"50 121 CURVE SMOOTH"
);
}
);
width = 480;
},
{
layerId = "A10215CB-3318-4220-A0C8-1C7678CE5CF9";
paths = (
{
closed = 1;
nodes = (
"428 668 OFFCURVE",
"424 669 OFFCURVE",
"420 672 CURVE",
"403 695 OFFCURVE",
"372 722 OFFCURVE",
"347 733 CURVE",
"340 740 OFFCURVE",
"356 749 OFFCURVE",
"373 746 CURVE",
"397 735 OFFCURVE",
"418 719 OFFCURVE",
"438 702 CURVE",
"455 716 OFFCURVE",
"494 737 OFFCURVE",
"513 748 CURVE",
"520 748 OFFCURVE",
"521 743 OFFCURVE",
"518 738 CURVE",
"495 725 OFFCURVE",
"453 698 OFFCURVE",
"432 671 CURVE"
);
},
{
closed = 1;
nodes = (
"50 188 OFFCURVE",
"82 229 OFFCURVE",
"134 250 CURVE SMOOTH",
"141 253 OFFCURVE",
"144 243 OFFCURVE",
"140 238 CURVE",
"116 225 OFFCURVE",
"101 196 OFFCURVE",
"101 156 CURVE SMOOTH",
"101 75 OFFCURVE",
"167 25 OFFCURVE",
"263 25 CURVE SMOOTH",
"388 25 OFFCURVE",
"438 79 OFFCURVE",
"438 159 CURVE SMOOTH",
"438 309 OFFCURVE",
"291 371 OFFCURVE",
"291 499 CURVE SMOOTH",
"291 574 OFFCURVE",
"361 644 OFFCURVE",
"460 644 CURVE SMOOTH",
"528 644 OFFCURVE",
"570 611 OFFCURVE",
"570 571 CURVE SMOOTH",
"570 548 OFFCURVE",
"546 511 OFFCURVE",
"526 487 CURVE",
"521 484 OFFCURVE",
"516 490 OFFCURVE",
"517 495 CURVE",
"524 506 OFFCURVE",
"529 521 OFFCURVE",
"529 540 CURVE SMOOTH",
"529 583 OFFCURVE",
"488 619 OFFCURVE",
"436 619 CURVE SMOOTH",
"369 619 OFFCURVE",
"340 584 OFFCURVE",
"340 533 CURVE SMOOTH",
"340 415 OFFCURVE",
"493 334 OFFCURVE",
"493 187 CURVE SMOOTH",
"493 83 OFFCURVE",
"382 0 OFFCURVE",
"244 0 CURVE SMOOTH",
"117 0 OFFCURVE",
"50 55 OFFCURVE",
"50 131 CURVE SMOOTH"
);
}
);
width = 513;
}
);
unicode = 0160;
},
{
glyphname = T;
lastChange = "2017-06-09 14:51:01 +0000";
layers = (
{
layerId = UUID0;
paths = (
{
closed = 1;
nodes = (
"813 583 OFFCURVE",
"813 578 OFFCURVE",
"808 572 CURVE SMOOTH",
"797 557 OFFCURVE",
"789 550 OFFCURVE",
"784 552 CURVE SMOOTH",
"768 557 OFFCURVE",
"752 562 OFFCURVE",
"735 566 CURVE",
"660 559 OFFCURVE",
"603 492 OFFCURVE",
"556 339 CURVE SMOOTH",
"487 114 OFFCURVE",
"363 1 OFFCURVE",
"188 1 CURVE SMOOTH",
"92 1 OFFCURVE",
"50 56 OFFCURVE",
"50 113 CURVE SMOOTH",
"50 153 OFFCURVE",
"70 186 OFFCURVE",
"109 213 CURVE",
"114 213 OFFCURVE",
"116 206 OFFCURVE",
"113 202 CURVE",
"94 187 OFFCURVE",
"86 174 OFFCURVE",
"86 143 CURVE SMOOTH",
"86 75 OFFCURVE",
"134 33 OFFCURVE",
"227 33 CURVE SMOOTH",
"356 33 OFFCURVE",
"436 95 OFFCURVE",
"505 308 CURVE SMOOTH",
"553 457 OFFCURVE",
"620 551 OFFCURVE",
"704 574 CURVE",
"615 597 OFFCURVE",
"517 611 OFFCURVE",
"422 611 CURVE SMOOTH",
"274 611 OFFCURVE",
"185 505 OFFCURVE",
"201 384 CURVE",
"197 378 OFFCURVE",
"193 378 OFFCURVE",
"190 383 CURVE",
"174 515 OFFCURVE",
"262 644 OFFCURVE",
"455 644 CURVE SMOOTH",
"598 644 OFFCURVE",
"713 616 OFFCURVE",
"809 587 CURVE"
);
}
);
width = 577;
},
{
layerId = "A10215CB-3318-4220-A0C8-1C7678CE5CF9";
paths = (
{
closed = 1;
nodes = (
"831 584 OFFCURVE",
"830 579 OFFCURVE",
"825 572 CURVE SMOOTH",
"813 555 OFFCURVE",
"792 543 OFFCURVE",
"781 546 CURVE SMOOTH",
"741 558 LINE",
"674 553 OFFCURVE",
"620 489 OFFCURVE",
"572 338 CURVE",
"503 113 OFFCURVE",
"377 0 OFFCURVE",
"202 0 CURVE SMOOTH",
"106 0 OFFCURVE",
"50 46 OFFCURVE",
"50 111 CURVE SMOOTH",
"50 158 OFFCURVE",
"84 200 OFFCURVE",
"127 219 CURVE",
"132 219 OFFCURVE",
"135 212 OFFCURVE",
"132 208 CURVE",
"109 191 OFFCURVE",
"101 170 OFFCURVE",
"101 142 CURVE SMOOTH",
"101 74 OFFCURVE",
"155 35 OFFCURVE",
"248 35 CURVE SMOOTH",
"378 35 OFFCURVE",
"433 94 OFFCURVE",
"502 307 CURVE SMOOTH",
"550 458 OFFCURVE",
"619 546 OFFCURVE",
"710 566 CURVE",
"622 589 OFFCURVE",
"526 603 OFFCURVE",
"429 603 CURVE SMOOTH",
"282 603 OFFCURVE",
"201 504 OFFCURVE",
"217 384 CURVE",
"214 377 OFFCURVE",
"210 377 OFFCURVE",
"206 382 CURVE",
"190 515 OFFCURVE",
"279 644 OFFCURVE",
"472 644 CURVE SMOOTH",
"613 644 OFFCURVE",
"730 616 OFFCURVE",
"826 587 CURVE"
);
}
);
width = 593;
}
);
unicode = 0054;
},
{
glyphname = U;
lastChange = "2017-06-09 14:51:01 +0000";
layers = (
{
layerId = UUID0;
paths = (
{
closed = 1;
nodes = (
"406 599 OFFCURVE",
"351 612 OFFCURVE",
"296 612 CURVE SMOOTH",
"134 612 OFFCURVE",
"59 456 OFFCURVE",
"89 316 CURVE",
"88 311 OFFCURVE",
"81 307 OFFCURVE",
"78 312 CURVE",
"41 479 OFFCURVE",
"144 644 OFFCURVE",
"332 644 CURVE SMOOTH",
"388 644 OFFCURVE",
"442 631 OFFCURVE",
"483 612 CURVE",
"487 609 OFFCURVE",
"486 605 OFFCURVE",
"480 600 CURVE SMOOTH",
"340 489 OFFCURVE",
"260 312 OFFCURVE",
"260 153 CURVE SMOOTH",
"260 65 OFFCURVE",
"293 35 OFFCURVE",
"344 35 CURVE SMOOTH",
"482 35 OFFCURVE",
"605 219 OFFCURVE",
"786 622 CURVE SMOOTH",
"791 633 OFFCURVE",
"811 644 OFFCURVE",
"830 644 CURVE SMOOTH",
"841 644 OFFCURVE",
"846 642 OFFCURVE",
"846 637 CURVE",
"774 553 OFFCURVE",
"649 233 OFFCURVE",
"649 101 CURVE SMOOTH",
"649 63 OFFCURVE",
"661 44 OFFCURVE",
"686 44 CURVE SMOOTH",
"711 44 OFFCURVE",
"736 63 OFFCURVE",
"760 100 CURVE",
"764 104 OFFCURVE",
"771 99 OFFCURVE",
"770 94 CURVE",
"741 50 OFFCURVE",
"693 0 OFFCURVE",
"661 0 CURVE SMOOTH",
"624 0 OFFCURVE",
"608 35 OFFCURVE",
"608 78 CURVE SMOOTH",
"608 145 OFFCURVE",
"627 239 OFFCURVE",
"670 346 CURVE",
"549 118 OFFCURVE",
"430 0 OFFCURVE",
"313 0 CURVE SMOOTH",
"249 0 OFFCURVE",
"216 45 OFFCURVE",
"216 125 CURVE SMOOTH",
"216 287 OFFCURVE",
"300 461 OFFCURVE",
"441 586 CURVE"
);
}
);
width = 752;
},
{
layerId = "A10215CB-3318-4220-A0C8-1C7678CE5CF9";
paths = (
{
closed = 1;
nodes = (
"392 592 OFFCURVE",
"337 605 OFFCURVE",
"281 605 CURVE SMOOTH",
"125 605 OFFCURVE",
"54 463 OFFCURVE",
"83 316 CURVE",
"82 311 OFFCURVE",
"75 307 OFFCURVE",
"72 312 CURVE",
"35 479 OFFCURVE",
"138 644 OFFCURVE",
"326 644 CURVE SMOOTH",
"382 644 OFFCURVE",
"436 631 OFFCURVE",
"477 612 CURVE",
"480 609 OFFCURVE",
"479 605 OFFCURVE",
"474 600 CURVE",
"334 489 OFFCURVE",
"254 312 OFFCURVE",
"254 153 CURVE SMOOTH",
"254 77 OFFCURVE",
"282 42 OFFCURVE",
"341 42 CURVE SMOOTH",
"479 42 OFFCURVE",
"599 219 OFFCURVE",
"780 622 CURVE SMOOTH",
"785 633 OFFCURVE",
"815 644 OFFCURVE",
"844 644 CURVE SMOOTH",
"855 644 OFFCURVE",
"860 642 OFFCURVE",
"860 637 CURVE",
"788 552 OFFCURVE",
"662 233 OFFCURVE",
"662 101 CURVE SMOOTH",
"662 63 OFFCURVE",
"675 44 OFFCURVE",
"700 44 CURVE SMOOTH",
"725 44 OFFCURVE",
"749 63 OFFCURVE",
"774 100 CURVE",
"778 104 OFFCURVE",
"784 100 OFFCURVE",
"783 93 CURVE",
"747 36 OFFCURVE",
"704 0 OFFCURVE",
"667 0 CURVE SMOOTH",
"628 0 OFFCURVE",
"602 26 OFFCURVE",
"602 78 CURVE SMOOTH",
"602 145 OFFCURVE",
"621 239 OFFCURVE",
"664 346 CURVE",
"543 118 OFFCURVE",
"423 0 OFFCURVE",
"306 0 CURVE SMOOTH",
"233 0 OFFCURVE",
"190 49 OFFCURVE",
"190 125 CURVE SMOOTH",
"190 270 OFFCURVE",
"276 446 OFFCURVE",
"427 579 CURVE"
);
}
);
width = 765;
}
);
unicode = 0055;
},
{
glyphname = Uacute;
lastChange = "2017-06-09 14:51:01 +0000";
layers = (
{
layerId = UUID0;
paths = (
{
closed = 1;
nodes = (
"654 738 OFFCURVE",
"676 729 OFFCURVE",
"688 724 CURVE",
"691 721 OFFCURVE",
"693 718 OFFCURVE",
"689 715 CURVE SMOOTH",
"662 696 OFFCURVE",
"602 672 OFFCURVE",
"561 658 CURVE",
"556 658 OFFCURVE",
"556 665 OFFCURVE",
"560 669 CURVE",
"587 685 OFFCURVE",
"622 707 OFFCURVE",
"647 734 CURVE"
);
},
{
closed = 1;
nodes = (
"372 599 OFFCURVE",
"317 612 OFFCURVE",
"262 612 CURVE SMOOTH",
"100 612 OFFCURVE",
"25 456 OFFCURVE",
"55 316 CURVE",
"54 311 OFFCURVE",
"47 307 OFFCURVE",
"44 312 CURVE",
"7 479 OFFCURVE",
"110 644 OFFCURVE",
"298 644 CURVE SMOOTH",
"354 644 OFFCURVE",
"408 631 OFFCURVE",
"449 612 CURVE",
"453 609 OFFCURVE",
"452 605 OFFCURVE",
"446 600 CURVE SMOOTH",
"306 489 OFFCURVE",
"226 312 OFFCURVE",
"226 153 CURVE SMOOTH",
"226 65 OFFCURVE",
"259 35 OFFCURVE",
"310 35 CURVE SMOOTH",
"448 35 OFFCURVE",
"571 219 OFFCURVE",
"752 622 CURVE SMOOTH",
"757 633 OFFCURVE",
"777 644 OFFCURVE",
"796 644 CURVE SMOOTH",
"807 644 OFFCURVE",
"812 642 OFFCURVE",
"812 637 CURVE",
"740 553 OFFCURVE",
"615 233 OFFCURVE",
"615 101 CURVE SMOOTH",
"615 63 OFFCURVE",
"627 44 OFFCURVE",
"652 44 CURVE SMOOTH",
"677 44 OFFCURVE",
"702 63 OFFCURVE",
"726 100 CURVE",
"730 104 OFFCURVE",
"737 99 OFFCURVE",
"736 94 CURVE",
"707 50 OFFCURVE",
"659 0 OFFCURVE",
"627 0 CURVE SMOOTH",
"590 0 OFFCURVE",
"574 35 OFFCURVE",
"574 78 CURVE SMOOTH",
"574 145 OFFCURVE",
"593 239 OFFCURVE",
"636 346 CURVE",
"515 118 OFFCURVE",
"396 0 OFFCURVE",
"279 0 CURVE SMOOTH",
"215 0 OFFCURVE",
"182 45 OFFCURVE",
"182 125 CURVE SMOOTH",
"182 287 OFFCURVE",
"266 461 OFFCURVE",
"407 586 CURVE"
);
}
);
width = 717;
},
{
layerId = "A10215CB-3318-4220-A0C8-1C7678CE5CF9";
paths = (
{
closed = 1;
nodes = (
"654 738 OFFCURVE",
"676 729 OFFCURVE",
"688 724 CURVE",
"691 721 OFFCURVE",
"693 718 OFFCURVE",
"689 715 CURVE SMOOTH",
"662 696 OFFCURVE",
"602 672 OFFCURVE",
"561 658 CURVE",
"556 658 OFFCURVE",
"556 665 OFFCURVE",
"560 669 CURVE",
"587 685 OFFCURVE",
"622 707 OFFCURVE",
"647 734 CURVE"
);
},
{
closed = 1;
nodes = (
"392 592 OFFCURVE",
"337 605 OFFCURVE",
"281 605 CURVE SMOOTH",
"125 605 OFFCURVE",
"54 463 OFFCURVE",
"83 316 CURVE",
"82 311 OFFCURVE",
"75 307 OFFCURVE",
"72 312 CURVE",
"35 479 OFFCURVE",
"138 644 OFFCURVE",
"326 644 CURVE SMOOTH",
"382 644 OFFCURVE",
"436 631 OFFCURVE",
"477 612 CURVE",
"480 609 OFFCURVE",
"479 605 OFFCURVE",
"474 600 CURVE",
"334 489 OFFCURVE",
"254 312 OFFCURVE",
"254 153 CURVE SMOOTH",
"254 77 OFFCURVE",
"282 42 OFFCURVE",
"341 42 CURVE SMOOTH",
"479 42 OFFCURVE",
"599 219 OFFCURVE",
"780 622 CURVE SMOOTH",
"785 633 OFFCURVE",
"815 644 OFFCURVE",
"844 644 CURVE SMOOTH",
"855 644 OFFCURVE",
"860 642 OFFCURVE",
"860 637 CURVE",
"788 552 OFFCURVE",
"662 233 OFFCURVE",
"662 101 CURVE SMOOTH",
"662 63 OFFCURVE",
"675 44 OFFCURVE",
"700 44 CURVE SMOOTH",
"725 44 OFFCURVE",
"749 63 OFFCURVE",
"774 100 CURVE",
"778 104 OFFCURVE",
"784 100 OFFCURVE",
"783 93 CURVE",
"747 36 OFFCURVE",
"704 0 OFFCURVE",
"667 0 CURVE SMOOTH",
"628 0 OFFCURVE",
"602 26 OFFCURVE",
"602 78 CURVE SMOOTH",
"602 145 OFFCURVE",
"621 239 OFFCURVE",
"664 346 CURVE",
"543 118 OFFCURVE",
"423 0 OFFCURVE",
"306 0 CURVE SMOOTH",
"233 0 OFFCURVE",
"190 49 OFFCURVE",
"190 125 CURVE SMOOTH",
"190 270 OFFCURVE",
"276 446 OFFCURVE",
"427 579 CURVE"
);
}
);
width = 765;
}
);
unicode = 00DA;
},
{
glyphname = Ucircumflex;
lastChange = "2017-06-09 14:51:01 +0000";
layers = (
{
layerId = UUID0;
paths = (
{
closed = 1;
nodes = (
"606 749 OFFCURVE",
"610 749 OFFCURVE",
"615 745 CURVE",
"632 722 OFFCURVE",
"662 696 OFFCURVE",
"689 684 CURVE",
"696 677 OFFCURVE",
"679 668 OFFCURVE",
"663 671 CURVE",
"638 682 OFFCURVE",
"618 698 OFFCURVE",
"597 715 CURVE",
"582 702 OFFCURVE",
"541 678 OFFCURVE",
"522 670 CURVE",
"515 670 OFFCURVE",
"514 673 OFFCURVE",
"517 679 CURVE",
"540 692 OFFCURVE",
"582 721 OFFCURVE",
"603 746 CURVE SMOOTH"
);
},
{
closed = 1;
nodes = (
"372 599 OFFCURVE",
"317 612 OFFCURVE",
"262 612 CURVE SMOOTH",
"100 612 OFFCURVE",
"25 456 OFFCURVE",
"55 316 CURVE",
"54 311 OFFCURVE",
"47 307 OFFCURVE",
"44 312 CURVE",
"7 479 OFFCURVE",
"110 644 OFFCURVE",
"298 644 CURVE SMOOTH",
"354 644 OFFCURVE",
"408 631 OFFCURVE",
"449 612 CURVE",
"453 609 OFFCURVE",
"452 605 OFFCURVE",
"446 600 CURVE SMOOTH",
"306 489 OFFCURVE",
"226 312 OFFCURVE",
"226 153 CURVE SMOOTH",
"226 65 OFFCURVE",
"259 35 OFFCURVE",
"310 35 CURVE SMOOTH",
"448 35 OFFCURVE",
"571 219 OFFCURVE",
"752 622 CURVE SMOOTH",
"757 633 OFFCURVE",
"777 644 OFFCURVE",
"796 644 CURVE SMOOTH",
"807 644 OFFCURVE",
"812 642 OFFCURVE",
"812 637 CURVE",
"740 553 OFFCURVE",
"615 233 OFFCURVE",
"615 101 CURVE SMOOTH",
"615 63 OFFCURVE",
"627 44 OFFCURVE",
"652 44 CURVE SMOOTH",
"677 44 OFFCURVE",
"702 63 OFFCURVE",
"726 100 CURVE",
"730 104 OFFCURVE",
"737 99 OFFCURVE",
"736 94 CURVE",
"707 50 OFFCURVE",
"659 0 OFFCURVE",
"627 0 CURVE SMOOTH",
"590 0 OFFCURVE",
"574 35 OFFCURVE",
"574 78 CURVE SMOOTH",
"574 145 OFFCURVE",
"593 239 OFFCURVE",
"636 346 CURVE",
"515 118 OFFCURVE",
"396 0 OFFCURVE",
"279 0 CURVE SMOOTH",
"215 0 OFFCURVE",
"182 45 OFFCURVE",
"182 125 CURVE SMOOTH",
"182 287 OFFCURVE",
"266 461 OFFCURVE",
"407 586 CURVE"
);
}
);
width = 718;
},
{
layerId = "A10215CB-3318-4220-A0C8-1C7678CE5CF9";
paths = (
{
closed = 1;
nodes = (
"606 749 OFFCURVE",
"610 749 OFFCURVE",
"615 745 CURVE",
"632 722 OFFCURVE",
"662 696 OFFCURVE",
"689 684 CURVE",
"696 677 OFFCURVE",
"679 668 OFFCURVE",
"663 671 CURVE",
"638 682 OFFCURVE",
"618 698 OFFCURVE",
"597 715 CURVE",
"582 702 OFFCURVE",
"541 678 OFFCURVE",
"522 670 CURVE",
"515 670 OFFCURVE",
"514 673 OFFCURVE",
"517 679 CURVE",
"540 692 OFFCURVE",
"582 721 OFFCURVE",
"603 746 CURVE SMOOTH"
);
},
{
closed = 1;
nodes = (
"392 592 OFFCURVE",
"337 605 OFFCURVE",
"281 605 CURVE SMOOTH",
"125 605 OFFCURVE",
"54 463 OFFCURVE",
"83 316 CURVE",
"82 311 OFFCURVE",
"75 307 OFFCURVE",
"72 312 CURVE",
"35 479 OFFCURVE",
"138 644 OFFCURVE",
"326 644 CURVE SMOOTH",
"382 644 OFFCURVE",
"436 631 OFFCURVE",
"477 612 CURVE",
"480 609 OFFCURVE",
"479 605 OFFCURVE",
"474 600 CURVE",
"334 489 OFFCURVE",
"254 312 OFFCURVE",
"254 153 CURVE SMOOTH",
"254 77 OFFCURVE",
"282 42 OFFCURVE",
"341 42 CURVE SMOOTH",
"479 42 OFFCURVE",
"599 219 OFFCURVE",
"780 622 CURVE SMOOTH",
"785 633 OFFCURVE",
"815 644 OFFCURVE",
"844 644 CURVE SMOOTH",
"855 644 OFFCURVE",
"860 642 OFFCURVE",
"860 637 CURVE",
"788 552 OFFCURVE",
"662 233 OFFCURVE",
"662 101 CURVE SMOOTH",
"662 63 OFFCURVE",
"675 44 OFFCURVE",
"700 44 CURVE SMOOTH",
"725 44 OFFCURVE",
"749 63 OFFCURVE",
"774 100 CURVE",
"778 104 OFFCURVE",
"784 100 OFFCURVE",
"783 93 CURVE",
"747 36 OFFCURVE",
"704 0 OFFCURVE",
"667 0 CURVE SMOOTH",
"628 0 OFFCURVE",
"602 26 OFFCURVE",
"602 78 CURVE SMOOTH",
"602 145 OFFCURVE",
"621 239 OFFCURVE",
"664 346 CURVE",
"543 118 OFFCURVE",
"423 0 OFFCURVE",
"306 0 CURVE SMOOTH",
"233 0 OFFCURVE",
"190 49 OFFCURVE",
"190 125 CURVE SMOOTH",
"190 270 OFFCURVE",
"276 446 OFFCURVE",
"427 579 CURVE"
);
}
);
width = 765;
}
);
unicode = 00DB;
},
{
glyphname = Udieresis;
lastChange = "2017-06-09 14:51:01 +0000";
layers = (
{
layerId = UUID0;
paths = (
{
closed = 1;
nodes = (
"546 667 OFFCURVE",
"542 673 OFFCURVE",
"542 684 CURVE SMOOTH",
"542 697 OFFCURVE",
"557 721 OFFCURVE",
"578 721 CURVE SMOOTH",
"584 721 OFFCURVE",
"587 717 OFFCURVE",
"587 708 CURVE SMOOTH",
"587 689 OFFCURVE",
"572 667 OFFCURVE",
"553 667 CURVE SMOOTH"
);
},
{
closed = 1;
nodes = (
"622 667 OFFCURVE",
"618 673 OFFCURVE",
"618 684 CURVE SMOOTH",
"618 697 OFFCURVE",
"633 721 OFFCURVE",
"653 721 CURVE SMOOTH",
"659 721 OFFCURVE",
"662 717 OFFCURVE",
"662 708 CURVE SMOOTH",
"662 689 OFFCURVE",
"646 667 OFFCURVE",
"630 667 CURVE SMOOTH"
);
},
{
closed = 1;
nodes = (
"372 599 OFFCURVE",
"317 612 OFFCURVE",
"262 612 CURVE SMOOTH",
"100 612 OFFCURVE",
"25 456 OFFCURVE",
"55 316 CURVE",
"54 311 OFFCURVE",
"47 307 OFFCURVE",
"44 312 CURVE",
"7 479 OFFCURVE",
"110 644 OFFCURVE",
"298 644 CURVE SMOOTH",
"354 644 OFFCURVE",
"408 631 OFFCURVE",
"449 612 CURVE",
"453 609 OFFCURVE",
"452 605 OFFCURVE",
"446 600 CURVE SMOOTH",
"306 489 OFFCURVE",
"226 312 OFFCURVE",
"226 153 CURVE SMOOTH",
"226 65 OFFCURVE",
"259 35 OFFCURVE",
"310 35 CURVE SMOOTH",
"448 35 OFFCURVE",
"571 219 OFFCURVE",
"752 622 CURVE SMOOTH",
"757 633 OFFCURVE",
"777 644 OFFCURVE",
"796 644 CURVE SMOOTH",
"807 644 OFFCURVE",
"812 642 OFFCURVE",
"812 637 CURVE",
"740 553 OFFCURVE",
"615 233 OFFCURVE",
"615 101 CURVE SMOOTH",
"615 63 OFFCURVE",
"627 44 OFFCURVE",
"652 44 CURVE SMOOTH",
"677 44 OFFCURVE",
"702 63 OFFCURVE",
"726 100 CURVE",
"730 104 OFFCURVE",
"737 99 OFFCURVE",
"736 94 CURVE",
"707 50 OFFCURVE",
"659 0 OFFCURVE",
"627 0 CURVE SMOOTH",
"590 0 OFFCURVE",
"574 35 OFFCURVE",
"574 78 CURVE SMOOTH",
"574 145 OFFCURVE",
"593 239 OFFCURVE",
"636 346 CURVE",
"515 118 OFFCURVE",
"396 0 OFFCURVE",
"279 0 CURVE SMOOTH",
"215 0 OFFCURVE",
"182 45 OFFCURVE",
"182 125 CURVE SMOOTH",
"182 287 OFFCURVE",
"266 461 OFFCURVE",
"407 586 CURVE"
);
}
);
width = 718;
},
{
layerId = "A10215CB-3318-4220-A0C8-1C7678CE5CF9";
paths = (
{
closed = 1;
nodes = (
"566 667 OFFCURVE",
"562 673 OFFCURVE",
"562 684 CURVE SMOOTH",
"562 697 OFFCURVE",
"577 721 OFFCURVE",
"598 721 CURVE SMOOTH",
"604 721 OFFCURVE",
"607 717 OFFCURVE",
"607 708 CURVE SMOOTH",
"607 689 OFFCURVE",
"592 667 OFFCURVE",
"573 667 CURVE SMOOTH"
);
},
{
closed = 1;
nodes = (
"642 667 OFFCURVE",
"638 673 OFFCURVE",
"638 684 CURVE SMOOTH",
"638 697 OFFCURVE",
"653 721 OFFCURVE",
"673 721 CURVE SMOOTH",
"679 721 OFFCURVE",
"682 717 OFFCURVE",
"682 708 CURVE SMOOTH",
"682 689 OFFCURVE",
"666 667 OFFCURVE",
"650 667 CURVE SMOOTH"
);
},
{
closed = 1;
nodes = (
"392 592 OFFCURVE",
"337 605 OFFCURVE",
"281 605 CURVE SMOOTH",
"125 605 OFFCURVE",
"54 463 OFFCURVE",
"83 316 CURVE",
"82 311 OFFCURVE",
"75 307 OFFCURVE",
"72 312 CURVE",
"35 479 OFFCURVE",
"138 644 OFFCURVE",
"326 644 CURVE SMOOTH",
"382 644 OFFCURVE",
"436 631 OFFCURVE",
"477 612 CURVE",
"480 609 OFFCURVE",
"479 605 OFFCURVE",
"474 600 CURVE",
"334 489 OFFCURVE",
"254 312 OFFCURVE",
"254 153 CURVE SMOOTH",
"254 77 OFFCURVE",
"282 42 OFFCURVE",
"341 42 CURVE SMOOTH",
"479 42 OFFCURVE",
"599 219 OFFCURVE",
"780 622 CURVE SMOOTH",
"785 633 OFFCURVE",
"815 644 OFFCURVE",
"844 644 CURVE SMOOTH",
"855 644 OFFCURVE",
"860 642 OFFCURVE",
"860 637 CURVE",
"788 552 OFFCURVE",
"662 233 OFFCURVE",
"662 101 CURVE SMOOTH",
"662 63 OFFCURVE",
"675 44 OFFCURVE",
"700 44 CURVE SMOOTH",
"725 44 OFFCURVE",
"749 63 OFFCURVE",
"774 100 CURVE",
"778 104 OFFCURVE",
"784 100 OFFCURVE",
"783 93 CURVE",
"747 36 OFFCURVE",
"704 0 OFFCURVE",
"667 0 CURVE SMOOTH",
"628 0 OFFCURVE",
"602 26 OFFCURVE",
"602 78 CURVE SMOOTH",
"602 145 OFFCURVE",
"621 239 OFFCURVE",
"664 346 CURVE",
"543 118 OFFCURVE",
"423 0 OFFCURVE",
"306 0 CURVE SMOOTH",
"233 0 OFFCURVE",
"190 49 OFFCURVE",
"190 125 CURVE SMOOTH",
"190 270 OFFCURVE",
"276 446 OFFCURVE",
"427 579 CURVE"
);
}
);
width = 765;
}
);
unicode = 00DC;
},
{
glyphname = Ugrave;
lastChange = "2017-06-09 14:51:01 +0000";
layers = (
{
layerId = UUID0;
paths = (
{
closed = 1;
nodes = (
"651 666 OFFCURVE",
"647 660 OFFCURVE",
"640 660 CURVE",
"607 668 OFFCURVE",
"546 693 OFFCURVE",
"517 709 CURVE SMOOTH",
"514 710 OFFCURVE",
"514 714 OFFCURVE",
"517 717 CURVE SMOOTH",
"530 728 OFFCURVE",
"554 734 OFFCURVE",
"557 731 CURVE SMOOTH",
"580 712 OFFCURVE",
"612 689 OFFCURVE",
"648 669 CURVE"
);
},
{
closed = 1;
nodes = (
"372 599 OFFCURVE",
"317 612 OFFCURVE",
"262 612 CURVE SMOOTH",
"100 612 OFFCURVE",
"25 456 OFFCURVE",
"55 316 CURVE",
"54 311 OFFCURVE",
"47 307 OFFCURVE",
"44 312 CURVE",
"7 479 OFFCURVE",
"110 644 OFFCURVE",
"298 644 CURVE SMOOTH",
"354 644 OFFCURVE",
"408 631 OFFCURVE",
"449 612 CURVE",
"453 609 OFFCURVE",
"452 605 OFFCURVE",
"446 600 CURVE SMOOTH",
"306 489 OFFCURVE",
"226 312 OFFCURVE",
"226 153 CURVE SMOOTH",
"226 65 OFFCURVE",
"259 35 OFFCURVE",
"310 35 CURVE SMOOTH",
"448 35 OFFCURVE",
"571 219 OFFCURVE",
"752 622 CURVE SMOOTH",
"757 633 OFFCURVE",
"777 644 OFFCURVE",
"796 644 CURVE SMOOTH",
"807 644 OFFCURVE",
"812 642 OFFCURVE",
"812 637 CURVE",
"740 553 OFFCURVE",
"615 233 OFFCURVE",
"615 101 CURVE SMOOTH",
"615 63 OFFCURVE",
"627 44 OFFCURVE",
"652 44 CURVE SMOOTH",
"677 44 OFFCURVE",
"702 63 OFFCURVE",
"726 100 CURVE",
"730 104 OFFCURVE",
"737 99 OFFCURVE",
"736 94 CURVE",
"707 50 OFFCURVE",
"659 0 OFFCURVE",
"627 0 CURVE SMOOTH",
"590 0 OFFCURVE",
"574 35 OFFCURVE",
"574 78 CURVE SMOOTH",
"574 145 OFFCURVE",
"593 239 OFFCURVE",
"636 346 CURVE",
"515 118 OFFCURVE",
"396 0 OFFCURVE",
"279 0 CURVE SMOOTH",
"215 0 OFFCURVE",
"182 45 OFFCURVE",
"182 125 CURVE SMOOTH",
"182 287 OFFCURVE",
"266 461 OFFCURVE",
"407 586 CURVE"
);
}
);
width = 717;
},
{
layerId = "A10215CB-3318-4220-A0C8-1C7678CE5CF9";
paths = (
{
closed = 1;
nodes = (
"695 666 OFFCURVE",
"691 660 OFFCURVE",
"684 660 CURVE",
"651 668 OFFCURVE",
"590 693 OFFCURVE",
"561 709 CURVE SMOOTH",
"558 710 OFFCURVE",
"558 714 OFFCURVE",
"561 717 CURVE SMOOTH",
"574 728 OFFCURVE",
"598 734 OFFCURVE",
"601 731 CURVE SMOOTH",
"624 712 OFFCURVE",
"656 689 OFFCURVE",
"692 669 CURVE"
);
},
{
closed = 1;
nodes = (
"392 592 OFFCURVE",
"337 605 OFFCURVE",
"281 605 CURVE SMOOTH",
"125 605 OFFCURVE",
"54 463 OFFCURVE",
"83 316 CURVE",
"82 311 OFFCURVE",
"75 307 OFFCURVE",
"72 312 CURVE",
"35 479 OFFCURVE",
"138 644 OFFCURVE",
"326 644 CURVE SMOOTH",
"382 644 OFFCURVE",
"436 631 OFFCURVE",
"477 612 CURVE",
"480 609 OFFCURVE",
"479 605 OFFCURVE",
"474 600 CURVE",
"334 489 OFFCURVE",
"254 312 OFFCURVE",
"254 153 CURVE SMOOTH",
"254 77 OFFCURVE",
"282 42 OFFCURVE",
"341 42 CURVE SMOOTH",
"479 42 OFFCURVE",
"599 219 OFFCURVE",
"780 622 CURVE SMOOTH",
"785 633 OFFCURVE",
"815 644 OFFCURVE",
"844 644 CURVE SMOOTH",
"855 644 OFFCURVE",
"860 642 OFFCURVE",
"860 637 CURVE",
"788 552 OFFCURVE",
"662 233 OFFCURVE",
"662 101 CURVE SMOOTH",
"662 63 OFFCURVE",
"675 44 OFFCURVE",
"700 44 CURVE SMOOTH",
"725 44 OFFCURVE",
"749 63 OFFCURVE",
"774 100 CURVE",
"778 104 OFFCURVE",
"784 100 OFFCURVE",
"783 93 CURVE",
"747 36 OFFCURVE",
"704 0 OFFCURVE",
"667 0 CURVE SMOOTH",
"628 0 OFFCURVE",
"602 26 OFFCURVE",
"602 78 CURVE SMOOTH",
"602 145 OFFCURVE",
"621 239 OFFCURVE",
"664 346 CURVE",
"543 118 OFFCURVE",
"423 0 OFFCURVE",
"306 0 CURVE SMOOTH",
"233 0 OFFCURVE",
"190 49 OFFCURVE",
"190 125 CURVE SMOOTH",
"190 270 OFFCURVE",
"276 446 OFFCURVE",
"427 579 CURVE"
);
}
);
width = 765;
}
);
unicode = 00D9;
},
{
glyphname = V;
lastChange = "2017-06-09 14:51:01 +0000";
layers = (
{
layerId = UUID0;
paths = (
{
closed = 1;
nodes = (
"751 320 OFFCURVE",
"559 188 OFFCURVE",
"367 -1 CURVE",
"349 -1 OFFCURVE",
"361 21 OFFCURVE",
"369 39 CURVE SMOOTH",
"458 253 OFFCURVE",
"450 612 OFFCURVE",
"263 612 CURVE SMOOTH",
"172 612 OFFCURVE",
"119 534 OFFCURVE",
"80 387 CURVE",
"77 382 OFFCURVE",
"70 384 OFFCURVE",
"70 389 CURVE",
"109 556 OFFCURVE",
"180 644 OFFCURVE",
"280 644 CURVE SMOOTH",
"465 644 OFFCURVE",
"492 353 OFFCURVE",
"416 73 CURVE",
"604 228 OFFCURVE",
"715 337 OFFCURVE",
"715 492 CURVE SMOOTH",
"715 559 OFFCURVE",
"681 599 OFFCURVE",
"634 602 CURVE SMOOTH",
"615 603 OFFCURVE",
"599 589 OFFCURVE",
"586 562 CURVE",
"582 559 OFFCURVE",
"577 562 OFFCURVE",
"577 569 CURVE",
"590 606 OFFCURVE",
"631 644 OFFCURVE",
"652 644 CURVE SMOOTH",
"708 644 OFFCURVE",
"751 593 OFFCURVE",
"751 526 CURVE SMOOTH"
);
}
);
width = 661;
},
{
layerId = "A10215CB-3318-4220-A0C8-1C7678CE5CF9";
paths = (
{
closed = 1;
nodes = (
"789 320 OFFCURVE",
"581 188 OFFCURVE",
"386 -1 CURVE",
"374 -1 OFFCURVE",
"371 9 OFFCURVE",
"377 30 CURVE",
"453 262 OFFCURVE",
"451 604 OFFCURVE",
"264 604 CURVE SMOOTH",
"173 604 OFFCURVE",
"117 534 OFFCURVE",
"80 387 CURVE",
"77 382 OFFCURVE",
"70 384 OFFCURVE",
"70 389 CURVE",
"105 538 OFFCURVE",
"171 644 OFFCURVE",
"299 644 CURVE SMOOTH",
"484 644 OFFCURVE",
"511 353 OFFCURVE",
"435 73 CURVE",
"623 228 OFFCURVE",
"734 337 OFFCURVE",
"734 492 CURVE SMOOTH",
"734 555 OFFCURVE",
"704 597 OFFCURVE",
"665 597 CURVE SMOOTH",
"641 597 OFFCURVE",
"629 586 OFFCURVE",
"618 562 CURVE",
"611 559 OFFCURVE",
"608 562 OFFCURVE",
"608 569 CURVE",
"621 606 OFFCURVE",
"661 644 OFFCURVE",
"684 644 CURVE SMOOTH",
"748 644 OFFCURVE",
"789 586 OFFCURVE",
"789 526 CURVE SMOOTH"
);
}
);
width = 694;
}
);
unicode = 0056;
},
{
glyphname = W;
lastChange = "2017-06-09 14:51:01 +0000";
layers = (
{
layerId = UUID0;
paths = (
{
closed = 1;
nodes = (
"588 189 OFFCURVE",
"534 401 OFFCURVE",
"576 477 CURVE",
"478 336 OFFCURVE",
"421 240 OFFCURVE",
"346 68 CURVE SMOOTH",
"326 21 OFFCURVE",
"325 0 OFFCURVE",
"313 0 CURVE SMOOTH",
"302 0 OFFCURVE",
"299 8 OFFCURVE",
"308 35 CURVE",
"444 392 OFFCURVE",
"387 613 OFFCURVE",
"242 613 CURVE SMOOTH",
"143 613 OFFCURVE",
"83 528 OFFCURVE",
"83 412 CURVE",
"80 404 OFFCURVE",
"72 402 OFFCURVE",
"72 409 CURVE SMOOTH",
"67 537 OFFCURVE",
"149 649 OFFCURVE",
"275 649 CURVE SMOOTH",
"440 649 OFFCURVE",
"442 380 OFFCURVE",
"353 118 CURVE",
"425 284 OFFCURVE",
"554 497 OFFCURVE",
"665 597 CURVE",
"674 600 OFFCURVE",
"678 578 OFFCURVE",
"671 568 CURVE",
"652 556 OFFCURVE",
"642 547 OFFCURVE",
"627 528 CURVE SMOOTH",
"559 439 OFFCURVE",
"629 199 OFFCURVE",
"613 60 CURVE",
"714 212 OFFCURVE",
"897 330 OFFCURVE",
"897 529 CURVE SMOOTH",
"897 572 OFFCURVE",
"885 602 OFFCURVE",
"862 605 CURVE",
"846 606 OFFCURVE",
"834 586 OFFCURVE",
"825 566 CURVE",
"818 563 OFFCURVE",
"815 566 OFFCURVE",
"815 573 CURVE",
"830 610 OFFCURVE",
"856 644 OFFCURVE",
"879 644 CURVE SMOOTH",
"911 644 OFFCURVE",
"932 607 OFFCURVE",
"932 562 CURVE SMOOTH",
"932 325 OFFCURVE",
"723 215 OFFCURVE",
"611 27 CURVE",
"600 11 OFFCURVE",
"593 0 OFFCURVE",
"582 0 CURVE SMOOTH",
"568 0 OFFCURVE",
"577 18 OFFCURVE",
"577 35 CURVE"
);
}
);
width = 822;
},
{
layerId = "A10215CB-3318-4220-A0C8-1C7678CE5CF9";
paths = (
{
closed = 1;
nodes = (
"587 188 OFFCURVE",
"533 400 OFFCURVE",
"575 476 CURVE",
"485 351 OFFCURVE",
"420 238 OFFCURVE",
"345 67 CURVE SMOOTH",
"325 20 OFFCURVE",
"324 0 OFFCURVE",
"312 0 CURVE SMOOTH",
"301 0 OFFCURVE",
"296 9 OFFCURVE",
"307 34 CURVE",
"420 316 OFFCURVE",
"394 603 OFFCURVE",
"236 603 CURVE SMOOTH",
"136 603 OFFCURVE",
"82 511 OFFCURVE",
"82 411 CURVE",
"79 403 OFFCURVE",
"71 401 OFFCURVE",
"71 408 CURVE SMOOTH",
"66 536 OFFCURVE",
"147 648 OFFCURVE",
"274 648 CURVE SMOOTH",
"438 648 OFFCURVE",
"463 424 OFFCURVE",
"372 163 CURVE",
"444 315 OFFCURVE",
"551 491 OFFCURVE",
"664 596 CURVE",
"671 599 OFFCURVE",
"676 580 OFFCURVE",
"671 572 CURVE",
"660 567 OFFCURVE",
"651 560 OFFCURVE",
"643 550 CURVE SMOOTH",
"575 462 OFFCURVE",
"644 222 OFFCURVE",
"628 83 CURVE",
"728 227 OFFCURVE",
"915 328 OFFCURVE",
"915 528 CURVE SMOOTH",
"915 572 OFFCURVE",
"902 599 OFFCURVE",
"879 599 CURVE SMOOTH",
"863 599 OFFCURVE",
"853 580 OFFCURVE",
"842 560 CURVE",
"838 557 OFFCURVE",
"833 560 OFFCURVE",
"833 567 CURVE",
"848 607 OFFCURVE",
"878 643 OFFCURVE",
"905 643 CURVE SMOOTH",
"949 643 OFFCURVE",
"971 604 OFFCURVE",
"971 553 CURVE SMOOTH",
"971 321 OFFCURVE",
"730 230 OFFCURVE",
"610 26 CURVE",
"599 10 OFFCURVE",
"592 0 OFFCURVE",
"581 0 CURVE SMOOTH",
"567 0 OFFCURVE",
"576 18 OFFCURVE",
"576 34 CURVE"
);
}
);
width = 845;
}
);
unicode = 0057;
},
{
glyphname = X;
lastChange = "2017-06-09 14:51:01 +0000";
layers = (
{
layerId = UUID0;
paths = (
{
closed = 1;
nodes = (
"833 645 OFFCURVE",
"846 627 OFFCURVE",
"846 590 CURVE SMOOTH",
"846 559 OFFCURVE",
"834 516 OFFCURVE",
"819 491 CURVE",
"814 488 OFFCURVE",
"807 491 OFFCURVE",
"808 498 CURVE",
"815 514 OFFCURVE",
"818 529 OFFCURVE",
"818 544 CURVE SMOOTH",
"818 579 OFFCURVE",
"805 597 OFFCURVE",
"768 597 CURVE SMOOTH",
"675 597 OFFCURVE",
"568 487 OFFCURVE",
"499 340 CURVE",
"539 156 OFFCURVE",
"615 43 OFFCURVE",
"715 43 CURVE SMOOTH",
"750 43 OFFCURVE",
"779 63 OFFCURVE",
"800 115 CURVE",
"804 120 OFFCURVE",
"810 116 OFFCURVE",
"810 107 CURVE",
"775 27 OFFCURVE",
"742 1 OFFCURVE",
"695 1 CURVE SMOOTH",
"578 1 OFFCURVE",
"506 143 OFFCURVE",
"471 301 CURVE",
"471 302 LINE",
"367 102 OFFCURVE",
"249 1 OFFCURVE",
"141 1 CURVE SMOOTH",
"85 1 OFFCURVE",
"50 27 OFFCURVE",
"50 58 CURVE SMOOTH",
"50 81 OFFCURVE",
"74 138 OFFCURVE",
"106 186 CURVE",
"110 190 OFFCURVE",
"120 186 OFFCURVE",
"117 178 CURVE",
"96 147 OFFCURVE",
"89 120 OFFCURVE",
"93 92 CURVE SMOOTH",
"97 61 OFFCURVE",
"121 43 OFFCURVE",
"168 43 CURVE SMOOTH",
"285 43 OFFCURVE",
"382 158 OFFCURVE",
"467 323 CURVE",
"432 492 OFFCURVE",
"435 597 OFFCURVE",
"389 597 CURVE SMOOTH",
"362 597 OFFCURVE",
"336 562 OFFCURVE",
"311 514 CURVE",
"304 507 OFFCURVE",
"296 512 OFFCURVE",
"299 520 CURVE SMOOTH",
"328 584 OFFCURVE",
"383 645 OFFCURVE",
"413 645 CURVE SMOOTH",
"473 645 OFFCURVE",
"467 498 OFFCURVE",
"494 364 CURVE",
"569 528 OFFCURVE",
"694 645 OFFCURVE",
"814 645 CURVE SMOOTH"
);
}
);
width = 813;
},
{
layerId = "A10215CB-3318-4220-A0C8-1C7678CE5CF9";
paths = (
{
closed = 1;
nodes = (
"836 644 OFFCURVE",
"851 626 OFFCURVE",
"851 590 CURVE SMOOTH",
"851 558 OFFCURVE",
"835 510 OFFCURVE",
"814 479 CURVE",
"809 475 OFFCURVE",
"803 479 OFFCURVE",
"803 486 CURVE",
"810 502 OFFCURVE",
"813 517 OFFCURVE",
"813 532 CURVE SMOOTH",
"813 567 OFFCURVE",
"800 585 OFFCURVE",
"764 585 CURVE SMOOTH",
"673 585 OFFCURVE",
"574 490 OFFCURVE",
"505 354 CURVE",
"548 167 OFFCURVE",
"618 52 OFFCURVE",
"720 52 CURVE SMOOTH",
"759 52 OFFCURVE",
"784 76 OFFCURVE",
"800 115 CURVE",
"804 119 OFFCURVE",
"810 115 OFFCURVE",
"810 106 CURVE",
"774 26 OFFCURVE",
"741 0 OFFCURVE",
"694 0 CURVE SMOOTH",
"580 0 OFFCURVE",
"499 129 OFFCURVE",
"464 284 CURVE",
"364 95 OFFCURVE",
"246 0 OFFCURVE",
"131 0 CURVE SMOOTH",
"80 0 OFFCURVE",
"50 23 OFFCURVE",
"50 58 CURVE SMOOTH",
"50 84 OFFCURVE",
"74 151 OFFCURVE",
"111 196 CURVE SMOOTH",
"115 201 OFFCURVE",
"125 197 OFFCURVE",
"122 189 CURVE",
"101 158 OFFCURVE",
"94 131 OFFCURVE",
"98 103 CURVE SMOOTH",
"102 72 OFFCURVE",
"126 54 OFFCURVE",
"173 54 CURVE SMOOTH",
"285 54 OFFCURVE",
"376 151 OFFCURVE",
"459 308 CURVE",
"422 480 OFFCURVE",
"426 584 OFFCURVE",
"381 584 CURVE SMOOTH",
"354 584 OFFCURVE",
"329 550 OFFCURVE",
"310 513 CURVE",
"303 506 OFFCURVE",
"297 511 OFFCURVE",
"298 520 CURVE",
"327 583 OFFCURVE",
"382 644 OFFCURVE",
"413 644 CURVE SMOOTH",
"482 644 OFFCURVE",
"473 508 OFFCURVE",
"500 377 CURVE",
"575 534 OFFCURVE",
"697 644 OFFCURVE",
"813 644 CURVE SMOOTH"
);
}
);
width = 813;
}
);
unicode = 0058;
},
{
glyphname = Y;
lastChange = "2017-06-09 14:51:01 +0000";
layers = (
{
layerId = UUID0;
paths = (
{
closed = 1;
nodes = (
"474 644 OFFCURVE",
"487 599 OFFCURVE",
"444 468 CURVE SMOOTH",
"417 387 OFFCURVE",
"395 325 OFFCURVE",
"384 258 CURVE",
"376 201 OFFCURVE",
"389 171 OFFCURVE",
"441 171 CURVE SMOOTH",
"557 171 OFFCURVE",
"678 325 OFFCURVE",
"829 628 CURVE",
"842 639 OFFCURVE",
"853 644 OFFCURVE",
"863 644 CURVE SMOOTH",
"870 644 OFFCURVE",
"873 639 OFFCURVE",
"871 630 CURVE",
"596 45 OFFCURVE",
"421 -128 OFFCURVE",
"183 -128 CURVE SMOOTH",
"70 -128 OFFCURVE",
"7 -47 OFFCURVE",
"7 46 CURVE SMOOTH",
"7 147 OFFCURVE",
"79 243 OFFCURVE",
"219 259 CURVE",
"226 258 OFFCURVE",
"225 252 OFFCURVE",
"218 245 CURVE",
"95 229 OFFCURVE",
"46 159 OFFCURVE",
"46 71 CURVE SMOOTH",
"46 -30 OFFCURVE",
"105 -94 OFFCURVE",
"221 -94 CURVE SMOOTH",
"393 -94 OFFCURVE",
"522 14 OFFCURVE",
"688 351 CURVE",
"613 228 OFFCURVE",
"498 134 OFFCURVE",
"418 134 CURVE SMOOTH",
"358 134 OFFCURVE",
"334 171 OFFCURVE",
"343 232 CURVE SMOOTH",
"354 305 OFFCURVE",
"379 380 OFFCURVE",
"400 448 CURVE SMOOTH",
"443 581 OFFCURVE",
"435 614 OFFCURVE",
"401 614 CURVE SMOOTH",
"370 614 OFFCURVE",
"328 580 OFFCURVE",
"312 551 CURVE",
"307 546 OFFCURVE",
"301 552 OFFCURVE",
"302 559 CURVE",
"321 589 OFFCURVE",
"376 644 OFFCURVE",
"427 644 CURVE SMOOTH"
);
}
);
width = 662;
},
{
layerId = "A10215CB-3318-4220-A0C8-1C7678CE5CF9";
paths = (
{
closed = 1;
nodes = (
"490 644 OFFCURVE",
"507 600 OFFCURVE",
"464 469 CURVE SMOOTH",
"437 386 OFFCURVE",
"415 325 OFFCURVE",
"404 258 CURVE",
"396 201 OFFCURVE",
"409 171 OFFCURVE",
"461 171 CURVE SMOOTH",
"577 171 OFFCURVE",
"698 327 OFFCURVE",
"849 628 CURVE",
"864 641 OFFCURVE",
"885 644 OFFCURVE",
"902 644 CURVE SMOOTH",
"910 644 OFFCURVE",
"913 641 OFFCURVE",
"912 634 CURVE",
"637 47 OFFCURVE",
"439 -128 OFFCURVE",
"203 -128 CURVE SMOOTH",
"78 -128 OFFCURVE",
"7 -57 OFFCURVE",
"7 44 CURVE SMOOTH",
"7 145 OFFCURVE",
"91 243 OFFCURVE",
"239 259 CURVE",
"246 258 OFFCURVE",
"245 252 OFFCURVE",
"238 245 CURVE",
"116 229 OFFCURVE",
"66 161 OFFCURVE",
"66 71 CURVE SMOOTH",
"66 -30 OFFCURVE",
"129 -92 OFFCURVE",
"245 -92 CURVE SMOOTH",
"417 -92 OFFCURVE",
"543 15 OFFCURVE",
"708 351 CURVE",
"633 228 OFFCURVE",
"526 134 OFFCURVE",
"427 134 CURVE SMOOTH",
"363 134 OFFCURVE",
"335 169 OFFCURVE",
"343 232 CURVE",
"354 305 OFFCURVE",
"379 380 OFFCURVE",
"400 448 CURVE SMOOTH",
"443 581 OFFCURVE",
"432 604 OFFCURVE",
"400 604 CURVE SMOOTH",
"369 604 OFFCURVE",
"340 575 OFFCURVE",
"325 551 CURVE",
"320 547 OFFCURVE",
"314 552 OFFCURVE",
"315 559 CURVE",
"340 603 OFFCURVE",
"394 644 OFFCURVE",
"444 644 CURVE SMOOTH"
);
}
);
width = 700;
}
);
unicode = 0059;
},
{
glyphname = Yacute;
lastChange = "2017-06-09 14:51:01 +0000";
layers = (
{
layerId = UUID0;
paths = (
{
closed = 1;
nodes = (
"695 738 OFFCURVE",
"717 729 OFFCURVE",
"729 724 CURVE",
"732 721 OFFCURVE",
"734 718 OFFCURVE",
"730 715 CURVE SMOOTH",
"703 696 OFFCURVE",
"643 672 OFFCURVE",
"602 658 CURVE",
"597 658 OFFCURVE",
"597 665 OFFCURVE",
"601 669 CURVE",
"628 685 OFFCURVE",
"663 707 OFFCURVE",
"688 734 CURVE"
);
},
{
closed = 1;
nodes = (
"474 644 OFFCURVE",
"487 599 OFFCURVE",
"444 468 CURVE SMOOTH",
"417 387 OFFCURVE",
"395 325 OFFCURVE",
"384 258 CURVE",
"376 201 OFFCURVE",
"389 171 OFFCURVE",
"441 171 CURVE SMOOTH",
"557 171 OFFCURVE",
"678 325 OFFCURVE",
"829 628 CURVE",
"842 639 OFFCURVE",
"853 644 OFFCURVE",
"863 644 CURVE SMOOTH",
"870 644 OFFCURVE",
"873 639 OFFCURVE",
"871 630 CURVE",
"596 45 OFFCURVE",
"421 -128 OFFCURVE",
"183 -128 CURVE SMOOTH",
"70 -128 OFFCURVE",
"7 -47 OFFCURVE",
"7 46 CURVE SMOOTH",
"7 147 OFFCURVE",
"79 243 OFFCURVE",
"219 259 CURVE",
"226 258 OFFCURVE",
"225 252 OFFCURVE",
"218 245 CURVE",
"95 229 OFFCURVE",
"46 159 OFFCURVE",
"46 71 CURVE SMOOTH",
"46 -30 OFFCURVE",
"105 -94 OFFCURVE",
"221 -94 CURVE SMOOTH",
"393 -94 OFFCURVE",
"522 14 OFFCURVE",
"688 351 CURVE",
"613 228 OFFCURVE",
"498 134 OFFCURVE",
"418 134 CURVE SMOOTH",
"358 134 OFFCURVE",
"334 171 OFFCURVE",
"343 232 CURVE SMOOTH",
"354 305 OFFCURVE",
"379 380 OFFCURVE",
"400 448 CURVE SMOOTH",
"443 581 OFFCURVE",
"435 614 OFFCURVE",
"401 614 CURVE SMOOTH",
"370 614 OFFCURVE",
"328 580 OFFCURVE",
"312 551 CURVE",
"307 546 OFFCURVE",
"301 552 OFFCURVE",
"302 559 CURVE",
"321 589 OFFCURVE",
"376 644 OFFCURVE",
"427 644 CURVE SMOOTH"
);
}
);
width = 662;
},
{
layerId = "A10215CB-3318-4220-A0C8-1C7678CE5CF9";
paths = (
{
closed = 1;
nodes = (
"704 738 OFFCURVE",
"726 729 OFFCURVE",
"738 724 CURVE",
"741 721 OFFCURVE",
"743 718 OFFCURVE",
"739 715 CURVE SMOOTH",
"712 696 OFFCURVE",
"652 672 OFFCURVE",
"611 658 CURVE",
"606 658 OFFCURVE",
"606 665 OFFCURVE",
"610 669 CURVE",
"637 685 OFFCURVE",
"672 707 OFFCURVE",
"697 734 CURVE"
);
},
{
closed = 1;
nodes = (
"490 644 OFFCURVE",
"507 600 OFFCURVE",
"464 469 CURVE SMOOTH",
"437 386 OFFCURVE",
"415 325 OFFCURVE",
"404 258 CURVE",
"396 201 OFFCURVE",
"409 171 OFFCURVE",
"461 171 CURVE SMOOTH",
"577 171 OFFCURVE",
"698 327 OFFCURVE",
"849 628 CURVE",
"864 641 OFFCURVE",
"885 644 OFFCURVE",
"902 644 CURVE SMOOTH",
"910 644 OFFCURVE",
"913 641 OFFCURVE",
"912 634 CURVE",
"637 47 OFFCURVE",
"439 -128 OFFCURVE",
"203 -128 CURVE SMOOTH",
"78 -128 OFFCURVE",
"7 -57 OFFCURVE",
"7 44 CURVE SMOOTH",
"7 145 OFFCURVE",
"91 243 OFFCURVE",
"239 259 CURVE",
"246 258 OFFCURVE",
"245 252 OFFCURVE",
"238 245 CURVE",
"116 229 OFFCURVE",
"66 161 OFFCURVE",
"66 71 CURVE SMOOTH",
"66 -30 OFFCURVE",
"129 -92 OFFCURVE",
"245 -92 CURVE SMOOTH",
"417 -92 OFFCURVE",
"543 15 OFFCURVE",
"708 351 CURVE",
"633 228 OFFCURVE",
"526 134 OFFCURVE",
"427 134 CURVE SMOOTH",
"363 134 OFFCURVE",
"335 169 OFFCURVE",
"343 232 CURVE",
"354 305 OFFCURVE",
"379 380 OFFCURVE",
"400 448 CURVE SMOOTH",
"443 581 OFFCURVE",
"432 604 OFFCURVE",
"400 604 CURVE SMOOTH",
"369 604 OFFCURVE",
"340 575 OFFCURVE",
"325 551 CURVE",
"320 547 OFFCURVE",
"314 552 OFFCURVE",
"315 559 CURVE",
"340 603 OFFCURVE",
"394 644 OFFCURVE",
"444 644 CURVE SMOOTH"
);
}
);
width = 700;
}
);
unicode = 00DD;
},
{
glyphname = Ydieresis;
lastChange = "2017-06-09 14:51:01 +0000";
layers = (
{
layerId = UUID0;
paths = (
{
closed = 1;
nodes = (
"584 667 OFFCURVE",
"580 673 OFFCURVE",
"580 684 CURVE SMOOTH",
"580 697 OFFCURVE",
"595 721 OFFCURVE",
"616 721 CURVE SMOOTH",
"622 721 OFFCURVE",
"625 717 OFFCURVE",
"625 708 CURVE SMOOTH",
"625 689 OFFCURVE",
"610 667 OFFCURVE",
"591 667 CURVE SMOOTH"
);
},
{
closed = 1;
nodes = (
"660 667 OFFCURVE",
"656 673 OFFCURVE",
"656 684 CURVE SMOOTH",
"656 697 OFFCURVE",
"671 721 OFFCURVE",
"691 721 CURVE SMOOTH",
"697 721 OFFCURVE",
"700 717 OFFCURVE",
"700 708 CURVE SMOOTH",
"700 689 OFFCURVE",
"684 667 OFFCURVE",
"668 667 CURVE SMOOTH"
);
},
{
closed = 1;
nodes = (
"474 644 OFFCURVE",
"487 599 OFFCURVE",
"444 468 CURVE SMOOTH",
"417 387 OFFCURVE",
"395 325 OFFCURVE",
"384 258 CURVE",
"376 201 OFFCURVE",
"389 171 OFFCURVE",
"441 171 CURVE SMOOTH",
"557 171 OFFCURVE",
"678 325 OFFCURVE",
"829 628 CURVE",
"842 639 OFFCURVE",
"853 644 OFFCURVE",
"863 644 CURVE SMOOTH",
"870 644 OFFCURVE",
"873 639 OFFCURVE",
"871 630 CURVE",
"596 45 OFFCURVE",
"421 -128 OFFCURVE",
"183 -128 CURVE SMOOTH",
"70 -128 OFFCURVE",
"7 -47 OFFCURVE",
"7 46 CURVE SMOOTH",
"7 147 OFFCURVE",
"79 243 OFFCURVE",
"219 259 CURVE",
"226 258 OFFCURVE",
"225 252 OFFCURVE",
"218 245 CURVE",
"95 229 OFFCURVE",
"46 159 OFFCURVE",
"46 71 CURVE SMOOTH",
"46 -30 OFFCURVE",
"105 -94 OFFCURVE",
"221 -94 CURVE SMOOTH",
"393 -94 OFFCURVE",
"522 14 OFFCURVE",
"688 351 CURVE",
"613 228 OFFCURVE",
"498 134 OFFCURVE",
"418 134 CURVE SMOOTH",
"358 134 OFFCURVE",
"334 171 OFFCURVE",
"343 232 CURVE SMOOTH",
"354 305 OFFCURVE",
"379 380 OFFCURVE",
"400 448 CURVE SMOOTH",
"443 581 OFFCURVE",
"435 614 OFFCURVE",
"401 614 CURVE SMOOTH",
"370 614 OFFCURVE",
"328 580 OFFCURVE",
"312 551 CURVE",
"307 546 OFFCURVE",
"301 552 OFFCURVE",
"302 559 CURVE",
"321 589 OFFCURVE",
"376 644 OFFCURVE",
"427 644 CURVE SMOOTH"
);
}
);
width = 662;
},
{
layerId = "A10215CB-3318-4220-A0C8-1C7678CE5CF9";
paths = (
{
closed = 1;
nodes = (
"612 667 OFFCURVE",
"608 673 OFFCURVE",
"608 684 CURVE SMOOTH",
"608 697 OFFCURVE",
"623 721 OFFCURVE",
"644 721 CURVE SMOOTH",
"650 721 OFFCURVE",
"653 717 OFFCURVE",
"653 708 CURVE SMOOTH",
"653 689 OFFCURVE",
"638 667 OFFCURVE",
"619 667 CURVE SMOOTH"
);
},
{
closed = 1;
nodes = (
"688 667 OFFCURVE",
"684 673 OFFCURVE",
"684 684 CURVE SMOOTH",
"684 697 OFFCURVE",
"699 721 OFFCURVE",
"719 721 CURVE SMOOTH",
"725 721 OFFCURVE",
"728 717 OFFCURVE",
"728 708 CURVE SMOOTH",
"728 689 OFFCURVE",
"712 667 OFFCURVE",
"696 667 CURVE SMOOTH"
);
},
{
closed = 1;
nodes = (
"490 644 OFFCURVE",
"507 600 OFFCURVE",
"464 469 CURVE SMOOTH",
"437 386 OFFCURVE",
"415 325 OFFCURVE",
"404 258 CURVE",
"396 201 OFFCURVE",
"409 171 OFFCURVE",
"461 171 CURVE SMOOTH",
"577 171 OFFCURVE",
"698 327 OFFCURVE",
"849 628 CURVE",
"864 641 OFFCURVE",
"885 644 OFFCURVE",
"902 644 CURVE SMOOTH",
"910 644 OFFCURVE",
"913 641 OFFCURVE",
"912 634 CURVE",
"637 47 OFFCURVE",
"439 -128 OFFCURVE",
"203 -128 CURVE SMOOTH",
"78 -128 OFFCURVE",
"7 -57 OFFCURVE",
"7 44 CURVE SMOOTH",
"7 145 OFFCURVE",
"91 243 OFFCURVE",
"239 259 CURVE",
"246 258 OFFCURVE",
"245 252 OFFCURVE",
"238 245 CURVE",
"116 229 OFFCURVE",
"66 161 OFFCURVE",
"66 71 CURVE SMOOTH",
"66 -30 OFFCURVE",
"129 -92 OFFCURVE",
"245 -92 CURVE SMOOTH",
"417 -92 OFFCURVE",
"543 15 OFFCURVE",
"708 351 CURVE",
"633 228 OFFCURVE",
"526 134 OFFCURVE",
"427 134 CURVE SMOOTH",
"363 134 OFFCURVE",
"335 169 OFFCURVE",
"343 232 CURVE",
"354 305 OFFCURVE",
"379 380 OFFCURVE",
"400 448 CURVE SMOOTH",
"443 581 OFFCURVE",
"432 604 OFFCURVE",
"400 604 CURVE SMOOTH",
"369 604 OFFCURVE",
"340 575 OFFCURVE",
"325 551 CURVE",
"320 547 OFFCURVE",
"314 552 OFFCURVE",
"315 559 CURVE",
"340 603 OFFCURVE",
"394 644 OFFCURVE",
"444 644 CURVE SMOOTH"
);
}
);
width = 700;
}
);
unicode = 0178;
},
{
glyphname = Z;
lastChange = "2017-06-09 14:51:01 +0000";
layers = (
{
layerId = UUID0;
paths = (
{
closed = 1;
nodes = (
"502 644 OFFCURVE",
"552 629 OFFCURVE",
"620 608 CURVE SMOOTH",
"653 597 OFFCURVE",
"664 598 OFFCURVE",
"683 614 CURVE",
"688 617 OFFCURVE",
"696 619 OFFCURVE",
"707 619 CURVE SMOOTH",
"713 619 OFFCURVE",
"715 616 OFFCURVE",
"714 611 CURVE",
"546 456 OFFCURVE",
"326 248 OFFCURVE",
"145 77 CURVE",
"210 82 OFFCURVE",
"269 35 OFFCURVE",
"419 35 CURVE SMOOTH",
"512 35 OFFCURVE",
"567 72 OFFCURVE",
"608 167 CURVE",
"613 170 OFFCURVE",
"623 166 OFFCURVE",
"620 159 CURVE SMOOTH",
"566 46 OFFCURVE",
"507 -8 OFFCURVE",
"385 -8 CURVE SMOOTH",
"288 -8 OFFCURVE",
"238 14 OFFCURVE",
"172 33 CURVE SMOOTH",
"131 45 OFFCURVE",
"107 39 OFFCURVE",
"70 0 CURVE",
"62 -3 OFFCURVE",
"47 7 OFFCURVE",
"51 14 CURVE",
"278 227 OFFCURVE",
"429 371 OFFCURVE",
"638 569 CURVE",
"569 588 OFFCURVE",
"494 603 OFFCURVE",
"414 603 CURVE SMOOTH",
"323 603 OFFCURVE",
"282 550 OFFCURVE",
"269 467 CURVE",
"265 462 OFFCURVE",
"257 464 OFFCURVE",
"257 471 CURVE",
"276 573 OFFCURVE",
"320 644 OFFCURVE",
"435 644 CURVE SMOOTH"
);
}
);
width = 625;
},
{
layerId = "A10215CB-3318-4220-A0C8-1C7678CE5CF9";
paths = (
{
closed = 1;
nodes = (
"503 644 OFFCURVE",
"553 630 OFFCURVE",
"621 609 CURVE SMOOTH",
"654 598 OFFCURVE",
"665 598 OFFCURVE",
"684 614 CURVE SMOOTH",
"687 617 OFFCURVE",
"695 619 OFFCURVE",
"708 619 CURVE SMOOTH",
"714 619 OFFCURVE",
"716 617 OFFCURVE",
"714 612 CURVE",
"547 456 OFFCURVE",
"343 266 OFFCURVE",
"164 95 CURVE",
"228 100 OFFCURVE",
"287 52 OFFCURVE",
"437 52 CURVE SMOOTH",
"529 52 OFFCURVE",
"576 91 OFFCURVE",
"609 168 CURVE",
"613 171 OFFCURVE",
"624 166 OFFCURVE",
"621 159 CURVE SMOOTH",
"568 47 OFFCURVE",
"508 -7 OFFCURVE",
"386 -7 CURVE SMOOTH",
"288 -7 OFFCURVE",
"239 15 OFFCURVE",
"172 34 CURVE SMOOTH",
"131 46 OFFCURVE",
"108 39 OFFCURVE",
"71 0 CURVE",
"63 -3 OFFCURVE",
"48 7 OFFCURVE",
"52 14 CURVE",
"279 227 OFFCURVE",
"402 349 OFFCURVE",
"612 546 CURVE",
"549 567 OFFCURVE",
"473 590 OFFCURVE",
"397 590 CURVE SMOOTH",
"317 590 OFFCURVE",
"283 548 OFFCURVE",
"270 468 CURVE",
"266 461 OFFCURVE",
"258 464 OFFCURVE",
"257 471 CURVE",
"276 573 OFFCURVE",
"322 644 OFFCURVE",
"436 644 CURVE SMOOTH"
);
}
);
width = 625;
}
);
unicode = 005A;
},
{
glyphname = Zcaron;
lastChange = "2017-06-09 14:51:01 +0000";
layers = (
{
layerId = UUID0;
paths = (
{
closed = 1;
nodes = (
"530 668 OFFCURVE",
"526 669 OFFCURVE",
"522 672 CURVE",
"505 695 OFFCURVE",
"474 722 OFFCURVE",
"449 733 CURVE",
"442 740 OFFCURVE",
"458 749 OFFCURVE",
"475 746 CURVE",
"499 735 OFFCURVE",
"520 719 OFFCURVE",
"540 702 CURVE",
"557 716 OFFCURVE",
"596 737 OFFCURVE",
"615 748 CURVE",
"622 748 OFFCURVE",
"623 743 OFFCURVE",
"620 738 CURVE",
"597 725 OFFCURVE",
"555 698 OFFCURVE",
"534 671 CURVE"
);
},
{
closed = 1;
nodes = (
"502 644 OFFCURVE",
"552 629 OFFCURVE",
"620 608 CURVE SMOOTH",
"653 597 OFFCURVE",
"664 598 OFFCURVE",
"683 614 CURVE",
"688 617 OFFCURVE",
"696 619 OFFCURVE",
"707 619 CURVE SMOOTH",
"713 619 OFFCURVE",
"715 616 OFFCURVE",
"714 611 CURVE",
"546 456 OFFCURVE",
"326 248 OFFCURVE",
"145 77 CURVE",
"210 82 OFFCURVE",
"269 35 OFFCURVE",
"419 35 CURVE SMOOTH",
"512 35 OFFCURVE",
"567 72 OFFCURVE",
"608 167 CURVE",
"613 170 OFFCURVE",
"623 166 OFFCURVE",
"620 159 CURVE SMOOTH",
"566 46 OFFCURVE",
"507 -8 OFFCURVE",
"385 -8 CURVE SMOOTH",
"288 -8 OFFCURVE",
"238 14 OFFCURVE",
"172 33 CURVE SMOOTH",
"131 45 OFFCURVE",
"107 39 OFFCURVE",
"70 0 CURVE",
"62 -3 OFFCURVE",
"47 7 OFFCURVE",
"51 14 CURVE",
"278 227 OFFCURVE",
"429 371 OFFCURVE",
"638 569 CURVE",
"569 588 OFFCURVE",
"494 603 OFFCURVE",
"414 603 CURVE SMOOTH",
"323 603 OFFCURVE",
"282 550 OFFCURVE",
"269 467 CURVE",
"265 462 OFFCURVE",
"257 464 OFFCURVE",
"257 471 CURVE",
"276 573 OFFCURVE",
"320 644 OFFCURVE",
"435 644 CURVE SMOOTH"
);
}
);
width = 625;
},
{
layerId = "A10215CB-3318-4220-A0C8-1C7678CE5CF9";
paths = (
{
closed = 1;
nodes = (
"497 668 OFFCURVE",
"493 669 OFFCURVE",
"489 672 CURVE",
"472 695 OFFCURVE",
"441 722 OFFCURVE",
"416 733 CURVE",
"409 740 OFFCURVE",
"425 749 OFFCURVE",
"442 746 CURVE",
"466 735 OFFCURVE",
"487 719 OFFCURVE",
"507 702 CURVE",
"524 716 OFFCURVE",
"563 737 OFFCURVE",
"582 748 CURVE",
"589 748 OFFCURVE",
"590 743 OFFCURVE",
"587 738 CURVE",
"564 725 OFFCURVE",
"522 698 OFFCURVE",
"501 671 CURVE"
);
},
{
closed = 1;
nodes = (
"470 644 OFFCURVE",
"520 630 OFFCURVE",
"588 609 CURVE SMOOTH",
"621 598 OFFCURVE",
"632 598 OFFCURVE",
"651 614 CURVE SMOOTH",
"654 617 OFFCURVE",
"662 619 OFFCURVE",
"675 619 CURVE SMOOTH",
"681 619 OFFCURVE",
"683 617 OFFCURVE",
"681 612 CURVE",
"514 456 OFFCURVE",
"310 266 OFFCURVE",
"131 95 CURVE",
"195 100 OFFCURVE",
"254 52 OFFCURVE",
"404 52 CURVE SMOOTH",
"496 52 OFFCURVE",
"543 91 OFFCURVE",
"576 168 CURVE",
"580 171 OFFCURVE",
"591 166 OFFCURVE",
"588 159 CURVE SMOOTH",
"535 47 OFFCURVE",
"475 -7 OFFCURVE",
"353 -7 CURVE SMOOTH",
"255 -7 OFFCURVE",
"206 15 OFFCURVE",
"139 34 CURVE SMOOTH",
"98 46 OFFCURVE",
"75 39 OFFCURVE",
"38 0 CURVE",
"30 -3 OFFCURVE",
"15 7 OFFCURVE",
"19 14 CURVE",
"246 227 OFFCURVE",
"369 349 OFFCURVE",
"579 546 CURVE",
"516 567 OFFCURVE",
"440 590 OFFCURVE",
"364 590 CURVE SMOOTH",
"284 590 OFFCURVE",
"250 548 OFFCURVE",
"237 468 CURVE",
"233 461 OFFCURVE",
"225 464 OFFCURVE",
"224 471 CURVE",
"243 573 OFFCURVE",
"289 644 OFFCURVE",
"403 644 CURVE SMOOTH"
);
}
);
width = 592;
}
);
unicode = 017D;
},
{
glyphname = a;
lastChange = "2017-06-09 14:51:01 +0000";
layers = (
{
layerId = UUID0;
paths = (
{
closed = 1;
nodes = (
"273 66 OFFCURVE",
"278 62 OFFCURVE",
"277 57 CURVE",
"249 18 OFFCURVE",
"220 0 OFFCURVE",
"201 0 CURVE SMOOTH",
"176 0 OFFCURVE",
"173 53 OFFCURVE",
"189 109 CURVE",
"153 53 OFFCURVE",
"111 8 OFFCURVE",
"74 0 CURVE",
"50 0 OFFCURVE",
"31 23 OFFCURVE",
"31 72 CURVE SMOOTH",
"31 160 OFFCURVE",
"109 255 OFFCURVE",
"197 255 CURVE SMOOTH",
"221 255 OFFCURVE",
"237 250 OFFCURVE",
"252 239 CURVE",
"260 246 OFFCURVE",
"276 253 OFFCURVE",
"288 253 CURVE SMOOTH",
"291 253 OFFCURVE",
"292 251 OFFCURVE",
"291 248 CURVE",
"230 174 OFFCURVE",
"203 53 OFFCURVE",
"218 30 CURVE SMOOTH",
"225 21 OFFCURVE",
"242 27 OFFCURVE",
"270 63 CURVE SMOOTH"
);
},
{
closed = 1;
nodes = (
"126 34 OFFCURVE",
"194 125 OFFCURVE",
"231 210 CURVE",
"226 227 OFFCURVE",
"204 239 OFFCURVE",
"179 239 CURVE SMOOTH",
"121 239 OFFCURVE",
"70 175 OFFCURVE",
"70 85 CURVE SMOOTH",
"70 56 OFFCURVE",
"81 34 OFFCURVE",
"96 34 CURVE SMOOTH"
);
}
);
width = 294;
},
{
layerId = "A10215CB-3318-4220-A0C8-1C7678CE5CF9";
paths = (
{
closed = 1;
nodes = (
"307 66 OFFCURVE",
"312 62 OFFCURVE",
"311 57 CURVE",
"287 22 OFFCURVE",
"256 0 OFFCURVE",
"229 0 CURVE SMOOTH",
"198 0 OFFCURVE",
"189 50 OFFCURVE",
"206 110 CURVE",
"170 53 OFFCURVE",
"128 8 OFFCURVE",
"81 0 CURVE",
"49 0 OFFCURVE",
"31 34 OFFCURVE",
"31 73 CURVE SMOOTH",
"31 160 OFFCURVE",
"126 256 OFFCURVE",
"214 256 CURVE SMOOTH",
"237 256 OFFCURVE",
"256 250 OFFCURVE",
"269 239 CURVE",
"282 248 OFFCURVE",
"306 256 OFFCURVE",
"322 256 CURVE SMOOTH",
"325 256 OFFCURVE",
"326 254 OFFCURVE",
"326 251 CURVE",
"265 176 OFFCURVE",
"238 62 OFFCURVE",
"254 38 CURVE",
"261 30 OFFCURVE",
"276 28 OFFCURVE",
"304 63 CURVE SMOOTH"
);
},
{
closed = 1;
nodes = (
"144 37 OFFCURVE",
"211 126 OFFCURVE",
"248 211 CURVE",
"243 228 OFFCURVE",
"221 240 OFFCURVE",
"196 240 CURVE SMOOTH",
"135 240 OFFCURVE",
"87 176 OFFCURVE",
"87 85 CURVE SMOOTH",
"87 56 OFFCURVE",
"99 37 OFFCURVE",
"112 37 CURVE SMOOTH"
);
}
);
width = 327;
}
);
unicode = 0061;
},
{
glyphname = acute;
lastChange = "2017-06-09 14:51:01 +0000";
layers = (
{
layerId = UUID0;
paths = (
{
closed = 1;
nodes = (
"100 385 OFFCURVE",
"122 377 OFFCURVE",
"134 372 CURVE SMOOTH",
"139 369 OFFCURVE",
"139 366 OFFCURVE",
"135 362 CURVE",
"110 345 OFFCURVE",
"59 325 OFFCURVE",
"24 314 CURVE",
"19 314 OFFCURVE",
"19 320 OFFCURVE",
"24 325 CURVE",
"41 336 OFFCURVE",
"74 358 OFFCURVE",
"93 381 CURVE"
);
}
);
width = 157;
},
{
layerId = "A10215CB-3318-4220-A0C8-1C7678CE5CF9";
paths = (
{
closed = 1;
nodes = (
"97 388 OFFCURVE",
"119 378 OFFCURVE",
"138 370 CURVE SMOOTH",
"142 369 OFFCURVE",
"143 364 OFFCURVE",
"140 361 CURVE SMOOTH",
"114 343 OFFCURVE",
"58 325 OFFCURVE",
"24 314 CURVE",
"19 314 OFFCURVE",
"19 321 OFFCURVE",
"23 325 CURVE",
"42 337 OFFCURVE",
"69 360 OFFCURVE",
"88 383 CURVE"
);
}
);
width = 157;
}
);
unicode = 00B4;
},
{
glyphname = ae;
lastChange = "2017-06-09 14:51:01 +0000";
layers = (
{
layerId = UUID0;
paths = (
{
closed = 1;
nodes = (
"363 173 OFFCURVE",
"298 149 OFFCURVE",
"227 131 CURVE",
"225 117 OFFCURVE",
"224 102 OFFCURVE",
"224 85 CURVE SMOOTH",
"224 52 OFFCURVE",
"240 26 OFFCURVE",
"267 26 CURVE SMOOTH",
"294 26 OFFCURVE",
"316 40 OFFCURVE",
"335 63 CURVE",
"340 66 OFFCURVE",
"343 59 OFFCURVE",
"342 55 CURVE",
"319 24 OFFCURVE",
"283 -1 OFFCURVE",
"246 -1 CURVE SMOOTH",
"210 -1 OFFCURVE",
"187 22 OFFCURVE",
"187 66 CURVE SMOOTH",
"187 91 OFFCURVE",
"192 117 OFFCURVE",
"202 142 CURVE",
"176 84 OFFCURVE",
"119 14 OFFCURVE",
"75 0 CURVE",
"47 0 OFFCURVE",
"31 21 OFFCURVE",
"31 69 CURVE SMOOTH",
"31 152 OFFCURVE",
"99 256 OFFCURVE",
"187 256 CURVE SMOOTH",
"208 256 OFFCURVE",
"223 250 OFFCURVE",
"233 239 CURVE",
"242 247 OFFCURVE",
"257 263 OFFCURVE",
"269 263 CURVE SMOOTH",
"273 263 OFFCURVE",
"274 262 OFFCURVE",
"273 259 CURVE",
"264 247 OFFCURVE",
"255 234 OFFCURVE",
"247 217 CURVE",
"268 240 OFFCURVE",
"291 255 OFFCURVE",
"318 255 CURVE SMOOTH",
"343 255 OFFCURVE",
"363 234 OFFCURVE",
"363 211 CURVE SMOOTH"
);
},
{
closed = 1;
nodes = (
"124 37 OFFCURVE",
"188 118 OFFCURVE",
"217 206 CURVE",
"210 223 OFFCURVE",
"194 239 OFFCURVE",
"171 239 CURVE SMOOTH",
"112 239 OFFCURVE",
"66 168 OFFCURVE",
"66 85 CURVE SMOOTH",
"66 56 OFFCURVE",
"74 37 OFFCURVE",
"91 37 CURVE SMOOTH"
);
},
{
closed = 1;
nodes = (
"266 229 OFFCURVE",
"240 203 OFFCURVE",
"229 146 CURVE",
"293 155 OFFCURVE",
"323 174 OFFCURVE",
"323 197 CURVE SMOOTH",
"323 216 OFFCURVE",
"312 229 OFFCURVE",
"297 229 CURVE SMOOTH"
);
}
);
width = 363;
},
{
layerId = "A10215CB-3318-4220-A0C8-1C7678CE5CF9";
paths = (
{
closed = 1;
nodes = (
"419 168 OFFCURVE",
"369 142 OFFCURVE",
"268 127 CURVE",
"267 115 OFFCURVE",
"267 101 OFFCURVE",
"267 86 CURVE SMOOTH",
"267 53 OFFCURVE",
"281 33 OFFCURVE",
"316 33 CURVE SMOOTH",
"341 33 OFFCURVE",
"371 49 OFFCURVE",
"388 72 CURVE",
"393 75 OFFCURVE",
"397 68 OFFCURVE",
"394 63 CURVE SMOOTH",
"367 28 OFFCURVE",
"325 0 OFFCURVE",
"278 0 CURVE SMOOTH",
"231 0 OFFCURVE",
"212 24 OFFCURVE",
"212 67 CURVE SMOOTH",
"212 91 OFFCURVE",
"218 116 OFFCURVE",
"229 142 CURVE",
"182 66 OFFCURVE",
"136 7 OFFCURVE",
"80 0 CURVE",
"49 0 OFFCURVE",
"31 34 OFFCURVE",
"31 73 CURVE SMOOTH",
"31 160 OFFCURVE",
"126 256 OFFCURVE",
"214 256 CURVE SMOOTH",
"238 256 OFFCURVE",
"254 250 OFFCURVE",
"269 239 CURVE",
"281 250 OFFCURVE",
"305 268 OFFCURVE",
"321 268 CURVE SMOOTH",
"326 268 OFFCURVE",
"327 266 OFFCURVE",
"326 263 CURVE",
"318 254 OFFCURVE",
"311 244 OFFCURVE",
"304 235 CURVE",
"322 249 OFFCURVE",
"341 256 OFFCURVE",
"360 256 CURVE SMOOTH",
"395 256 OFFCURVE",
"419 230 OFFCURVE",
"419 206 CURVE SMOOTH"
);
},
{
closed = 1;
nodes = (
"364 214 OFFCURVE",
"351 230 OFFCURVE",
"332 230 CURVE SMOOTH",
"301 230 OFFCURVE",
"279 202 OFFCURVE",
"270 142 CURVE",
"334 149 OFFCURVE",
"364 167 OFFCURVE",
"364 194 CURVE SMOOTH"
);
},
{
closed = 1;
nodes = (
"142 37 OFFCURVE",
"211 126 OFFCURVE",
"248 211 CURVE",
"243 228 OFFCURVE",
"221 240 OFFCURVE",
"196 240 CURVE SMOOTH",
"135 240 OFFCURVE",
"87 176 OFFCURVE",
"87 85 CURVE SMOOTH",
"87 56 OFFCURVE",
"99 37 OFFCURVE",
"112 37 CURVE SMOOTH"
);
}
);
width = 419;
}
);
unicode = 00E6;
},
{
glyphname = ampersand;
lastChange = "2017-06-09 14:51:01 +0000";
layers = (
{
layerId = UUID0;
paths = (
{
closed = 1;
nodes = (
"504 197 OFFCURVE",
"495 192 OFFCURVE",
"490 199 CURVE SMOOTH",
"479 214 OFFCURVE",
"461 224 OFFCURVE",
"436 224 CURVE SMOOTH",
"373 224 OFFCURVE",
"337 147 OFFCURVE",
"286 83 CURVE",
"322 50 OFFCURVE",
"366 30 OFFCURVE",
"418 30 CURVE SMOOTH",
"441 30 OFFCURVE",
"459 39 OFFCURVE",
"473 56 CURVE SMOOTH",
"478 63 OFFCURVE",
"494 63 OFFCURVE",
"483 48 CURVE SMOOTH",
"462 19 OFFCURVE",
"432 0 OFFCURVE",
"388 0 CURVE SMOOTH",
"337 0 OFFCURVE",
"294 20 OFFCURVE",
"259 53 CURVE",
"228 22 OFFCURVE",
"189 0 OFFCURVE",
"137 0 CURVE SMOOTH",
"68 0 OFFCURVE",
"20 44 OFFCURVE",
"20 107 CURVE SMOOTH",
"20 187 OFFCURVE",
"92 219 OFFCURVE",
"158 259 CURVE",
"153 288 OFFCURVE",
"150 314 OFFCURVE",
"150 337 CURVE SMOOTH",
"150 412 OFFCURVE",
"199 475 OFFCURVE",
"255 475 CURVE SMOOTH",
"278 475 OFFCURVE",
"296 450 OFFCURVE",
"296 423 CURVE SMOOTH",
"296 345 OFFCURVE",
"244 301 OFFCURVE",
"188 266 CURVE",
"203 199 OFFCURVE",
"233 135 OFFCURVE",
"278 91 CURVE",
"332 158 OFFCURVE",
"372 256 OFFCURVE",
"449 256 CURVE SMOOTH",
"478 256 OFFCURVE",
"494 232 OFFCURVE",
"501 204 CURVE"
);
},
{
closed = 1;
nodes = (
"176 337 OFFCURVE",
"179 307 OFFCURVE",
"185 276 CURVE",
"230 307 OFFCURVE",
"267 342 OFFCURVE",
"267 405 CURVE SMOOTH",
"267 430 OFFCURVE",
"256 450 OFFCURVE",
"233 450 CURVE SMOOTH",
"197 450 OFFCURVE",
"176 415 OFFCURVE",
"176 367 CURVE SMOOTH"
);
},
{
closed = 1;
nodes = (
"59 64 OFFCURVE",
"100 27 OFFCURVE",
"169 27 CURVE SMOOTH",
"201 27 OFFCURVE",
"227 40 OFFCURVE",
"250 61 CURVE",
"203 109 OFFCURVE",
"175 179 OFFCURVE",
"160 248 CURVE",
"108 214 OFFCURVE",
"59 182 OFFCURVE",
"59 124 CURVE SMOOTH"
);
}
);
width = 507;
},
{
layerId = "A10215CB-3318-4220-A0C8-1C7678CE5CF9";
paths = (
{
closed = 1;
nodes = (
"499 256 OFFCURVE",
"519 227 OFFCURVE",
"519 196 CURVE SMOOTH",
"519 189 OFFCURVE",
"512 184 OFFCURVE",
"507 191 CURVE SMOOTH",
"496 206 OFFCURVE",
"478 216 OFFCURVE",
"453 216 CURVE SMOOTH",
"389 216 OFFCURVE",
"360 148 OFFCURVE",
"312 90 CURVE",
"347 59 OFFCURVE",
"391 40 OFFCURVE",
"442 40 CURVE SMOOTH",
"469 40 OFFCURVE",
"486 51 OFFCURVE",
"498 66 CURVE",
"502 73 OFFCURVE",
"514 70 OFFCURVE",
"507 58 CURVE",
"490 23 OFFCURVE",
"457 0 OFFCURVE",
"405 0 CURVE SMOOTH",
"354 0 OFFCURVE",
"311 19 OFFCURVE",
"276 51 CURVE",
"243 20 OFFCURVE",
"201 0 OFFCURVE",
"140 0 CURVE SMOOTH",
"67 0 OFFCURVE",
"20 38 OFFCURVE",
"20 102 CURVE SMOOTH",
"20 191 OFFCURVE",
"96 219 OFFCURVE",
"168 256 CURVE",
"163 284 OFFCURVE",
"160 312 OFFCURVE",
"160 337 CURVE SMOOTH",
"160 402 OFFCURVE",
"212 475 OFFCURVE",
"272 475 CURVE SMOOTH",
"312 475 OFFCURVE",
"331 449 OFFCURVE",
"331 413 CURVE SMOOTH",
"331 336 OFFCURVE",
"273 300 OFFCURVE",
"213 265 CURVE",
"228 201 OFFCURVE",
"258 142 OFFCURVE",
"301 99 CURVE",
"354 166 OFFCURVE",
"392 256 OFFCURVE",
"466 256 CURVE SMOOTH"
);
},
{
closed = 1;
nodes = (
"200 338 OFFCURVE",
"203 309 OFFCURVE",
"209 279 CURVE",
"252 306 OFFCURVE",
"284 339 OFFCURVE",
"284 399 CURVE SMOOTH",
"284 427 OFFCURVE",
"273 449 OFFCURVE",
"246 449 CURVE SMOOTH",
"215 449 OFFCURVE",
"200 427 OFFCURVE",
"200 367 CURVE SMOOTH"
);
},
{
closed = 1;
nodes = (
"76 64 OFFCURVE",
"108 29 OFFCURVE",
"176 29 CURVE SMOOTH",
"212 29 OFFCURVE",
"240 42 OFFCURVE",
"265 62 CURVE",
"218 109 OFFCURVE",
"187 174 OFFCURVE",
"171 242 CURVE",
"119 212 OFFCURVE",
"76 180 OFFCURVE",
"76 124 CURVE SMOOTH"
);
}
);
width = 524;
}
);
unicode = 0026;
},
{
glyphname = at;
lastChange = "2017-06-09 14:51:01 +0000";
layers = (
{
layerId = UUID0;
paths = (
{
closed = 1;
nodes = (
"387 65 OFFCURVE",
"431 118 OFFCURVE",
"431 198 CURVE SMOOTH",
"431 280 OFFCURVE",
"371 347 OFFCURVE",
"281 347 CURVE SMOOTH",
"157 347 OFFCURVE",
"79 257 OFFCURVE",
"79 134 CURVE SMOOTH",
"79 33 OFFCURVE",
"143 -49 OFFCURVE",
"259 -49 CURVE SMOOTH",
"334 -49 OFFCURVE",
"381 -17 OFFCURVE",
"408 31 CURVE",
"412 34 OFFCURVE",
"417 29 OFFCURVE",
"416 22 CURVE",
"381 -38 OFFCURVE",
"316 -76 OFFCURVE",
"233 -76 CURVE SMOOTH",
"118 -76 OFFCURVE",
"50 10 OFFCURVE",
"50 113 CURVE SMOOTH",
"50 245 OFFCURVE",
"146 364 OFFCURVE",
"300 364 CURVE SMOOTH",
"387 364 OFFCURVE",
"452 296 OFFCURVE",
"452 213 CURVE SMOOTH",
"452 116 OFFCURVE",
"379 40 OFFCURVE",
"299 40 CURVE SMOOTH",
"271 40 OFFCURVE",
"262 85 OFFCURVE",
"282 137 CURVE",
"251 92 OFFCURVE",
"220 55 OFFCURVE",
"189 48 CURVE",
"170 48 OFFCURVE",
"154 67 OFFCURVE",
"154 107 CURVE SMOOTH",
"154 176 OFFCURVE",
"217 255 OFFCURVE",
"288 255 CURVE SMOOTH",
"306 255 OFFCURVE",
"321 250 OFFCURVE",
"332 241 CURVE",
"339 246 OFFCURVE",
"350 253 OFFCURVE",
"361 253 CURVE SMOOTH",
"363 253 OFFCURVE",
"364 252 OFFCURVE",
"364 249 CURVE",
"306 178 OFFCURVE",
"286 65 OFFCURVE",
"324 65 CURVE SMOOTH"
);
},
{
closed = 1;
nodes = (
"232 80 OFFCURVE",
"284 154 OFFCURVE",
"313 217 CURVE",
"308 232 OFFCURVE",
"294 239 OFFCURVE",
"273 239 CURVE SMOOTH",
"228 239 OFFCURVE",
"187 191 OFFCURVE",
"187 120 CURVE SMOOTH",
"187 97 OFFCURVE",
"197 80 OFFCURVE",
"208 80 CURVE SMOOTH"
);
}
);
width = 492;
},
{
layerId = "A10215CB-3318-4220-A0C8-1C7678CE5CF9";
paths = (
{
closed = 1;
nodes = (
"400 75 OFFCURVE",
"440 115 OFFCURVE",
"440 191 CURVE SMOOTH",
"440 269 OFFCURVE",
"384 339 OFFCURVE",
"276 339 CURVE SMOOTH",
"165 339 OFFCURVE",
"89 270 OFFCURVE",
"89 134 CURVE SMOOTH",
"89 33 OFFCURVE",
"154 -43 OFFCURVE",
"270 -43 CURVE SMOOTH",
"346 -43 OFFCURVE",
"391 -16 OFFCURVE",
"418 31 CURVE",
"422 35 OFFCURVE",
"426 29 OFFCURVE",
"425 22 CURVE",
"392 -38 OFFCURVE",
"325 -76 OFFCURVE",
"242 -76 CURVE SMOOTH",
"125 -76 OFFCURVE",
"50 -8 OFFCURVE",
"50 116 CURVE SMOOTH",
"50 247 OFFCURVE",
"149 364 OFFCURVE",
"309 364 CURVE SMOOTH",
"405 364 OFFCURVE",
"473 292 OFFCURVE",
"473 212 CURVE SMOOTH",
"473 123 OFFCURVE",
"389 41 OFFCURVE",
"315 41 CURVE SMOOTH",
"292 41 OFFCURVE",
"280 56 OFFCURVE",
"280 86 CURVE SMOOTH",
"280 101 OFFCURVE",
"284 118 OFFCURVE",
"291 137 CURVE",
"262 92 OFFCURVE",
"230 56 OFFCURVE",
"195 49 CURVE",
"171 49 OFFCURVE",
"153 68 OFFCURVE",
"153 107 CURVE SMOOTH",
"153 179 OFFCURVE",
"226 255 OFFCURVE",
"297 255 CURVE SMOOTH",
"317 255 OFFCURVE",
"330 250 OFFCURVE",
"342 242 CURVE",
"349 247 OFFCURVE",
"371 253 OFFCURVE",
"380 253 CURVE SMOOTH",
"383 253 OFFCURVE",
"384 252 OFFCURVE",
"383 249 CURVE",
"346 204 OFFCURVE",
"323 140 OFFCURVE",
"323 107 CURVE SMOOTH",
"323 86 OFFCURVE",
"331 75 OFFCURVE",
"347 75 CURVE SMOOTH"
);
},
{
closed = 1;
nodes = (
"242 81 OFFCURVE",
"291 150 OFFCURVE",
"320 213 CURVE",
"315 228 OFFCURVE",
"302 239 OFFCURVE",
"282 239 CURVE SMOOTH",
"238 239 OFFCURVE",
"197 192 OFFCURVE",
"197 121 CURVE SMOOTH",
"197 98 OFFCURVE",
"206 81 OFFCURVE",
"217 81 CURVE SMOOTH"
);
}
);
width = 513;
}
);
unicode = 0040;
},
{
glyphname = b;
lastChange = "2017-06-09 14:51:01 +0000";
layers = (
{
layerId = UUID0;
paths = (
{
closed = 1;
nodes = (
"514 756 OFFCURVE",
"535 717 OFFCURVE",
"524 673 CURVE",
"520 669 OFFCURVE",
"517 669 OFFCURVE",
"514 674 CURVE",
"511 701 OFFCURVE",
"492 723 OFFCURVE",
"449 723 CURVE SMOOTH",
"328 723 OFFCURVE",
"200 591 OFFCURVE",
"93 183 CURVE",
"116 217 OFFCURVE",
"158 255 OFFCURVE",
"198 255 CURVE SMOOTH",
"229 255 OFFCURVE",
"240 225 OFFCURVE",
"240 192 CURVE SMOOTH",
"240 106 OFFCURVE",
"144 -1 OFFCURVE",
"76 -1 CURVE SMOOTH",
"52 -1 OFFCURVE",
"35 11 OFFCURVE",
"35 46 CURVE SMOOTH",
"35 105 OFFCURVE",
"74 245 OFFCURVE",
"127 370 CURVE SMOOTH",
"239 634 OFFCURVE",
"350 756 OFFCURVE",
"471 756 CURVE SMOOTH"
);
},
{
closed = 1;
nodes = (
"135 222 OFFCURVE",
"81 171 OFFCURVE",
"73 69 CURVE",
"70 40 OFFCURVE",
"81 29 OFFCURVE",
"101 29 CURVE SMOOTH",
"152 29 OFFCURVE",
"207 102 OFFCURVE",
"207 169 CURVE SMOOTH",
"207 208 OFFCURVE",
"193 222 OFFCURVE",
"176 222 CURVE SMOOTH"
);
}
);
width = 247;
},
{
layerId = "A10215CB-3318-4220-A0C8-1C7678CE5CF9";
paths = (
{
closed = 1;
nodes = (
"578 756 OFFCURVE",
"593 707 OFFCURVE",
"583 657 CURVE",
"579 654 OFFCURVE",
"576 655 OFFCURVE",
"574 658 CURVE",
"570 685 OFFCURVE",
"547 707 OFFCURVE",
"500 707 CURVE SMOOTH",
"351 707 OFFCURVE",
"248 565 OFFCURVE",
"149 184 CURVE",
"168 213 OFFCURVE",
"220 256 OFFCURVE",
"265 256 CURVE SMOOTH",
"293 256 OFFCURVE",
"312 227 OFFCURVE",
"312 192 CURVE SMOOTH",
"312 92 OFFCURVE",
"198 0 OFFCURVE",
"118 0 CURVE SMOOTH",
"85 0 OFFCURVE",
"73 17 OFFCURVE",
"73 46 CURVE SMOOTH",
"73 122 OFFCURVE",
"115 255 OFFCURVE",
"172 379 CURVE SMOOTH",
"285 623 OFFCURVE",
"401 756 OFFCURVE",
"526 756 CURVE SMOOTH"
);
},
{
closed = 1;
nodes = (
"190 223 OFFCURVE",
"136 171 OFFCURVE",
"128 69 CURVE",
"125 40 OFFCURVE",
"136 29 OFFCURVE",
"156 29 CURVE SMOOTH",
"207 29 OFFCURVE",
"263 103 OFFCURVE",
"263 170 CURVE SMOOTH",
"263 209 OFFCURVE",
"250 223 OFFCURVE",
"231 223 CURVE SMOOTH"
);
}
);
width = 319;
}
);
unicode = 0062;
},
{
glyphname = bracketleft;
lastChange = "2017-06-09 14:51:01 +0000";
layers = (
{
layerId = UUID0;
paths = (
{
closed = 1;
nodes = (
"252 621 OFFCURVE",
"253 623 OFFCURVE",
"265 623 CURVE SMOOTH",
"327 623 OFFCURVE",
"354 624 OFFCURVE",
"421 621 CURVE",
"434 618 OFFCURVE",
"425 605 OFFCURVE",
"409 604 CURVE",
"377 607 OFFCURVE",
"331 606 OFFCURVE",
"292 606 CURVE",
"227 358 OFFCURVE",
"167 120 OFFCURVE",
"131 -79 CURVE",
"238 -79 LINE",
"247 -83 OFFCURVE",
"247 -95 OFFCURVE",
"224 -96 CURVE",
"166 -96 OFFCURVE",
"163 -94 OFFCURVE",
"91 -94 CURVE SMOOTH",
"83 -94 OFFCURVE",
"79 -91 OFFCURVE",
"79 -84 CURVE",
"138 148 OFFCURVE",
"204 399 OFFCURVE",
"249 612 CURVE"
);
}
);
width = 318;
},
{
layerId = "A10215CB-3318-4220-A0C8-1C7678CE5CF9";
paths = (
{
closed = 1;
nodes = (
"249 619 OFFCURVE",
"255 623 OFFCURVE",
"264 623 CURVE SMOOTH",
"328 623 OFFCURVE",
"368 624 OFFCURVE",
"438 621 CURVE",
"450 618 OFFCURVE",
"441 605 OFFCURVE",
"425 604 CURVE",
"393 607 OFFCURVE",
"347 606 OFFCURVE",
"308 606 CURVE",
"243 358 OFFCURVE",
"184 120 OFFCURVE",
"147 -79 CURVE",
"255 -79 LINE",
"263 -83 OFFCURVE",
"263 -95 OFFCURVE",
"240 -96 CURVE",
"182 -96 OFFCURVE",
"164 -94 OFFCURVE",
"90 -94 CURVE SMOOTH",
"83 -94 OFFCURVE",
"79 -91 OFFCURVE",
"79 -84 CURVE",
"109 33 OFFCURVE",
"139 151 OFFCURVE",
"168 271 CURVE SMOOTH",
"198 391 OFFCURVE",
"225 505 OFFCURVE",
"248 612 CURVE SMOOTH"
);
}
);
width = 331;
}
);
unicode = 005B;
},
{
glyphname = bracketright;
lastChange = "2017-06-09 14:51:01 +0000";
layers = (
{
layerId = UUID0;
paths = (
{
closed = 1;
nodes = (
"193 -94 OFFCURVE",
"190 -96 OFFCURVE",
"178 -96 CURVE SMOOTH",
"116 -96 OFFCURVE",
"89 -95 OFFCURVE",
"22 -95 CURVE",
"9 -92 OFFCURVE",
"18 -78 OFFCURVE",
"35 -77 CURVE",
"66 -80 OFFCURVE",
"112 -80 OFFCURVE",
"151 -79 CURVE",
"216 169 OFFCURVE",
"276 406 OFFCURVE",
"312 605 CURVE",
"265 608 OFFCURVE",
"253 606 OFFCURVE",
"205 606 CURVE",
"196 609 OFFCURVE",
"196 620 OFFCURVE",
"219 623 CURVE",
"277 623 OFFCURVE",
"280 623 OFFCURVE",
"352 620 CURVE SMOOTH",
"360 620 OFFCURVE",
"364 617 OFFCURVE",
"364 611 CURVE",
"303 380 OFFCURVE",
"239 128 OFFCURVE",
"194 -86 CURVE"
);
}
);
width = 339;
},
{
layerId = "A10215CB-3318-4220-A0C8-1C7678CE5CF9";
paths = (
{
closed = 1;
nodes = (
"205 -94 OFFCURVE",
"203 -96 OFFCURVE",
"192 -96 CURVE SMOOTH",
"128 -96 OFFCURVE",
"86 -95 OFFCURVE",
"18 -95 CURVE",
"6 -92 OFFCURVE",
"15 -78 OFFCURVE",
"31 -77 CURVE",
"63 -80 OFFCURVE",
"109 -80 OFFCURVE",
"148 -79 CURVE",
"213 169 OFFCURVE",
"273 406 OFFCURVE",
"309 605 CURVE",
"262 608 OFFCURVE",
"250 606 OFFCURVE",
"202 606 CURVE",
"193 609 OFFCURVE",
"193 620 OFFCURVE",
"216 623 CURVE",
"274 623 OFFCURVE",
"292 623 OFFCURVE",
"366 620 CURVE SMOOTH",
"373 620 OFFCURVE",
"377 617 OFFCURVE",
"377 611 CURVE",
"318 379 OFFCURVE",
"253 128 OFFCURVE",
"208 -86 CURVE"
);
}
);
width = 352;
}
);
unicode = 005D;
},
{
glyphname = c;
lastChange = "2017-06-09 14:51:01 +0000";
layers = (
{
layerId = UUID0;
paths = (
{
closed = 1;
nodes = (
"175 175 OFFCURVE",
"173 177 OFFCURVE",
"173 180 CURVE",
"184 207 OFFCURVE",
"174 230 OFFCURVE",
"143 230 CURVE SMOOTH",
"100 230 OFFCURVE",
"67 164 OFFCURVE",
"67 79 CURVE SMOOTH",
"67 46 OFFCURVE",
"78 30 OFFCURVE",
"101 30 CURVE SMOOTH",
"127 30 OFFCURVE",
"153 46 OFFCURVE",
"179 77 CURVE",
"184 80 OFFCURVE",
"190 76 OFFCURVE",
"187 69 CURVE",
"156 30 OFFCURVE",
"117 -1 OFFCURVE",
"81 -1 CURVE SMOOTH",
"52 -1 OFFCURVE",
"30 22 OFFCURVE",
"30 59 CURVE SMOOTH",
"30 152 OFFCURVE",
"96 255 OFFCURVE",
"163 255 CURVE SMOOTH",
"191 255 OFFCURVE",
"208 240 OFFCURVE",
"208 221 CURVE SMOOTH",
"208 207 OFFCURVE",
"190 181 OFFCURVE",
"178 175 CURVE"
);
}
);
width = 203;
},
{
layerId = "A10215CB-3318-4220-A0C8-1C7678CE5CF9";
paths = (
{
closed = 1;
nodes = (
"194 165 OFFCURVE",
"192 166 OFFCURVE",
"192 171 CURVE",
"201 199 OFFCURVE",
"188 224 OFFCURVE",
"155 224 CURVE SMOOTH",
"112 224 OFFCURVE",
"84 165 OFFCURVE",
"84 80 CURVE SMOOTH",
"84 49 OFFCURVE",
"96 33 OFFCURVE",
"121 33 CURVE SMOOTH",
"144 33 OFFCURVE",
"173 51 OFFCURVE",
"196 78 CURVE",
"201 81 OFFCURVE",
"207 75 OFFCURVE",
"204 70 CURVE SMOOTH",
"171 27 OFFCURVE",
"129 0 OFFCURVE",
"82 0 CURVE SMOOTH",
"53 0 OFFCURVE",
"30 22 OFFCURVE",
"30 59 CURVE SMOOTH",
"30 153 OFFCURVE",
"117 256 OFFCURVE",
"185 256 CURVE SMOOTH",
"216 256 OFFCURVE",
"234 235 OFFCURVE",
"234 214 CURVE SMOOTH",
"234 200 OFFCURVE",
"212 172 OFFCURVE",
"198 166 CURVE SMOOTH"
);
}
);
width = 229;
}
);
unicode = 0063;
},
{
glyphname = caron;
lastChange = "2017-06-09 14:51:01 +0000";
layers = (
{
layerId = UUID0;
paths = (
{
closed = 1;
nodes = (
"97 325 OFFCURVE",
"93 325 OFFCURVE",
"89 329 CURVE SMOOTH",
"74 348 OFFCURVE",
"47 370 OFFCURVE",
"22 381 CURVE",
"15 388 OFFCURVE",
"33 397 OFFCURVE",
"49 394 CURVE",
"73 385 OFFCURVE",
"86 376 OFFCURVE",
"107 360 CURVE",
"123 371 OFFCURVE",
"147 385 OFFCURVE",
"168 396 CURVE",
"175 396 OFFCURVE",
"177 393 OFFCURVE",
"174 387 CURVE",
"151 374 OFFCURVE",
"121 355 OFFCURVE",
"101 328 CURVE"
);
}
);
width = 196;
},
{
layerId = "A10215CB-3318-4220-A0C8-1C7678CE5CF9";
paths = (
{
closed = 1;
nodes = (
"97 324 OFFCURVE",
"93 324 OFFCURVE",
"89 329 CURVE SMOOTH",
"73 352 OFFCURVE",
"48 369 OFFCURVE",
"23 381 CURVE",
"16 388 OFFCURVE",
"35 401 OFFCURVE",
"52 398 CURVE",
"75 389 OFFCURVE",
"93 380 OFFCURVE",
"112 368 CURVE",
"128 379 OFFCURVE",
"147 391 OFFCURVE",
"169 402 CURVE",
"174 402 OFFCURVE",
"177 397 OFFCURVE",
"174 392 CURVE",
"151 379 OFFCURVE",
"122 355 OFFCURVE",
"101 328 CURVE SMOOTH"
);
}
);
width = 196;
}
);
unicode = 02C7;
},
{
glyphname = ccedilla;
lastChange = "2017-06-09 14:51:01 +0000";
layers = (
{
layerId = UUID0;
paths = (
{
closed = 1;
nodes = (
"183 81 OFFCURVE",
"189 77 OFFCURVE",
"186 70 CURVE",
"165 43 OFFCURVE",
"140 23 OFFCURVE",
"115 8 CURVE SMOOTH",
"96 -3 OFFCURVE",
"91 -21 OFFCURVE",
"96 -36 CURVE SMOOTH",
"109 -69 OFFCURVE",
"88 -111 OFFCURVE",
"36 -132 CURVE",
"32 -132 OFFCURVE",
"31 -125 OFFCURVE",
"34 -121 CURVE",
"71 -102 OFFCURVE",
"82 -82 OFFCURVE",
"73 -54 CURVE SMOOTH",
"66 -34 OFFCURVE",
"74 -9 OFFCURVE",
"97 2 CURVE",
"90 1 OFFCURVE",
"85 0 OFFCURVE",
"81 0 CURVE SMOOTH",
"52 0 OFFCURVE",
"30 22 OFFCURVE",
"30 59 CURVE SMOOTH",
"30 153 OFFCURVE",
"95 256 OFFCURVE",
"163 256 CURVE SMOOTH",
"190 256 OFFCURVE",
"208 241 OFFCURVE",
"208 222 CURVE SMOOTH",
"208 209 OFFCURVE",
"188 181 OFFCURVE",
"178 176 CURVE",
"174 175 OFFCURVE",
"172 176 OFFCURVE",
"172 181 CURVE",
"183 208 OFFCURVE",
"173 231 OFFCURVE",
"142 231 CURVE SMOOTH",
"100 231 OFFCURVE",
"66 165 OFFCURVE",
"66 80 CURVE SMOOTH",
"66 47 OFFCURVE",
"77 30 OFFCURVE",
"100 30 CURVE SMOOTH",
"127 30 OFFCURVE",
"152 47 OFFCURVE",
"179 78 CURVE"
);
}
);
width = 203;
},
{
layerId = "A10215CB-3318-4220-A0C8-1C7678CE5CF9";
paths = (
{
closed = 1;
nodes = (
"194 165 OFFCURVE",
"191 167 OFFCURVE",
"191 170 CURVE",
"202 199 OFFCURVE",
"187 224 OFFCURVE",
"154 224 CURVE SMOOTH",
"111 224 OFFCURVE",
"83 166 OFFCURVE",
"83 79 CURVE SMOOTH",
"83 48 OFFCURVE",
"95 33 OFFCURVE",
"120 33 CURVE SMOOTH",
"144 33 OFFCURVE",
"172 50 OFFCURVE",
"195 77 CURVE",
"200 80 OFFCURVE",
"206 76 OFFCURVE",
"203 69 CURVE",
"183 44 OFFCURVE",
"154 22 OFFCURVE",
"133 11 CURVE",
"108 0 OFFCURVE",
"102 -17 OFFCURVE",
"109 -34 CURVE SMOOTH",
"121 -67 OFFCURVE",
"94 -112 OFFCURVE",
"42 -133 CURVE",
"38 -132 OFFCURVE",
"38 -125 OFFCURVE",
"41 -122 CURVE",
"78 -103 OFFCURVE",
"88 -83 OFFCURVE",
"79 -54 CURVE",
"72 -35 OFFCURVE",
"82 -9 OFFCURVE",
"103 2 CURVE SMOOTH",
"96 -1 OFFCURVE",
"88 0 OFFCURVE",
"81 0 CURVE SMOOTH",
"52 0 OFFCURVE",
"30 22 OFFCURVE",
"30 59 CURVE SMOOTH",
"30 153 OFFCURVE",
"116 256 OFFCURVE",
"184 256 CURVE SMOOTH",
"215 256 OFFCURVE",
"234 235 OFFCURVE",
"234 214 CURVE SMOOTH",
"234 200 OFFCURVE",
"211 171 OFFCURVE",
"197 166 CURVE SMOOTH"
);
}
);
width = 229;
}
);
unicode = 00E7;
},
{
glyphname = circumflex;
lastChange = "2017-06-09 14:51:01 +0000";
layers = (
{
layerId = UUID0;
paths = (
{
closed = 1;
nodes = (
"99 396 OFFCURVE",
"103 396 OFFCURVE",
"107 392 CURVE SMOOTH",
"122 373 OFFCURVE",
"149 351 OFFCURVE",
"174 340 CURVE",
"181 333 OFFCURVE",
"163 324 OFFCURVE",
"147 327 CURVE",
"123 336 OFFCURVE",
"110 345 OFFCURVE",
"89 361 CURVE",
"73 350 OFFCURVE",
"49 336 OFFCURVE",
"28 325 CURVE",
"21 325 OFFCURVE",
"19 328 OFFCURVE",
"22 334 CURVE",
"45 347 OFFCURVE",
"75 366 OFFCURVE",
"95 393 CURVE"
);
}
);
width = 196;
},
{
layerId = "A10215CB-3318-4220-A0C8-1C7678CE5CF9";
paths = (
{
closed = 1;
nodes = (
"99 398 OFFCURVE",
"103 398 OFFCURVE",
"108 394 CURVE",
"124 371 OFFCURVE",
"149 354 OFFCURVE",
"174 342 CURVE",
"181 335 OFFCURVE",
"162 322 OFFCURVE",
"145 325 CURVE",
"122 334 OFFCURVE",
"104 343 OFFCURVE",
"85 355 CURVE",
"69 344 OFFCURVE",
"50 332 OFFCURVE",
"28 321 CURVE",
"23 321 OFFCURVE",
"20 326 OFFCURVE",
"23 331 CURVE",
"46 344 OFFCURVE",
"75 368 OFFCURVE",
"96 395 CURVE SMOOTH"
);
}
);
width = 196;
}
);
unicode = 02C6;
},
{
glyphname = colon;
lastChange = "2017-06-09 14:51:01 +0000";
layers = (
{
layerId = UUID0;
paths = (
{
closed = 1;
nodes = (
"24 0 OFFCURVE",
"20 7 OFFCURVE",
"20 21 CURVE SMOOTH",
"20 37 OFFCURVE",
"45 65 OFFCURVE",
"67 65 CURVE SMOOTH",
"74 65 OFFCURVE",
"77 58 OFFCURVE",
"77 50 CURVE SMOOTH",
"77 30 OFFCURVE",
"51 0 OFFCURVE",
"33 0 CURVE SMOOTH"
);
},
{
closed = 1;
nodes = (
"85 191 OFFCURVE",
"81 198 OFFCURVE",
"81 213 CURVE SMOOTH",
"81 228 OFFCURVE",
"106 256 OFFCURVE",
"129 256 CURVE SMOOTH",
"136 256 OFFCURVE",
"139 251 OFFCURVE",
"139 242 CURVE SMOOTH",
"139 221 OFFCURVE",
"112 191 OFFCURVE",
"94 191 CURVE SMOOTH"
);
}
);
width = 156;
},
{
layerId = "A10215CB-3318-4220-A0C8-1C7678CE5CF9";
paths = (
{
closed = 1;
nodes = (
"28 0 OFFCURVE",
"20 5 OFFCURVE",
"20 24 CURVE SMOOTH",
"20 40 OFFCURVE",
"44 71 OFFCURVE",
"69 71 CURVE SMOOTH",
"77 71 OFFCURVE",
"85 64 OFFCURVE",
"85 55 CURVE SMOOTH",
"85 33 OFFCURVE",
"60 0 OFFCURVE",
"40 0 CURVE SMOOTH"
);
},
{
closed = 1;
nodes = (
"86 185 OFFCURVE",
"79 190 OFFCURVE",
"79 209 CURVE SMOOTH",
"79 225 OFFCURVE",
"102 256 OFFCURVE",
"127 256 CURVE SMOOTH",
"135 256 OFFCURVE",
"143 249 OFFCURVE",
"143 240 CURVE SMOOTH",
"143 218 OFFCURVE",
"118 185 OFFCURVE",
"98 185 CURVE SMOOTH"
);
}
);
width = 160;
}
);
unicode = 003A;
},
{
glyphname = comma;
lastChange = "2017-06-09 14:51:01 +0000";
layers = (
{
layerId = UUID0;
paths = (
{
closed = 1;
nodes = (
"82 63 OFFCURVE",
"87 47 OFFCURVE",
"87 31 CURVE SMOOTH",
"87 -10 OFFCURVE",
"52 -60 OFFCURVE",
"5 -88 CURVE",
"0 -88 OFFCURVE",
"-2 -82 OFFCURVE",
"2 -77 CURVE",
"31 -58 OFFCURVE",
"52 -29 OFFCURVE",
"52 2 CURVE SMOOTH",
"52 16 OFFCURVE",
"49 25 OFFCURVE",
"42 29 CURVE",
"35 36 OFFCURVE",
"65 66 OFFCURVE",
"75 66 CURVE"
);
}
);
width = 112;
},
{
layerId = "A10215CB-3318-4220-A0C8-1C7678CE5CF9";
paths = (
{
closed = 1;
nodes = (
"91 67 OFFCURVE",
"97 51 OFFCURVE",
"97 35 CURVE SMOOTH",
"97 -9 OFFCURVE",
"60 -57 OFFCURVE",
"7 -88 CURVE",
"2 -88 OFFCURVE",
"0 -84 OFFCURVE",
"5 -77 CURVE",
"33 -60 OFFCURVE",
"53 -32 OFFCURVE",
"53 -1 CURVE SMOOTH",
"53 14 OFFCURVE",
"49 23 OFFCURVE",
"42 26 CURVE",
"33 35 OFFCURVE",
"66 70 OFFCURVE",
"84 70 CURVE"
);
}
);
width = 122;
}
);
unicode = 002C;
},
{
glyphname = d;
lastChange = "2017-06-09 14:51:01 +0000";
layers = (
{
layerId = UUID0;
paths = (
{
closed = 1;
nodes = (
"637 756 OFFCURVE",
"647 726 OFFCURVE",
"628 686 CURVE",
"623 682 OFFCURVE",
"619 683 OFFCURVE",
"618 689 CURVE",
"621 708 OFFCURVE",
"606 719 OFFCURVE",
"582 719 CURVE SMOOTH",
"439 719 OFFCURVE",
"277 398 OFFCURVE",
"221 90 CURVE SMOOTH",
"216 59 OFFCURVE",
"217 32 OFFCURVE",
"233 32 CURVE SMOOTH",
"248 32 OFFCURVE",
"263 50 OFFCURVE",
"275 69 CURVE",
"278 72 OFFCURVE",
"284 68 OFFCURVE",
"283 63 CURVE",
"270 39 OFFCURVE",
"232 0 OFFCURVE",
"208 0 CURVE SMOOTH",
"185 0 OFFCURVE",
"177 21 OFFCURVE",
"180 52 CURVE",
"181 75 OFFCURVE",
"186 93 OFFCURVE",
"191 116 CURVE",
"167 60 OFFCURVE",
"106 8 OFFCURVE",
"78 0 CURVE",
"55 0 OFFCURVE",
"30 18 OFFCURVE",
"30 61 CURVE SMOOTH",
"30 162 OFFCURVE",
"104 257 OFFCURVE",
"194 257 CURVE SMOOTH",
"209 257 OFFCURVE",
"220 253 OFFCURVE",
"229 246 CURVE",
"301 462 OFFCURVE",
"466 756 OFFCURVE",
"602 756 CURVE SMOOTH"
);
},
{
closed = 1;
nodes = (
"126 35 OFFCURVE",
"181 106 OFFCURVE",
"208 181 CURVE SMOOTH",
"212 194 OFFCURVE",
"216 206 OFFCURVE",
"219 218 CURVE",
"214 234 OFFCURVE",
"198 241 OFFCURVE",
"179 241 CURVE SMOOTH",
"123 241 OFFCURVE",
"68 171 OFFCURVE",
"68 76 CURVE SMOOTH",
"68 48 OFFCURVE",
"81 35 OFFCURVE",
"96 35 CURVE SMOOTH"
);
}
);
width = 285;
},
{
layerId = "A10215CB-3318-4220-A0C8-1C7678CE5CF9";
paths = (
{
closed = 1;
nodes = (
"658 756 OFFCURVE",
"670 709 OFFCURVE",
"648 665 CURVE",
"645 662 OFFCURVE",
"640 663 OFFCURVE",
"639 668 CURVE",
"642 688 OFFCURVE",
"627 698 OFFCURVE",
"603 698 CURVE SMOOTH",
"458 698 OFFCURVE",
"335 510 OFFCURVE",
"255 90 CURVE",
"248 61 OFFCURVE",
"254 37 OFFCURVE",
"269 37 CURVE SMOOTH",
"284 37 OFFCURVE",
"297 50 OFFCURVE",
"308 69 CURVE",
"311 72 OFFCURVE",
"317 68 OFFCURVE",
"316 63 CURVE",
"303 36 OFFCURVE",
"262 0 OFFCURVE",
"234 0 CURVE SMOOTH",
"205 0 OFFCURVE",
"193 25 OFFCURVE",
"196 52 CURVE SMOOTH",
"199 75 OFFCURVE",
"203 93 OFFCURVE",
"208 116 CURVE",
"181 59 OFFCURVE",
"128 13 OFFCURVE",
"81 0 CURVE",
"50 0 OFFCURVE",
"30 25 OFFCURVE",
"30 61 CURVE SMOOTH",
"30 165 OFFCURVE",
"109 257 OFFCURVE",
"210 257 CURVE SMOOTH",
"224 257 OFFCURVE",
"236 255 OFFCURVE",
"247 250 CURVE",
"319 466 OFFCURVE",
"481 756 OFFCURVE",
"618 756 CURVE SMOOTH"
);
},
{
closed = 1;
nodes = (
"143 39 OFFCURVE",
"198 105 OFFCURVE",
"224 181 CURVE",
"229 193 OFFCURVE",
"233 206 OFFCURVE",
"236 218 CURVE",
"231 234 OFFCURVE",
"214 241 OFFCURVE",
"195 241 CURVE SMOOTH",
"139 241 OFFCURVE",
"85 171 OFFCURVE",
"85 76 CURVE SMOOTH",
"85 55 OFFCURVE",
"96 39 OFFCURVE",
"113 39 CURVE SMOOTH"
);
}
);
width = 317;
}
);
unicode = 0064;
},
{
glyphname = dagger;
lastChange = "2017-06-09 14:51:01 +0000";
layers = (
{
layerId = UUID0;
paths = (
{
closed = 1;
nodes = (
"251 330 OFFCURVE",
"244 318 OFFCURVE",
"228 317 CURVE",
"197 317 OFFCURVE",
"167 316 OFFCURVE",
"136 315 CURVE",
"95 185 OFFCURVE",
"61 59 OFFCURVE",
"36 -64 CURVE",
"32 -79 OFFCURVE",
"19 -84 OFFCURVE",
"22 -69 CURVE SMOOTH",
"43 50 OFFCURVE",
"79 195 OFFCURVE",
"111 313 CURVE",
"82 310 OFFCURVE",
"53 307 OFFCURVE",
"24 302 CURVE",
"12 305 OFFCURVE",
"28 323 OFFCURVE",
"61 328 CURVE",
"116 331 LINE",
"131 384 OFFCURVE",
"147 432 OFFCURVE",
"160 469 CURVE SMOOTH",
"168 493 OFFCURVE",
"203 536 OFFCURVE",
"203 510 CURVE",
"180 450 OFFCURVE",
"160 391 OFFCURVE",
"141 331 CURVE",
"172 332 OFFCURVE",
"205 333 OFFCURVE",
"236 330 CURVE"
);
}
);
width = 185;
},
{
layerId = "A10215CB-3318-4220-A0C8-1C7678CE5CF9";
paths = (
{
closed = 1;
nodes = (
"251 330 OFFCURVE",
"244 319 OFFCURVE",
"229 318 CURVE",
"198 318 OFFCURVE",
"170 317 OFFCURVE",
"142 316 CURVE",
"99 187 OFFCURVE",
"61 58 OFFCURVE",
"36 -63 CURVE SMOOTH",
"33 -78 OFFCURVE",
"21 -83 OFFCURVE",
"22 -68 CURVE",
"43 52 OFFCURVE",
"74 195 OFFCURVE",
"106 313 CURVE",
"78 310 OFFCURVE",
"52 309 OFFCURVE",
"25 302 CURVE",
"13 305 OFFCURVE",
"29 324 OFFCURVE",
"61 328 CURVE",
"110 331 LINE",
"125 386 OFFCURVE",
"138 433 OFFCURVE",
"153 470 CURVE",
"161 494 OFFCURVE",
"210 536 OFFCURVE",
"210 510 CURVE",
"187 451 OFFCURVE",
"167 392 OFFCURVE",
"147 332 CURVE",
"176 333 OFFCURVE",
"207 332 OFFCURVE",
"236 331 CURVE SMOOTH"
);
}
);
width = 185;
}
);
unicode = 2020;
},
{
glyphname = daggerdbl;
lastChange = "2017-06-09 14:51:01 +0000";
layers = (
{
layerId = UUID0;
paths = (
{
closed = 1;
nodes = (
"252 330 OFFCURVE",
"245 320 OFFCURVE",
"229 317 CURVE",
"198 317 OFFCURVE",
"167 318 OFFCURVE",
"136 315 CURVE",
"115 246 OFFCURVE",
"96 177 OFFCURVE",
"77 108 CURVE",
"111 109 OFFCURVE",
"146 108 OFFCURVE",
"183 105 CURVE",
"192 102 OFFCURVE",
"187 96 OFFCURVE",
"176 95 CURVE",
"141 96 OFFCURVE",
"108 97 OFFCURVE",
"73 94 CURVE",
"59 39 OFFCURVE",
"47 -14 OFFCURVE",
"37 -63 CURVE",
"33 -78 OFFCURVE",
"21 -84 OFFCURVE",
"22 -69 CURVE",
"33 -18 OFFCURVE",
"43 36 OFFCURVE",
"56 92 CURVE",
"27 89 OFFCURVE",
"0 86 OFFCURVE",
"-28 81 CURVE",
"-39 84 OFFCURVE",
"-25 101 OFFCURVE",
"7 105 CURVE SMOOTH",
"22 107 OFFCURVE",
"39 108 OFFCURVE",
"59 108 CURVE",
"76 180 OFFCURVE",
"93 250 OFFCURVE",
"112 314 CURVE",
"81 311 OFFCURVE",
"53 309 OFFCURVE",
"25 302 CURVE",
"13 305 OFFCURVE",
"29 324 OFFCURVE",
"61 328 CURVE",
"117 331 LINE",
"132 384 OFFCURVE",
"146 431 OFFCURVE",
"161 470 CURVE",
"169 494 OFFCURVE",
"203 536 OFFCURVE",
"203 510 CURVE",
"182 450 OFFCURVE",
"161 392 OFFCURVE",
"142 332 CURVE",
"173 332 OFFCURVE",
"206 332 OFFCURVE",
"237 331 CURVE SMOOTH"
);
}
);
width = 185;
},
{
layerId = "A10215CB-3318-4220-A0C8-1C7678CE5CF9";
paths = (
{
closed = 1;
nodes = (
"252 330 OFFCURVE",
"245 319 OFFCURVE",
"229 318 CURVE",
"198 318 OFFCURVE",
"170 317 OFFCURVE",
"142 316 CURVE",
"119 245 OFFCURVE",
"97 177 OFFCURVE",
"78 109 CURVE",
"111 109 OFFCURVE",
"147 108 OFFCURVE",
"182 105 CURVE",
"193 102 OFFCURVE",
"187 96 OFFCURVE",
"176 95 CURVE",
"141 96 OFFCURVE",
"109 97 OFFCURVE",
"74 94 CURVE",
"59 41 OFFCURVE",
"48 -12 OFFCURVE",
"37 -63 CURVE SMOOTH",
"33 -78 OFFCURVE",
"21 -83 OFFCURVE",
"22 -68 CURVE",
"33 -17 OFFCURVE",
"42 37 OFFCURVE",
"54 93 CURVE",
"26 90 OFFCURVE",
"-1 87 OFFCURVE",
"-28 82 CURVE",
"-39 83 OFFCURVE",
"-25 102 OFFCURVE",
"7 106 CURVE",
"22 107 OFFCURVE",
"39 108 OFFCURVE",
"58 108 CURVE",
"73 180 OFFCURVE",
"89 249 OFFCURVE",
"106 313 CURVE",
"78 310 OFFCURVE",
"52 309 OFFCURVE",
"25 302 CURVE",
"13 305 OFFCURVE",
"29 324 OFFCURVE",
"61 328 CURVE",
"110 331 LINE",
"125 386 OFFCURVE",
"138 433 OFFCURVE",
"153 470 CURVE",
"161 495 OFFCURVE",
"210 535 OFFCURVE",
"210 510 CURVE",
"189 451 OFFCURVE",
"167 392 OFFCURVE",
"147 332 CURVE",
"178 333 OFFCURVE",
"208 332 OFFCURVE",
"237 331 CURVE SMOOTH"
);
}
);
width = 185;
}
);
unicode = 2021;
},
{
glyphname = dieresis;
lastChange = "2017-06-09 14:51:01 +0000";
layers = (
{
layerId = UUID0;
paths = (
{
closed = 1;
nodes = (
"24 319 OFFCURVE",
"20 325 OFFCURVE",
"20 338 CURVE SMOOTH",
"20 353 OFFCURVE",
"37 379 OFFCURVE",
"60 379 CURVE SMOOTH",
"67 379 OFFCURVE",
"70 374 OFFCURVE",
"70 365 CURVE SMOOTH",
"70 345 OFFCURVE",
"52 319 OFFCURVE",
"33 319 CURVE SMOOTH"
);
},
{
closed = 1;
nodes = (
"109 319 OFFCURVE",
"105 325 OFFCURVE",
"105 338 CURVE SMOOTH",
"105 353 OFFCURVE",
"121 379 OFFCURVE",
"144 379 CURVE SMOOTH",
"151 379 OFFCURVE",
"154 374 OFFCURVE",
"154 365 CURVE SMOOTH",
"154 345 OFFCURVE",
"137 319 OFFCURVE",
"118 319 CURVE SMOOTH"
);
}
);
width = 174;
},
{
layerId = "A10215CB-3318-4220-A0C8-1C7678CE5CF9";
paths = (
{
closed = 1;
nodes = (
"22 316 OFFCURVE",
"14 326 OFFCURVE",
"14 338 CURVE SMOOTH",
"14 353 OFFCURVE",
"33 383 OFFCURVE",
"56 383 CURVE SMOOTH",
"63 383 OFFCURVE",
"70 373 OFFCURVE",
"70 365 CURVE SMOOTH",
"70 345 OFFCURVE",
"50 316 OFFCURVE",
"31 316 CURVE SMOOTH"
);
},
{
closed = 1;
nodes = (
"113 316 OFFCURVE",
"105 326 OFFCURVE",
"105 338 CURVE SMOOTH",
"105 353 OFFCURVE",
"125 383 OFFCURVE",
"148 383 CURVE SMOOTH",
"155 383 OFFCURVE",
"162 373 OFFCURVE",
"162 365 CURVE SMOOTH",
"162 345 OFFCURVE",
"141 316 OFFCURVE",
"122 316 CURVE SMOOTH"
);
}
);
width = 174;
}
);
unicode = 00A8;
},
{
glyphname = dotlessi;
lastChange = "2017-06-09 14:51:01 +0000";
layers = (
{
layerId = UUID0;
paths = (
{
closed = 1;
nodes = (
"48 183 OFFCURVE",
"43 190 OFFCURVE",
"46 194 CURVE SMOOTH",
"65 213 OFFCURVE",
"100 240 OFFCURVE",
"132 256 CURVE",
"137 256 OFFCURVE",
"140 253 OFFCURVE",
"140 247 CURVE",
"105 186 OFFCURVE",
"71 97 OFFCURVE",
"71 52 CURVE SMOOTH",
"71 38 OFFCURVE",
"76 31 OFFCURVE",
"85 31 CURVE SMOOTH",
"100 31 OFFCURVE",
"112 45 OFFCURVE",
"131 66 CURVE SMOOTH",
"134 69 OFFCURVE",
"140 63 OFFCURVE",
"137 58 CURVE",
"113 29 OFFCURVE",
"84 0 OFFCURVE",
"60 0 CURVE SMOOTH",
"43 0 OFFCURVE",
"34 11 OFFCURVE",
"34 33 CURVE SMOOTH",
"34 85 OFFCURVE",
"72 179 OFFCURVE",
"104 227 CURVE",
"89 216 OFFCURVE",
"63 197 OFFCURVE",
"52 186 CURVE SMOOTH"
);
}
);
width = 149;
},
{
layerId = "A10215CB-3318-4220-A0C8-1C7678CE5CF9";
paths = (
{
closed = 1;
nodes = (
"48 183 OFFCURVE",
"45 190 OFFCURVE",
"46 194 CURVE",
"71 214 OFFCURVE",
"105 235 OFFCURVE",
"149 256 CURVE",
"154 256 OFFCURVE",
"157 253 OFFCURVE",
"157 247 CURVE",
"122 186 OFFCURVE",
"88 97 OFFCURVE",
"88 52 CURVE SMOOTH",
"88 39 OFFCURVE",
"93 32 OFFCURVE",
"102 32 CURVE SMOOTH",
"117 32 OFFCURVE",
"129 46 OFFCURVE",
"148 66 CURVE SMOOTH",
"151 69 OFFCURVE",
"157 65 OFFCURVE",
"154 58 CURVE",
"125 23 OFFCURVE",
"96 0 OFFCURVE",
"69 0 CURVE SMOOTH",
"46 0 OFFCURVE",
"34 11 OFFCURVE",
"34 33 CURVE SMOOTH",
"34 81 OFFCURVE",
"67 170 OFFCURVE",
"99 218 CURVE",
"84 210 OFFCURVE",
"64 197 OFFCURVE",
"52 186 CURVE SMOOTH"
);
}
);
width = 166;
}
);
unicode = 0131;
},
{
glyphname = e;
lastChange = "2017-06-09 14:51:01 +0000";
layers = (
{
layerId = UUID0;
paths = (
{
closed = 1;
nodes = (
"206 174 OFFCURVE",
"142 151 OFFCURVE",
"70 132 CURVE",
"69 117 OFFCURVE",
"68 103 OFFCURVE",
"68 86 CURVE SMOOTH",
"68 53 OFFCURVE",
"83 27 OFFCURVE",
"110 27 CURVE SMOOTH",
"137 27 OFFCURVE",
"160 41 OFFCURVE",
"179 64 CURVE",
"184 67 OFFCURVE",
"188 61 OFFCURVE",
"185 56 CURVE SMOOTH",
"162 25 OFFCURVE",
"126 0 OFFCURVE",
"89 0 CURVE SMOOTH",
"54 0 OFFCURVE",
"30 23 OFFCURVE",
"30 67 CURVE SMOOTH",
"30 148 OFFCURVE",
"93 256 OFFCURVE",
"161 256 CURVE SMOOTH",
"186 256 OFFCURVE",
"206 235 OFFCURVE",
"206 212 CURVE SMOOTH"
);
},
{
closed = 1;
nodes = (
"109 230 OFFCURVE",
"84 204 OFFCURVE",
"73 147 CURVE",
"137 156 OFFCURVE",
"166 175 OFFCURVE",
"166 198 CURVE SMOOTH",
"166 217 OFFCURVE",
"156 230 OFFCURVE",
"140 230 CURVE SMOOTH"
);
}
);
width = 206;
},
{
layerId = "A10215CB-3318-4220-A0C8-1C7678CE5CF9";
paths = (
{
closed = 1;
nodes = (
"237 168 OFFCURVE",
"187 142 OFFCURVE",
"86 128 CURVE",
"85 115 OFFCURVE",
"84 102 OFFCURVE",
"84 87 CURVE SMOOTH",
"84 52 OFFCURVE",
"99 33 OFFCURVE",
"134 33 CURVE SMOOTH",
"159 33 OFFCURVE",
"189 49 OFFCURVE",
"205 72 CURVE",
"210 75 OFFCURVE",
"213 68 OFFCURVE",
"212 63 CURVE",
"185 28 OFFCURVE",
"143 0 OFFCURVE",
"96 0 CURVE SMOOTH",
"49 0 OFFCURVE",
"30 24 OFFCURVE",
"30 67 CURVE SMOOTH",
"30 151 OFFCURVE",
"105 256 OFFCURVE",
"177 256 CURVE SMOOTH",
"213 256 OFFCURVE",
"237 231 OFFCURVE",
"237 206 CURVE SMOOTH"
);
},
{
closed = 1;
nodes = (
"119 230 OFFCURVE",
"96 202 OFFCURVE",
"88 142 CURVE",
"152 149 OFFCURVE",
"182 167 OFFCURVE",
"182 194 CURVE SMOOTH",
"182 214 OFFCURVE",
"169 230 OFFCURVE",
"150 230 CURVE SMOOTH"
);
}
);
width = 237;
}
);
unicode = 0065;
},
{
glyphname = emdash;
lastChange = "2017-06-09 14:51:01 +0000";
layers = (
{
layerId = UUID0;
paths = (
{
closed = 1;
nodes = (
"99 166 OFFCURVE",
"909 165 OFFCURVE",
"977 165 CURVE",
"986 160 OFFCURVE",
"969 145 OFFCURVE",
"954 145 CURVE",
"853 150 OFFCURVE",
"99 151 OFFCURVE",
"23 146 CURVE",
"19 147 OFFCURVE",
"18 160 OFFCURVE",
"33 161 CURVE SMOOTH"
);
}
);
width = 1000;
},
{
layerId = "A10215CB-3318-4220-A0C8-1C7678CE5CF9";
paths = (
{
closed = 1;
nodes = (
"101 169 OFFCURVE",
"910 167 OFFCURVE",
"978 167 CURVE",
"986 162 OFFCURVE",
"966 142 OFFCURVE",
"950 142 CURVE",
"848 147 OFFCURVE",
"98 148 OFFCURVE",
"22 143 CURVE",
"18 146 OFFCURVE",
"20 162 OFFCURVE",
"35 163 CURVE SMOOTH"
);
}
);
width = 1000;
}
);
unicode = 2014;
},
{
glyphname = endash;
lastChange = "2017-06-09 14:51:01 +0000";
layers = (
{
layerId = UUID0;
paths = (
{
closed = 1;
nodes = (
"99 165 OFFCURVE",
"408 165 OFFCURVE",
"477 165 CURVE",
"486 160 OFFCURVE",
"469 145 OFFCURVE",
"454 145 CURVE",
"353 149 OFFCURVE",
"100 150 OFFCURVE",
"23 146 CURVE",
"19 147 OFFCURVE",
"18 160 OFFCURVE",
"33 161 CURVE SMOOTH"
);
}
);
width = 500;
},
{
layerId = "A10215CB-3318-4220-A0C8-1C7678CE5CF9";
paths = (
{
closed = 1;
nodes = (
"102 167 OFFCURVE",
"409 167 OFFCURVE",
"478 167 CURVE",
"486 162 OFFCURVE",
"466 142 OFFCURVE",
"450 142 CURVE",
"347 146 OFFCURVE",
"98 147 OFFCURVE",
"22 143 CURVE",
"18 146 OFFCURVE",
"20 162 OFFCURVE",
"35 163 CURVE SMOOTH"
);
}
);
width = 500;
}
);
unicode = 2013;
},
{
glyphname = eth;
lastChange = "2017-06-09 14:51:01 +0000";
layers = (
{
layerId = UUID0;
paths = (
{
closed = 1;
nodes = (
"200 383 OFFCURVE",
"223 303 OFFCURVE",
"223 210 CURVE SMOOTH",
"223 107 OFFCURVE",
"146 3 OFFCURVE",
"85 0 CURVE",
"50 0 OFFCURVE",
"33 30 OFFCURVE",
"33 67 CURVE SMOOTH",
"33 177 OFFCURVE",
"115 284 OFFCURVE",
"195 249 CURVE",
"187 324 OFFCURVE",
"165 384 OFFCURVE",
"122 452 CURVE",
"94 432 OFFCURVE",
"68 411 OFFCURVE",
"45 390 CURVE",
"38 390 OFFCURVE",
"41 404 OFFCURVE",
"52 417 CURVE",
"67 429 OFFCURVE",
"89 446 OFFCURVE",
"114 463 CURVE",
"101 482 OFFCURVE",
"86 502 OFFCURVE",
"69 522 CURVE SMOOTH",
"29 570 OFFCURVE",
"34 631 OFFCURVE",
"83 674 CURVE",
"88 675 OFFCURVE",
"92 669 OFFCURVE",
"89 664 CURVE SMOOTH",
"62 629 OFFCURVE",
"64 591 OFFCURVE",
"96 548 CURVE SMOOTH",
"113 525 OFFCURVE",
"127 503 OFFCURVE",
"142 482 CURVE",
"163 495 OFFCURVE",
"184 508 OFFCURVE",
"204 519 CURVE",
"207 519 OFFCURVE",
"211 515 OFFCURVE",
"204 508 CURVE",
"185 497 OFFCURVE",
"167 484 OFFCURVE",
"148 471 CURVE"
);
},
{
closed = 1;
nodes = (
"147 34 OFFCURVE",
"197 106 OFFCURVE",
"197 187 CURVE SMOOTH",
"197 224 OFFCURVE",
"184 240 OFFCURVE",
"161 240 CURVE SMOOTH",
"106 240 OFFCURVE",
"68 181 OFFCURVE",
"68 92 CURVE SMOOTH",
"68 61 OFFCURVE",
"80 34 OFFCURVE",
"107 34 CURVE SMOOTH"
);
}
);
width = 234;
},
{
layerId = "A10215CB-3318-4220-A0C8-1C7678CE5CF9";
paths = (
{
closed = 1;
nodes = (
"227 394 OFFCURVE",
"253 309 OFFCURVE",
"253 224 CURVE SMOOTH",
"253 105 OFFCURVE",
"161 3 OFFCURVE",
"94 0 CURVE",
"58 0 OFFCURVE",
"33 26 OFFCURVE",
"33 67 CURVE SMOOTH",
"33 177 OFFCURVE",
"132 284 OFFCURVE",
"212 249 CURVE",
"204 325 OFFCURVE",
"182 385 OFFCURVE",
"138 452 CURVE",
"111 432 OFFCURVE",
"85 411 OFFCURVE",
"62 391 CURVE",
"55 390 OFFCURVE",
"58 404 OFFCURVE",
"69 417 CURVE",
"84 430 OFFCURVE",
"106 446 OFFCURVE",
"131 463 CURVE",
"118 482 OFFCURVE",
"103 502 OFFCURVE",
"86 522 CURVE SMOOTH",
"47 569 OFFCURVE",
"64 637 OFFCURVE",
"117 674 CURVE",
"122 675 OFFCURVE",
"126 669 OFFCURVE",
"123 664 CURVE",
"94 629 OFFCURVE",
"98 591 OFFCURVE",
"130 548 CURVE SMOOTH",
"145 529 OFFCURVE",
"158 509 OFFCURVE",
"170 489 CURVE",
"187 500 OFFCURVE",
"205 510 OFFCURVE",
"221 519 CURVE",
"224 519 OFFCURVE",
"228 515 OFFCURVE",
"221 508 CURVE",
"206 499 OFFCURVE",
"192 490 OFFCURVE",
"176 479 CURVE"
);
},
{
closed = 1;
nodes = (
"164 34 OFFCURVE",
"214 107 OFFCURVE",
"214 187 CURVE SMOOTH",
"214 226 OFFCURVE",
"201 240 OFFCURVE",
"178 240 CURVE SMOOTH",
"123 240 OFFCURVE",
"85 181 OFFCURVE",
"85 93 CURVE SMOOTH",
"85 62 OFFCURVE",
"97 34 OFFCURVE",
"124 34 CURVE SMOOTH"
);
}
);
width = 264;
}
);
unicode = 00F0;
},
{
glyphname = exclam;
lastChange = "2017-06-09 14:51:01 +0000";
layers = (
{
layerId = UUID0;
paths = (
{
closed = 1;
nodes = (
"59 0 OFFCURVE",
"55 7 OFFCURVE",
"55 22 CURVE SMOOTH",
"55 37 OFFCURVE",
"80 65 OFFCURVE",
"103 65 CURVE SMOOTH",
"110 65 OFFCURVE",
"113 60 OFFCURVE",
"113 51 CURVE SMOOTH",
"113 30 OFFCURVE",
"86 0 OFFCURVE",
"68 0 CURVE SMOOTH"
);
},
{
closed = 1;
nodes = (
"262 421 OFFCURVE",
"168 212 OFFCURVE",
"133 132 CURVE",
"122 120 OFFCURVE",
"113 124 OFFCURVE",
"117 139 CURVE",
"158 228 OFFCURVE",
"224 410 OFFCURVE",
"248 495 CURVE",
"264 519 OFFCURVE",
"334 565 OFFCURVE",
"315 525 CURVE"
);
}
);
width = 189;
},
{
layerId = "A10215CB-3318-4220-A0C8-1C7678CE5CF9";
paths = (
{
closed = 1;
nodes = (
"62 0 OFFCURVE",
"55 5 OFFCURVE",
"55 24 CURVE SMOOTH",
"55 40 OFFCURVE",
"79 71 OFFCURVE",
"104 71 CURVE SMOOTH",
"112 71 OFFCURVE",
"120 64 OFFCURVE",
"120 55 CURVE SMOOTH",
"120 33 OFFCURVE",
"95 0 OFFCURVE",
"74 0 CURVE SMOOTH"
);
},
{
closed = 1;
nodes = (
"276 414 OFFCURVE",
"177 214 OFFCURVE",
"137 131 CURVE",
"126 119 OFFCURVE",
"116 123 OFFCURVE",
"120 138 CURVE",
"152 210 OFFCURVE",
"218 393 OFFCURVE",
"244 494 CURVE",
"263 523 OFFCURVE",
"348 565 OFFCURVE",
"329 524 CURVE SMOOTH"
);
}
);
width = 200;
}
);
unicode = 0021;
},
{
glyphname = exclamdown;
lastChange = "2017-06-09 14:51:01 +0000";
layers = (
{
layerId = UUID0;
paths = (
{
closed = 1;
nodes = (
"180 255 OFFCURVE",
"184 248 OFFCURVE",
"184 233 CURVE SMOOTH",
"184 218 OFFCURVE",
"159 190 OFFCURVE",
"136 190 CURVE SMOOTH",
"129 190 OFFCURVE",
"126 195 OFFCURVE",
"126 204 CURVE SMOOTH",
"126 225 OFFCURVE",
"152 255 OFFCURVE",
"171 255 CURVE SMOOTH"
);
},
{
closed = 1;
nodes = (
"-25 -165 OFFCURVE",
"71 43 OFFCURVE",
"106 123 CURVE",
"117 135 OFFCURVE",
"126 131 OFFCURVE",
"122 116 CURVE",
"82 27 OFFCURVE",
"15 -156 OFFCURVE",
"-9 -240 CURVE",
"-25 -264 OFFCURVE",
"-95 -310 OFFCURVE",
"-76 -270 CURVE SMOOTH"
);
}
);
width = 189;
},
{
layerId = "A10215CB-3318-4220-A0C8-1C7678CE5CF9";
paths = (
{
closed = 1;
nodes = (
"184 255 OFFCURVE",
"191 250 OFFCURVE",
"191 231 CURVE SMOOTH",
"191 215 OFFCURVE",
"167 184 OFFCURVE",
"142 184 CURVE SMOOTH",
"134 184 OFFCURVE",
"126 191 OFFCURVE",
"126 200 CURVE SMOOTH",
"126 221 OFFCURVE",
"151 255 OFFCURVE",
"172 255 CURVE SMOOTH"
);
},
{
closed = 1;
nodes = (
"-29 -159 OFFCURVE",
"70 40 OFFCURVE",
"109 124 CURVE",
"120 136 OFFCURVE",
"130 132 OFFCURVE",
"126 117 CURVE",
"94 45 OFFCURVE",
"29 -139 OFFCURVE",
"2 -239 CURVE",
"-16 -268 OFFCURVE",
"-104 -309 OFFCURVE",
"-83 -269 CURVE"
);
}
);
width = 196;
}
);
unicode = 00A1;
},
